G04 #@! TF.GenerationSoftware,KiCad,Pcbnew,5.0.2+dfsg1-1*
G04 #@! TF.CreationDate,2019-09-15T21:20:22+01:00*
G04 #@! TF.ProjectId,hw,68772e6b-6963-4616-945f-706362585858,rev?*
G04 #@! TF.SameCoordinates,Original*
G04 #@! TF.FileFunction,Legend,Bot*
G04 #@! TF.FilePolarity,Positive*
%FSLAX46Y46*%
G04 Gerber Fmt 4.6, Leading zero omitted, Abs format (unit mm)*
G04 Created by KiCad (PCBNEW 5.0.2+dfsg1-1) date Sun 15 Sep 2019 21:20:22 BST*
%MOMM*%
%LPD*%
G01*
G04 APERTURE LIST*
%ADD10R,1.702000X1.702000*%
%ADD11O,1.702000X1.702000*%
%ADD12C,1.702000*%
%ADD13O,1.802000X1.802000*%
%ADD14R,1.802000X1.802000*%
%ADD15C,7.102000*%
%ADD16C,0.902000*%
%ADD17R,1.902000X1.902000*%
%ADD18C,1.902000*%
G04 APERTURE END LIST*
%LPC*%
D10*
G04 #@! TO.C,U7*
X101600000Y-104140000D03*
D11*
X109220000Y-127000000D03*
X101600000Y-106680000D03*
X109220000Y-124460000D03*
X101600000Y-109220000D03*
X109220000Y-121920000D03*
X101600000Y-111760000D03*
X109220000Y-119380000D03*
X101600000Y-114300000D03*
X109220000Y-116840000D03*
X101600000Y-116840000D03*
X109220000Y-114300000D03*
X101600000Y-119380000D03*
X109220000Y-111760000D03*
X101600000Y-121920000D03*
X109220000Y-109220000D03*
X101600000Y-124460000D03*
X109220000Y-106680000D03*
X101600000Y-127000000D03*
X109220000Y-104140000D03*
G04 #@! TD*
D10*
G04 #@! TO.C,U6*
X137160000Y-78740000D03*
D11*
X152400000Y-127000000D03*
X137160000Y-81280000D03*
X152400000Y-124460000D03*
X137160000Y-83820000D03*
X152400000Y-121920000D03*
X137160000Y-86360000D03*
X152400000Y-119380000D03*
X137160000Y-88900000D03*
X152400000Y-116840000D03*
X137160000Y-91440000D03*
X152400000Y-114300000D03*
X137160000Y-93980000D03*
X152400000Y-111760000D03*
X137160000Y-96520000D03*
X152400000Y-109220000D03*
X137160000Y-99060000D03*
X152400000Y-106680000D03*
X137160000Y-101600000D03*
X152400000Y-104140000D03*
X137160000Y-104140000D03*
X152400000Y-101600000D03*
X137160000Y-106680000D03*
X152400000Y-99060000D03*
X137160000Y-109220000D03*
X152400000Y-96520000D03*
X137160000Y-111760000D03*
X152400000Y-93980000D03*
X137160000Y-114300000D03*
X152400000Y-91440000D03*
X137160000Y-116840000D03*
X152400000Y-88900000D03*
X137160000Y-119380000D03*
X152400000Y-86360000D03*
X137160000Y-121920000D03*
X152400000Y-83820000D03*
X137160000Y-124460000D03*
X152400000Y-81280000D03*
X137160000Y-127000000D03*
X152400000Y-78740000D03*
G04 #@! TD*
G04 #@! TO.C,U12*
X121920000Y-109220000D03*
X114300000Y-127000000D03*
X121920000Y-111760000D03*
X114300000Y-124460000D03*
X121920000Y-114300000D03*
X114300000Y-121920000D03*
X121920000Y-116840000D03*
X114300000Y-119380000D03*
X121920000Y-119380000D03*
X114300000Y-116840000D03*
X121920000Y-121920000D03*
X114300000Y-114300000D03*
X121920000Y-124460000D03*
X114300000Y-111760000D03*
X121920000Y-127000000D03*
D10*
X114300000Y-109220000D03*
G04 #@! TD*
G04 #@! TO.C,U4*
X127000000Y-55880000D03*
D11*
X134620000Y-71120000D03*
X127000000Y-58420000D03*
X134620000Y-68580000D03*
X127000000Y-60960000D03*
X134620000Y-66040000D03*
X127000000Y-63500000D03*
X134620000Y-63500000D03*
X127000000Y-66040000D03*
X134620000Y-60960000D03*
X127000000Y-68580000D03*
X134620000Y-58420000D03*
X127000000Y-71120000D03*
X134620000Y-55880000D03*
G04 #@! TD*
D10*
G04 #@! TO.C,U10*
X157480000Y-78740000D03*
D11*
X165100000Y-111760000D03*
X157480000Y-81280000D03*
X165100000Y-109220000D03*
X157480000Y-83820000D03*
X165100000Y-106680000D03*
X157480000Y-86360000D03*
X165100000Y-104140000D03*
X157480000Y-88900000D03*
X165100000Y-101600000D03*
X157480000Y-91440000D03*
X165100000Y-99060000D03*
X157480000Y-93980000D03*
X165100000Y-96520000D03*
X157480000Y-96520000D03*
X165100000Y-93980000D03*
X157480000Y-99060000D03*
X165100000Y-91440000D03*
X157480000Y-101600000D03*
X165100000Y-88900000D03*
X157480000Y-104140000D03*
X165100000Y-86360000D03*
X157480000Y-106680000D03*
X165100000Y-83820000D03*
X157480000Y-109220000D03*
X165100000Y-81280000D03*
X157480000Y-111760000D03*
X165100000Y-78740000D03*
G04 #@! TD*
D10*
G04 #@! TO.C,U2*
X88900000Y-78740000D03*
D11*
X96520000Y-96520000D03*
X88900000Y-81280000D03*
X96520000Y-93980000D03*
X88900000Y-83820000D03*
X96520000Y-91440000D03*
X88900000Y-86360000D03*
X96520000Y-88900000D03*
X88900000Y-88900000D03*
X96520000Y-86360000D03*
X88900000Y-91440000D03*
X96520000Y-83820000D03*
X88900000Y-93980000D03*
X96520000Y-81280000D03*
X88900000Y-96520000D03*
X96520000Y-78740000D03*
G04 #@! TD*
D12*
G04 #@! TO.C,C1*
X159980000Y-53340000D03*
X157480000Y-53340000D03*
G04 #@! TD*
G04 #@! TO.C,C2*
X116880000Y-106680000D03*
X119380000Y-106680000D03*
G04 #@! TD*
G04 #@! TO.C,C3*
X132080000Y-129540000D03*
X134580000Y-129540000D03*
G04 #@! TD*
G04 #@! TO.C,C4*
X104180000Y-101600000D03*
X106680000Y-101600000D03*
G04 #@! TD*
G04 #@! TO.C,C5*
X104180000Y-53340000D03*
X106680000Y-53340000D03*
G04 #@! TD*
G04 #@! TO.C,C6*
X91440000Y-76200000D03*
X93940000Y-76200000D03*
G04 #@! TD*
G04 #@! TO.C,C7*
X147320000Y-129540000D03*
X149820000Y-129540000D03*
G04 #@! TD*
G04 #@! TO.C,C8*
X99060000Y-121920000D03*
X99060000Y-119420000D03*
G04 #@! TD*
G04 #@! TO.C,C9*
X132080000Y-53340000D03*
X129580000Y-53340000D03*
G04 #@! TD*
G04 #@! TO.C,C10*
X162560000Y-76200000D03*
X160060000Y-76200000D03*
G04 #@! TD*
G04 #@! TO.C,C11*
X119380000Y-83820000D03*
X116880000Y-83820000D03*
G04 #@! TD*
G04 #@! TO.C,C12*
X86360000Y-119380000D03*
X86360000Y-121880000D03*
G04 #@! TD*
D10*
G04 #@! TO.C,D1*
X101600000Y-93980000D03*
D11*
X109220000Y-93980000D03*
G04 #@! TD*
G04 #@! TO.C,D2*
X86360000Y-134620000D03*
D10*
X86360000Y-127000000D03*
G04 #@! TD*
D13*
G04 #@! TO.C,J2*
X170180000Y-109220000D03*
X170180000Y-111760000D03*
X170180000Y-114300000D03*
X170180000Y-116840000D03*
X170180000Y-119380000D03*
X170180000Y-121920000D03*
X170180000Y-124460000D03*
D14*
X170180000Y-127000000D03*
G04 #@! TD*
G04 #@! TO.C,J3*
X101600000Y-132080000D03*
D13*
X104140000Y-132080000D03*
X101600000Y-134620000D03*
X104140000Y-134620000D03*
X101600000Y-137160000D03*
X104140000Y-137160000D03*
G04 #@! TD*
D14*
G04 #@! TO.C,J4*
X81280000Y-111760000D03*
D13*
X81280000Y-109220000D03*
X81280000Y-106680000D03*
X81280000Y-104140000D03*
G04 #@! TD*
D14*
G04 #@! TO.C,J7*
X127000000Y-127000000D03*
D13*
X127000000Y-124460000D03*
X127000000Y-121920000D03*
X127000000Y-119380000D03*
X127000000Y-116840000D03*
X127000000Y-114300000D03*
X127000000Y-111760000D03*
X127000000Y-109220000D03*
G04 #@! TD*
D10*
G04 #@! TO.C,RN1*
X132080000Y-106680000D03*
D11*
X132080000Y-109220000D03*
X132080000Y-111760000D03*
X132080000Y-114300000D03*
X132080000Y-116840000D03*
X132080000Y-119380000D03*
X132080000Y-121920000D03*
X132080000Y-124460000D03*
X132080000Y-127000000D03*
G04 #@! TD*
G04 #@! TO.C,U3*
X137160000Y-132080000D03*
X129540000Y-147320000D03*
X137160000Y-134620000D03*
X129540000Y-144780000D03*
X137160000Y-137160000D03*
X129540000Y-142240000D03*
X137160000Y-139700000D03*
X129540000Y-139700000D03*
X137160000Y-142240000D03*
X129540000Y-137160000D03*
X137160000Y-144780000D03*
X129540000Y-134620000D03*
X137160000Y-147320000D03*
D10*
X129540000Y-132080000D03*
G04 #@! TD*
G04 #@! TO.C,U5*
X101600000Y-55880000D03*
D11*
X109220000Y-73660000D03*
X101600000Y-58420000D03*
X109220000Y-71120000D03*
X101600000Y-60960000D03*
X109220000Y-68580000D03*
X101600000Y-63500000D03*
X109220000Y-66040000D03*
X101600000Y-66040000D03*
X109220000Y-63500000D03*
X101600000Y-68580000D03*
X109220000Y-60960000D03*
X101600000Y-71120000D03*
X109220000Y-58420000D03*
X101600000Y-73660000D03*
X109220000Y-55880000D03*
G04 #@! TD*
G04 #@! TO.C,U8*
X162560000Y-55880000D03*
X154940000Y-71120000D03*
X162560000Y-58420000D03*
X154940000Y-68580000D03*
X162560000Y-60960000D03*
X154940000Y-66040000D03*
X162560000Y-63500000D03*
X154940000Y-63500000D03*
X162560000Y-66040000D03*
X154940000Y-60960000D03*
X162560000Y-68580000D03*
X154940000Y-58420000D03*
X162560000Y-71120000D03*
D10*
X154940000Y-55880000D03*
G04 #@! TD*
G04 #@! TO.C,U9*
X144780000Y-132080000D03*
D11*
X152400000Y-147320000D03*
X144780000Y-134620000D03*
X152400000Y-144780000D03*
X144780000Y-137160000D03*
X152400000Y-142240000D03*
X144780000Y-139700000D03*
X152400000Y-139700000D03*
X144780000Y-142240000D03*
X152400000Y-137160000D03*
X144780000Y-144780000D03*
X152400000Y-134620000D03*
X144780000Y-147320000D03*
X152400000Y-132080000D03*
G04 #@! TD*
D10*
G04 #@! TO.C,U11*
X114300000Y-86360000D03*
D11*
X121920000Y-101600000D03*
X114300000Y-88900000D03*
X121920000Y-99060000D03*
X114300000Y-91440000D03*
X121920000Y-96520000D03*
X114300000Y-93980000D03*
X121920000Y-93980000D03*
X114300000Y-96520000D03*
X121920000Y-91440000D03*
X114300000Y-99060000D03*
X121920000Y-88900000D03*
X114300000Y-101600000D03*
X121920000Y-86360000D03*
G04 #@! TD*
D10*
G04 #@! TO.C,X1*
X101600000Y-78740000D03*
D12*
X109220000Y-78740000D03*
X109220000Y-86360000D03*
X101600000Y-86360000D03*
G04 #@! TD*
D14*
G04 #@! TO.C,J1*
X88900000Y-144780000D03*
D13*
X88900000Y-142240000D03*
X91440000Y-144780000D03*
X91440000Y-142240000D03*
X93980000Y-144780000D03*
X93980000Y-142240000D03*
X96520000Y-144780000D03*
X96520000Y-142240000D03*
G04 #@! TD*
D12*
G04 #@! TO.C,R1*
X109220000Y-91440000D03*
D11*
X101600000Y-91440000D03*
G04 #@! TD*
D12*
G04 #@! TO.C,R2*
X86360000Y-96520000D03*
D11*
X86360000Y-104140000D03*
G04 #@! TD*
D12*
G04 #@! TO.C,R3*
X101600000Y-96520000D03*
D11*
X109220000Y-96520000D03*
G04 #@! TD*
G04 #@! TO.C,R4*
X121920000Y-132080000D03*
D12*
X121920000Y-139700000D03*
G04 #@! TD*
D11*
G04 #@! TO.C,R5*
X116840000Y-132080000D03*
D12*
X116840000Y-139700000D03*
G04 #@! TD*
D11*
G04 #@! TO.C,R6*
X111760000Y-132080000D03*
D12*
X111760000Y-139700000D03*
G04 #@! TD*
D15*
G04 #@! TO.C,M1*
X81280000Y-144780000D03*
D16*
X83905000Y-144780000D03*
X83136155Y-146636155D03*
X81280000Y-147405000D03*
X79423845Y-146636155D03*
X78655000Y-144780000D03*
X79423845Y-142923845D03*
X81280000Y-142155000D03*
X83136155Y-142923845D03*
G04 #@! TD*
G04 #@! TO.C,M2*
X83136155Y-54023845D03*
X81280000Y-53255000D03*
X79423845Y-54023845D03*
X78655000Y-55880000D03*
X79423845Y-57736155D03*
X81280000Y-58505000D03*
X83136155Y-57736155D03*
X83905000Y-55880000D03*
D15*
X81280000Y-55880000D03*
G04 #@! TD*
G04 #@! TO.C,M3*
X170180000Y-144780000D03*
D16*
X172805000Y-144780000D03*
X172036155Y-146636155D03*
X170180000Y-147405000D03*
X168323845Y-146636155D03*
X167555000Y-144780000D03*
X168323845Y-142923845D03*
X170180000Y-142155000D03*
X172036155Y-142923845D03*
G04 #@! TD*
G04 #@! TO.C,M4*
X172036155Y-54023845D03*
X170180000Y-53255000D03*
X168323845Y-54023845D03*
X167555000Y-55880000D03*
X168323845Y-57736155D03*
X170180000Y-58505000D03*
X172036155Y-57736155D03*
X172805000Y-55880000D03*
D15*
X170180000Y-55880000D03*
G04 #@! TD*
D13*
G04 #@! TO.C,J5*
X170180000Y-78740000D03*
X170180000Y-81280000D03*
X170180000Y-83820000D03*
X170180000Y-86360000D03*
X170180000Y-88900000D03*
X170180000Y-91440000D03*
X170180000Y-93980000D03*
D14*
X170180000Y-96520000D03*
G04 #@! TD*
G04 #@! TO.C,J6*
X127000000Y-96520000D03*
D13*
X127000000Y-93980000D03*
X127000000Y-91440000D03*
X127000000Y-88900000D03*
X127000000Y-86360000D03*
X127000000Y-83820000D03*
X127000000Y-81280000D03*
X127000000Y-78740000D03*
G04 #@! TD*
D14*
G04 #@! TO.C,J8*
X121920000Y-144780000D03*
D13*
X119380000Y-144780000D03*
X116840000Y-144780000D03*
X114300000Y-144780000D03*
X111760000Y-144780000D03*
X109220000Y-144780000D03*
X106680000Y-144780000D03*
X104140000Y-144780000D03*
G04 #@! TD*
D17*
G04 #@! TO.C,D3*
X81280000Y-121920000D03*
D18*
X81280000Y-119380000D03*
G04 #@! TD*
D12*
G04 #@! TO.C,R7*
X81280000Y-134620000D03*
D11*
X81280000Y-127000000D03*
G04 #@! TD*
D14*
G04 #@! TO.C,J9*
X81280000Y-96520000D03*
D13*
X81280000Y-93980000D03*
X81280000Y-91440000D03*
X81280000Y-88900000D03*
G04 #@! TD*
D10*
G04 #@! TO.C,U1*
X88900000Y-104140000D03*
D11*
X96520000Y-137160000D03*
X88900000Y-106680000D03*
X96520000Y-134620000D03*
X88900000Y-109220000D03*
X96520000Y-132080000D03*
X88900000Y-111760000D03*
X96520000Y-129540000D03*
X88900000Y-114300000D03*
X96520000Y-127000000D03*
X88900000Y-116840000D03*
X96520000Y-124460000D03*
X88900000Y-119380000D03*
X96520000Y-121920000D03*
X88900000Y-121920000D03*
X96520000Y-119380000D03*
X88900000Y-124460000D03*
X96520000Y-116840000D03*
X88900000Y-127000000D03*
X96520000Y-114300000D03*
X88900000Y-129540000D03*
X96520000Y-111760000D03*
X88900000Y-132080000D03*
X96520000Y-109220000D03*
X88900000Y-134620000D03*
X96520000Y-106680000D03*
X88900000Y-137160000D03*
X96520000Y-104140000D03*
G04 #@! TD*
M02*
