G04 #@! TF.GenerationSoftware,KiCad,Pcbnew,5.0.2+dfsg1-1*
G04 #@! TF.CreationDate,2019-09-15T21:20:22+01:00*
G04 #@! TF.ProjectId,hw,68772e6b-6963-4616-945f-706362585858,rev?*
G04 #@! TF.SameCoordinates,Original*
G04 #@! TF.FileFunction,Legend,Top*
G04 #@! TF.FilePolarity,Positive*
%FSLAX46Y46*%
G04 Gerber Fmt 4.6, Leading zero omitted, Abs format (unit mm)*
G04 Created by KiCad (PCBNEW 5.0.2+dfsg1-1) date Sun 15 Sep 2019 21:20:22 BST*
%MOMM*%
%LPD*%
G01*
G04 APERTURE LIST*
%ADD10C,0.300000*%
%ADD11C,0.100000*%
%ADD12C,0.120000*%
%ADD13C,0.150000*%
%ADD14R,1.702000X1.702000*%
%ADD15O,1.702000X1.702000*%
%ADD16C,1.702000*%
%ADD17O,1.802000X1.802000*%
%ADD18R,1.802000X1.802000*%
%ADD19C,7.102000*%
%ADD20C,0.902000*%
%ADD21R,1.902000X1.902000*%
%ADD22C,1.902000*%
G04 APERTURE END LIST*
D10*
X157923571Y-145814285D02*
X158209285Y-145814285D01*
X157923571Y-145242857D02*
X158209285Y-145242857D01*
X158637857Y-144100000D02*
X158637857Y-144600000D01*
X159423571Y-144600000D02*
X157923571Y-144600000D01*
X157923571Y-143885714D01*
X159423571Y-143314285D02*
X158423571Y-143314285D01*
X158709285Y-143314285D02*
X158566428Y-143242857D01*
X158495000Y-143171428D01*
X158423571Y-143028571D01*
X158423571Y-142885714D01*
X159352142Y-141814285D02*
X159423571Y-141957142D01*
X159423571Y-142242857D01*
X159352142Y-142385714D01*
X159209285Y-142457142D01*
X158637857Y-142457142D01*
X158495000Y-142385714D01*
X158423571Y-142242857D01*
X158423571Y-141957142D01*
X158495000Y-141814285D01*
X158637857Y-141742857D01*
X158780714Y-141742857D01*
X158923571Y-142457142D01*
X158423571Y-141242857D02*
X159423571Y-140885714D01*
X158423571Y-140528571D02*
X159423571Y-140885714D01*
X159780714Y-141028571D01*
X159852142Y-141100000D01*
X159923571Y-141242857D01*
X159423571Y-139314285D02*
X158637857Y-139314285D01*
X158495000Y-139385714D01*
X158423571Y-139528571D01*
X158423571Y-139814285D01*
X158495000Y-139957142D01*
X159352142Y-139314285D02*
X159423571Y-139457142D01*
X159423571Y-139814285D01*
X159352142Y-139957142D01*
X159209285Y-140028571D01*
X159066428Y-140028571D01*
X158923571Y-139957142D01*
X158852142Y-139814285D01*
X158852142Y-139457142D01*
X158780714Y-139314285D01*
X157923571Y-138671428D02*
X158209285Y-138671428D01*
X157923571Y-138100000D02*
X158209285Y-138100000D01*
X157923571Y-136457142D02*
X157923571Y-135457142D01*
X159423571Y-136457142D01*
X159423571Y-135457142D01*
X158566428Y-134671428D02*
X158495000Y-134814285D01*
X158423571Y-134885714D01*
X158280714Y-134957142D01*
X158209285Y-134957142D01*
X158066428Y-134885714D01*
X157995000Y-134814285D01*
X157923571Y-134671428D01*
X157923571Y-134385714D01*
X157995000Y-134242857D01*
X158066428Y-134171428D01*
X158209285Y-134100000D01*
X158280714Y-134100000D01*
X158423571Y-134171428D01*
X158495000Y-134242857D01*
X158566428Y-134385714D01*
X158566428Y-134671428D01*
X158637857Y-134814285D01*
X158709285Y-134885714D01*
X158852142Y-134957142D01*
X159137857Y-134957142D01*
X159280714Y-134885714D01*
X159352142Y-134814285D01*
X159423571Y-134671428D01*
X159423571Y-134385714D01*
X159352142Y-134242857D01*
X159280714Y-134171428D01*
X159137857Y-134100000D01*
X158852142Y-134100000D01*
X158709285Y-134171428D01*
X158637857Y-134242857D01*
X158566428Y-134385714D01*
X157923571Y-133171428D02*
X157923571Y-133028571D01*
X157995000Y-132885714D01*
X158066428Y-132814285D01*
X158209285Y-132742857D01*
X158495000Y-132671428D01*
X158852142Y-132671428D01*
X159137857Y-132742857D01*
X159280714Y-132814285D01*
X159352142Y-132885714D01*
X159423571Y-133028571D01*
X159423571Y-133171428D01*
X159352142Y-133314285D01*
X159280714Y-133385714D01*
X159137857Y-133457142D01*
X158852142Y-133528571D01*
X158495000Y-133528571D01*
X158209285Y-133457142D01*
X158066428Y-133385714D01*
X157995000Y-133314285D01*
X157923571Y-133171428D01*
X159280714Y-130028571D02*
X159352142Y-130100000D01*
X159423571Y-130314285D01*
X159423571Y-130457142D01*
X159352142Y-130671428D01*
X159209285Y-130814285D01*
X159066428Y-130885714D01*
X158780714Y-130957142D01*
X158566428Y-130957142D01*
X158280714Y-130885714D01*
X158137857Y-130814285D01*
X157995000Y-130671428D01*
X157923571Y-130457142D01*
X157923571Y-130314285D01*
X157995000Y-130100000D01*
X158066428Y-130028571D01*
X159423571Y-129171428D02*
X159352142Y-129314285D01*
X159280714Y-129385714D01*
X159137857Y-129457142D01*
X158709285Y-129457142D01*
X158566428Y-129385714D01*
X158495000Y-129314285D01*
X158423571Y-129171428D01*
X158423571Y-128957142D01*
X158495000Y-128814285D01*
X158566428Y-128742857D01*
X158709285Y-128671428D01*
X159137857Y-128671428D01*
X159280714Y-128742857D01*
X159352142Y-128814285D01*
X159423571Y-128957142D01*
X159423571Y-129171428D01*
X159423571Y-128028571D02*
X158423571Y-128028571D01*
X158566428Y-128028571D02*
X158495000Y-127957142D01*
X158423571Y-127814285D01*
X158423571Y-127600000D01*
X158495000Y-127457142D01*
X158637857Y-127385714D01*
X159423571Y-127385714D01*
X158637857Y-127385714D02*
X158495000Y-127314285D01*
X158423571Y-127171428D01*
X158423571Y-126957142D01*
X158495000Y-126814285D01*
X158637857Y-126742857D01*
X159423571Y-126742857D01*
X158423571Y-126028571D02*
X159923571Y-126028571D01*
X158495000Y-126028571D02*
X158423571Y-125885714D01*
X158423571Y-125600000D01*
X158495000Y-125457142D01*
X158566428Y-125385714D01*
X158709285Y-125314285D01*
X159137857Y-125314285D01*
X159280714Y-125385714D01*
X159352142Y-125457142D01*
X159423571Y-125600000D01*
X159423571Y-125885714D01*
X159352142Y-126028571D01*
X158423571Y-124028571D02*
X159423571Y-124028571D01*
X158423571Y-124671428D02*
X159209285Y-124671428D01*
X159352142Y-124600000D01*
X159423571Y-124457142D01*
X159423571Y-124242857D01*
X159352142Y-124100000D01*
X159280714Y-124028571D01*
X158423571Y-123528571D02*
X158423571Y-122957142D01*
X157923571Y-123314285D02*
X159209285Y-123314285D01*
X159352142Y-123242857D01*
X159423571Y-123100000D01*
X159423571Y-122957142D01*
X159352142Y-121885714D02*
X159423571Y-122028571D01*
X159423571Y-122314285D01*
X159352142Y-122457142D01*
X159209285Y-122528571D01*
X158637857Y-122528571D01*
X158495000Y-122457142D01*
X158423571Y-122314285D01*
X158423571Y-122028571D01*
X158495000Y-121885714D01*
X158637857Y-121814285D01*
X158780714Y-121814285D01*
X158923571Y-122528571D01*
X159423571Y-121171428D02*
X158423571Y-121171428D01*
X158709285Y-121171428D02*
X158566428Y-121100000D01*
X158495000Y-121028571D01*
X158423571Y-120885714D01*
X158423571Y-120742857D01*
X162545000Y-144992857D02*
X162473571Y-145064285D01*
X162259285Y-145207142D01*
X162116428Y-145278571D01*
X161902142Y-145350000D01*
X161545000Y-145421428D01*
X161259285Y-145421428D01*
X160902142Y-145350000D01*
X160687857Y-145278571D01*
X160545000Y-145207142D01*
X160330714Y-145064285D01*
X160259285Y-144992857D01*
X161830714Y-143564285D02*
X161902142Y-143635714D01*
X161973571Y-143850000D01*
X161973571Y-143992857D01*
X161902142Y-144207142D01*
X161759285Y-144350000D01*
X161616428Y-144421428D01*
X161330714Y-144492857D01*
X161116428Y-144492857D01*
X160830714Y-144421428D01*
X160687857Y-144350000D01*
X160545000Y-144207142D01*
X160473571Y-143992857D01*
X160473571Y-143850000D01*
X160545000Y-143635714D01*
X160616428Y-143564285D01*
X162545000Y-143064285D02*
X162473571Y-142992857D01*
X162259285Y-142850000D01*
X162116428Y-142778571D01*
X161902142Y-142707142D01*
X161545000Y-142635714D01*
X161259285Y-142635714D01*
X160902142Y-142707142D01*
X160687857Y-142778571D01*
X160545000Y-142850000D01*
X160330714Y-142992857D01*
X160259285Y-143064285D01*
X160616428Y-140850000D02*
X160545000Y-140778571D01*
X160473571Y-140635714D01*
X160473571Y-140278571D01*
X160545000Y-140135714D01*
X160616428Y-140064285D01*
X160759285Y-139992857D01*
X160902142Y-139992857D01*
X161116428Y-140064285D01*
X161973571Y-140921428D01*
X161973571Y-139992857D01*
X160473571Y-139064285D02*
X160473571Y-138921428D01*
X160545000Y-138778571D01*
X160616428Y-138707142D01*
X160759285Y-138635714D01*
X161045000Y-138564285D01*
X161402142Y-138564285D01*
X161687857Y-138635714D01*
X161830714Y-138707142D01*
X161902142Y-138778571D01*
X161973571Y-138921428D01*
X161973571Y-139064285D01*
X161902142Y-139207142D01*
X161830714Y-139278571D01*
X161687857Y-139350000D01*
X161402142Y-139421428D01*
X161045000Y-139421428D01*
X160759285Y-139350000D01*
X160616428Y-139278571D01*
X160545000Y-139207142D01*
X160473571Y-139064285D01*
X161973571Y-137135714D02*
X161973571Y-137992857D01*
X161973571Y-137564285D02*
X160473571Y-137564285D01*
X160687857Y-137707142D01*
X160830714Y-137850000D01*
X160902142Y-137992857D01*
X161973571Y-136421428D02*
X161973571Y-136135714D01*
X161902142Y-135992857D01*
X161830714Y-135921428D01*
X161616428Y-135778571D01*
X161330714Y-135707142D01*
X160759285Y-135707142D01*
X160616428Y-135778571D01*
X160545000Y-135850000D01*
X160473571Y-135992857D01*
X160473571Y-136278571D01*
X160545000Y-136421428D01*
X160616428Y-136492857D01*
X160759285Y-136564285D01*
X161116428Y-136564285D01*
X161259285Y-136492857D01*
X161330714Y-136421428D01*
X161402142Y-136278571D01*
X161402142Y-135992857D01*
X161330714Y-135850000D01*
X161259285Y-135778571D01*
X161116428Y-135707142D01*
X161973571Y-133064285D02*
X161259285Y-133564285D01*
X161973571Y-133921428D02*
X160473571Y-133921428D01*
X160473571Y-133350000D01*
X160545000Y-133207142D01*
X160616428Y-133135714D01*
X160759285Y-133064285D01*
X160973571Y-133064285D01*
X161116428Y-133135714D01*
X161187857Y-133207142D01*
X161259285Y-133350000D01*
X161259285Y-133921428D01*
X161830714Y-132421428D02*
X161902142Y-132350000D01*
X161973571Y-132421428D01*
X161902142Y-132492857D01*
X161830714Y-132421428D01*
X161973571Y-132421428D01*
X160473571Y-130707142D02*
X161973571Y-130350000D01*
X160902142Y-130064285D01*
X161973571Y-129778571D01*
X160473571Y-129421428D01*
X161973571Y-128207142D02*
X161187857Y-128207142D01*
X161045000Y-128278571D01*
X160973571Y-128421428D01*
X160973571Y-128707142D01*
X161045000Y-128850000D01*
X161902142Y-128207142D02*
X161973571Y-128350000D01*
X161973571Y-128707142D01*
X161902142Y-128850000D01*
X161759285Y-128921428D01*
X161616428Y-128921428D01*
X161473571Y-128850000D01*
X161402142Y-128707142D01*
X161402142Y-128350000D01*
X161330714Y-128207142D01*
X161973571Y-127492857D02*
X160973571Y-127492857D01*
X161259285Y-127492857D02*
X161116428Y-127421428D01*
X161045000Y-127350000D01*
X160973571Y-127207142D01*
X160973571Y-127064285D01*
X161902142Y-125992857D02*
X161973571Y-126135714D01*
X161973571Y-126421428D01*
X161902142Y-126564285D01*
X161759285Y-126635714D01*
X161187857Y-126635714D01*
X161045000Y-126564285D01*
X160973571Y-126421428D01*
X160973571Y-126135714D01*
X161045000Y-125992857D01*
X161187857Y-125921428D01*
X161330714Y-125921428D01*
X161473571Y-126635714D01*
X161973571Y-125278571D02*
X160473571Y-125278571D01*
X161973571Y-124635714D02*
X161187857Y-124635714D01*
X161045000Y-124707142D01*
X160973571Y-124850000D01*
X160973571Y-125064285D01*
X161045000Y-125207142D01*
X161116428Y-125278571D01*
X161973571Y-123278571D02*
X161187857Y-123278571D01*
X161045000Y-123350000D01*
X160973571Y-123492857D01*
X160973571Y-123778571D01*
X161045000Y-123921428D01*
X161902142Y-123278571D02*
X161973571Y-123421428D01*
X161973571Y-123778571D01*
X161902142Y-123921428D01*
X161759285Y-123992857D01*
X161616428Y-123992857D01*
X161473571Y-123921428D01*
X161402142Y-123778571D01*
X161402142Y-123421428D01*
X161330714Y-123278571D01*
X161973571Y-122564285D02*
X160973571Y-122564285D01*
X161116428Y-122564285D02*
X161045000Y-122492857D01*
X160973571Y-122350000D01*
X160973571Y-122135714D01*
X161045000Y-121992857D01*
X161187857Y-121921428D01*
X161973571Y-121921428D01*
X161187857Y-121921428D02*
X161045000Y-121850000D01*
X160973571Y-121707142D01*
X160973571Y-121492857D01*
X161045000Y-121350000D01*
X161187857Y-121278571D01*
X161973571Y-121278571D01*
D11*
X78390000Y-89433333D02*
X78356666Y-89500000D01*
X78356666Y-89600000D01*
X78390000Y-89700000D01*
X78456666Y-89766666D01*
X78523333Y-89800000D01*
X78656666Y-89833333D01*
X78756666Y-89833333D01*
X78890000Y-89800000D01*
X78956666Y-89766666D01*
X79023333Y-89700000D01*
X79056666Y-89600000D01*
X79056666Y-89533333D01*
X79023333Y-89433333D01*
X78990000Y-89400000D01*
X78756666Y-89400000D01*
X78756666Y-89533333D01*
X79056666Y-89100000D02*
X78356666Y-89100000D01*
X79056666Y-88700000D01*
X78356666Y-88700000D01*
X79056666Y-88366666D02*
X78356666Y-88366666D01*
X78356666Y-88200000D01*
X78390000Y-88100000D01*
X78456666Y-88033333D01*
X78523333Y-88000000D01*
X78656666Y-87966666D01*
X78756666Y-87966666D01*
X78890000Y-88000000D01*
X78956666Y-88033333D01*
X79023333Y-88100000D01*
X79056666Y-88200000D01*
X79056666Y-88366666D01*
X78390000Y-97053333D02*
X78356666Y-97120000D01*
X78356666Y-97220000D01*
X78390000Y-97320000D01*
X78456666Y-97386666D01*
X78523333Y-97420000D01*
X78656666Y-97453333D01*
X78756666Y-97453333D01*
X78890000Y-97420000D01*
X78956666Y-97386666D01*
X79023333Y-97320000D01*
X79056666Y-97220000D01*
X79056666Y-97153333D01*
X79023333Y-97053333D01*
X78990000Y-97020000D01*
X78756666Y-97020000D01*
X78756666Y-97153333D01*
X79056666Y-96720000D02*
X78356666Y-96720000D01*
X79056666Y-96320000D01*
X78356666Y-96320000D01*
X79056666Y-95986666D02*
X78356666Y-95986666D01*
X78356666Y-95820000D01*
X78390000Y-95720000D01*
X78456666Y-95653333D01*
X78523333Y-95620000D01*
X78656666Y-95586666D01*
X78756666Y-95586666D01*
X78890000Y-95620000D01*
X78956666Y-95653333D01*
X79023333Y-95720000D01*
X79056666Y-95820000D01*
X79056666Y-95986666D01*
X78790000Y-92340000D02*
X78790000Y-91806666D01*
X79056666Y-92073333D02*
X78523333Y-92073333D01*
X78356666Y-91140000D02*
X78356666Y-91473333D01*
X78690000Y-91506666D01*
X78656666Y-91473333D01*
X78623333Y-91406666D01*
X78623333Y-91240000D01*
X78656666Y-91173333D01*
X78690000Y-91140000D01*
X78756666Y-91106666D01*
X78923333Y-91106666D01*
X78990000Y-91140000D01*
X79023333Y-91173333D01*
X79056666Y-91240000D01*
X79056666Y-91406666D01*
X79023333Y-91473333D01*
X78990000Y-91506666D01*
X78356666Y-90906666D02*
X79056666Y-90673333D01*
X78356666Y-90440000D01*
X78790000Y-94880000D02*
X78790000Y-94346666D01*
X79056666Y-94613333D02*
X78523333Y-94613333D01*
X78356666Y-93680000D02*
X78356666Y-94013333D01*
X78690000Y-94046666D01*
X78656666Y-94013333D01*
X78623333Y-93946666D01*
X78623333Y-93780000D01*
X78656666Y-93713333D01*
X78690000Y-93680000D01*
X78756666Y-93646666D01*
X78923333Y-93646666D01*
X78990000Y-93680000D01*
X79023333Y-93713333D01*
X79056666Y-93780000D01*
X79056666Y-93946666D01*
X79023333Y-94013333D01*
X78990000Y-94046666D01*
X78356666Y-93446666D02*
X79056666Y-93213333D01*
X78356666Y-92980000D01*
X129856666Y-127516666D02*
X129156666Y-127516666D01*
X129156666Y-127350000D01*
X129190000Y-127250000D01*
X129256666Y-127183333D01*
X129323333Y-127150000D01*
X129456666Y-127116666D01*
X129556666Y-127116666D01*
X129690000Y-127150000D01*
X129756666Y-127183333D01*
X129823333Y-127250000D01*
X129856666Y-127350000D01*
X129856666Y-127516666D01*
X129156666Y-126683333D02*
X129156666Y-126616666D01*
X129190000Y-126550000D01*
X129223333Y-126516666D01*
X129290000Y-126483333D01*
X129423333Y-126450000D01*
X129590000Y-126450000D01*
X129723333Y-126483333D01*
X129790000Y-126516666D01*
X129823333Y-126550000D01*
X129856666Y-126616666D01*
X129856666Y-126683333D01*
X129823333Y-126750000D01*
X129790000Y-126783333D01*
X129723333Y-126816666D01*
X129590000Y-126850000D01*
X129423333Y-126850000D01*
X129290000Y-126816666D01*
X129223333Y-126783333D01*
X129190000Y-126750000D01*
X129156666Y-126683333D01*
X129856666Y-124976666D02*
X129156666Y-124976666D01*
X129156666Y-124810000D01*
X129190000Y-124710000D01*
X129256666Y-124643333D01*
X129323333Y-124610000D01*
X129456666Y-124576666D01*
X129556666Y-124576666D01*
X129690000Y-124610000D01*
X129756666Y-124643333D01*
X129823333Y-124710000D01*
X129856666Y-124810000D01*
X129856666Y-124976666D01*
X129856666Y-123910000D02*
X129856666Y-124310000D01*
X129856666Y-124110000D02*
X129156666Y-124110000D01*
X129256666Y-124176666D01*
X129323333Y-124243333D01*
X129356666Y-124310000D01*
X129856666Y-122436666D02*
X129156666Y-122436666D01*
X129156666Y-122270000D01*
X129190000Y-122170000D01*
X129256666Y-122103333D01*
X129323333Y-122070000D01*
X129456666Y-122036666D01*
X129556666Y-122036666D01*
X129690000Y-122070000D01*
X129756666Y-122103333D01*
X129823333Y-122170000D01*
X129856666Y-122270000D01*
X129856666Y-122436666D01*
X129223333Y-121770000D02*
X129190000Y-121736666D01*
X129156666Y-121670000D01*
X129156666Y-121503333D01*
X129190000Y-121436666D01*
X129223333Y-121403333D01*
X129290000Y-121370000D01*
X129356666Y-121370000D01*
X129456666Y-121403333D01*
X129856666Y-121803333D01*
X129856666Y-121370000D01*
X129856666Y-119896666D02*
X129156666Y-119896666D01*
X129156666Y-119730000D01*
X129190000Y-119630000D01*
X129256666Y-119563333D01*
X129323333Y-119530000D01*
X129456666Y-119496666D01*
X129556666Y-119496666D01*
X129690000Y-119530000D01*
X129756666Y-119563333D01*
X129823333Y-119630000D01*
X129856666Y-119730000D01*
X129856666Y-119896666D01*
X129156666Y-119263333D02*
X129156666Y-118830000D01*
X129423333Y-119063333D01*
X129423333Y-118963333D01*
X129456666Y-118896666D01*
X129490000Y-118863333D01*
X129556666Y-118830000D01*
X129723333Y-118830000D01*
X129790000Y-118863333D01*
X129823333Y-118896666D01*
X129856666Y-118963333D01*
X129856666Y-119163333D01*
X129823333Y-119230000D01*
X129790000Y-119263333D01*
X129856666Y-117356666D02*
X129156666Y-117356666D01*
X129156666Y-117190000D01*
X129190000Y-117090000D01*
X129256666Y-117023333D01*
X129323333Y-116990000D01*
X129456666Y-116956666D01*
X129556666Y-116956666D01*
X129690000Y-116990000D01*
X129756666Y-117023333D01*
X129823333Y-117090000D01*
X129856666Y-117190000D01*
X129856666Y-117356666D01*
X129390000Y-116356666D02*
X129856666Y-116356666D01*
X129123333Y-116523333D02*
X129623333Y-116690000D01*
X129623333Y-116256666D01*
X129856666Y-114816666D02*
X129156666Y-114816666D01*
X129156666Y-114650000D01*
X129190000Y-114550000D01*
X129256666Y-114483333D01*
X129323333Y-114450000D01*
X129456666Y-114416666D01*
X129556666Y-114416666D01*
X129690000Y-114450000D01*
X129756666Y-114483333D01*
X129823333Y-114550000D01*
X129856666Y-114650000D01*
X129856666Y-114816666D01*
X129156666Y-113783333D02*
X129156666Y-114116666D01*
X129490000Y-114150000D01*
X129456666Y-114116666D01*
X129423333Y-114050000D01*
X129423333Y-113883333D01*
X129456666Y-113816666D01*
X129490000Y-113783333D01*
X129556666Y-113750000D01*
X129723333Y-113750000D01*
X129790000Y-113783333D01*
X129823333Y-113816666D01*
X129856666Y-113883333D01*
X129856666Y-114050000D01*
X129823333Y-114116666D01*
X129790000Y-114150000D01*
X129856666Y-112276666D02*
X129156666Y-112276666D01*
X129156666Y-112110000D01*
X129190000Y-112010000D01*
X129256666Y-111943333D01*
X129323333Y-111910000D01*
X129456666Y-111876666D01*
X129556666Y-111876666D01*
X129690000Y-111910000D01*
X129756666Y-111943333D01*
X129823333Y-112010000D01*
X129856666Y-112110000D01*
X129856666Y-112276666D01*
X129156666Y-111276666D02*
X129156666Y-111410000D01*
X129190000Y-111476666D01*
X129223333Y-111510000D01*
X129323333Y-111576666D01*
X129456666Y-111610000D01*
X129723333Y-111610000D01*
X129790000Y-111576666D01*
X129823333Y-111543333D01*
X129856666Y-111476666D01*
X129856666Y-111343333D01*
X129823333Y-111276666D01*
X129790000Y-111243333D01*
X129723333Y-111210000D01*
X129556666Y-111210000D01*
X129490000Y-111243333D01*
X129456666Y-111276666D01*
X129423333Y-111343333D01*
X129423333Y-111476666D01*
X129456666Y-111543333D01*
X129490000Y-111576666D01*
X129556666Y-111610000D01*
X129856666Y-109736666D02*
X129156666Y-109736666D01*
X129156666Y-109570000D01*
X129190000Y-109470000D01*
X129256666Y-109403333D01*
X129323333Y-109370000D01*
X129456666Y-109336666D01*
X129556666Y-109336666D01*
X129690000Y-109370000D01*
X129756666Y-109403333D01*
X129823333Y-109470000D01*
X129856666Y-109570000D01*
X129856666Y-109736666D01*
X129156666Y-109103333D02*
X129156666Y-108636666D01*
X129856666Y-108936666D01*
X129656666Y-97020000D02*
X129656666Y-96686666D01*
X129856666Y-97086666D02*
X129156666Y-96853333D01*
X129856666Y-96620000D01*
X129456666Y-96286666D02*
X129423333Y-96353333D01*
X129390000Y-96386666D01*
X129323333Y-96420000D01*
X129290000Y-96420000D01*
X129223333Y-96386666D01*
X129190000Y-96353333D01*
X129156666Y-96286666D01*
X129156666Y-96153333D01*
X129190000Y-96086666D01*
X129223333Y-96053333D01*
X129290000Y-96020000D01*
X129323333Y-96020000D01*
X129390000Y-96053333D01*
X129423333Y-96086666D01*
X129456666Y-96153333D01*
X129456666Y-96286666D01*
X129490000Y-96353333D01*
X129523333Y-96386666D01*
X129590000Y-96420000D01*
X129723333Y-96420000D01*
X129790000Y-96386666D01*
X129823333Y-96353333D01*
X129856666Y-96286666D01*
X129856666Y-96153333D01*
X129823333Y-96086666D01*
X129790000Y-96053333D01*
X129723333Y-96020000D01*
X129590000Y-96020000D01*
X129523333Y-96053333D01*
X129490000Y-96086666D01*
X129456666Y-96153333D01*
X129656666Y-94480000D02*
X129656666Y-94146666D01*
X129856666Y-94546666D02*
X129156666Y-94313333D01*
X129856666Y-94080000D01*
X129856666Y-93813333D02*
X129856666Y-93680000D01*
X129823333Y-93613333D01*
X129790000Y-93580000D01*
X129690000Y-93513333D01*
X129556666Y-93480000D01*
X129290000Y-93480000D01*
X129223333Y-93513333D01*
X129190000Y-93546666D01*
X129156666Y-93613333D01*
X129156666Y-93746666D01*
X129190000Y-93813333D01*
X129223333Y-93846666D01*
X129290000Y-93880000D01*
X129456666Y-93880000D01*
X129523333Y-93846666D01*
X129556666Y-93813333D01*
X129590000Y-93746666D01*
X129590000Y-93613333D01*
X129556666Y-93546666D01*
X129523333Y-93513333D01*
X129456666Y-93480000D01*
X129656666Y-92273333D02*
X129656666Y-91940000D01*
X129856666Y-92340000D02*
X129156666Y-92106666D01*
X129856666Y-91873333D01*
X129856666Y-91273333D02*
X129856666Y-91673333D01*
X129856666Y-91473333D02*
X129156666Y-91473333D01*
X129256666Y-91540000D01*
X129323333Y-91606666D01*
X129356666Y-91673333D01*
X129156666Y-90840000D02*
X129156666Y-90773333D01*
X129190000Y-90706666D01*
X129223333Y-90673333D01*
X129290000Y-90640000D01*
X129423333Y-90606666D01*
X129590000Y-90606666D01*
X129723333Y-90640000D01*
X129790000Y-90673333D01*
X129823333Y-90706666D01*
X129856666Y-90773333D01*
X129856666Y-90840000D01*
X129823333Y-90906666D01*
X129790000Y-90940000D01*
X129723333Y-90973333D01*
X129590000Y-91006666D01*
X129423333Y-91006666D01*
X129290000Y-90973333D01*
X129223333Y-90940000D01*
X129190000Y-90906666D01*
X129156666Y-90840000D01*
X129656666Y-89733333D02*
X129656666Y-89400000D01*
X129856666Y-89800000D02*
X129156666Y-89566666D01*
X129856666Y-89333333D01*
X129856666Y-88733333D02*
X129856666Y-89133333D01*
X129856666Y-88933333D02*
X129156666Y-88933333D01*
X129256666Y-89000000D01*
X129323333Y-89066666D01*
X129356666Y-89133333D01*
X129856666Y-88066666D02*
X129856666Y-88466666D01*
X129856666Y-88266666D02*
X129156666Y-88266666D01*
X129256666Y-88333333D01*
X129323333Y-88400000D01*
X129356666Y-88466666D01*
X129656666Y-87193333D02*
X129656666Y-86860000D01*
X129856666Y-87260000D02*
X129156666Y-87026666D01*
X129856666Y-86793333D01*
X129856666Y-86193333D02*
X129856666Y-86593333D01*
X129856666Y-86393333D02*
X129156666Y-86393333D01*
X129256666Y-86460000D01*
X129323333Y-86526666D01*
X129356666Y-86593333D01*
X129223333Y-85926666D02*
X129190000Y-85893333D01*
X129156666Y-85826666D01*
X129156666Y-85660000D01*
X129190000Y-85593333D01*
X129223333Y-85560000D01*
X129290000Y-85526666D01*
X129356666Y-85526666D01*
X129456666Y-85560000D01*
X129856666Y-85960000D01*
X129856666Y-85526666D01*
X129656666Y-84653333D02*
X129656666Y-84320000D01*
X129856666Y-84720000D02*
X129156666Y-84486666D01*
X129856666Y-84253333D01*
X129856666Y-83653333D02*
X129856666Y-84053333D01*
X129856666Y-83853333D02*
X129156666Y-83853333D01*
X129256666Y-83920000D01*
X129323333Y-83986666D01*
X129356666Y-84053333D01*
X129156666Y-83420000D02*
X129156666Y-82986666D01*
X129423333Y-83220000D01*
X129423333Y-83120000D01*
X129456666Y-83053333D01*
X129490000Y-83020000D01*
X129556666Y-82986666D01*
X129723333Y-82986666D01*
X129790000Y-83020000D01*
X129823333Y-83053333D01*
X129856666Y-83120000D01*
X129856666Y-83320000D01*
X129823333Y-83386666D01*
X129790000Y-83420000D01*
X129656666Y-82113333D02*
X129656666Y-81780000D01*
X129856666Y-82180000D02*
X129156666Y-81946666D01*
X129856666Y-81713333D01*
X129856666Y-81113333D02*
X129856666Y-81513333D01*
X129856666Y-81313333D02*
X129156666Y-81313333D01*
X129256666Y-81380000D01*
X129323333Y-81446666D01*
X129356666Y-81513333D01*
X129390000Y-80513333D02*
X129856666Y-80513333D01*
X129123333Y-80680000D02*
X129623333Y-80846666D01*
X129623333Y-80413333D01*
X129656666Y-79573333D02*
X129656666Y-79240000D01*
X129856666Y-79640000D02*
X129156666Y-79406666D01*
X129856666Y-79173333D01*
X129856666Y-78573333D02*
X129856666Y-78973333D01*
X129856666Y-78773333D02*
X129156666Y-78773333D01*
X129256666Y-78840000D01*
X129323333Y-78906666D01*
X129356666Y-78973333D01*
X129156666Y-77940000D02*
X129156666Y-78273333D01*
X129490000Y-78306666D01*
X129456666Y-78273333D01*
X129423333Y-78206666D01*
X129423333Y-78040000D01*
X129456666Y-77973333D01*
X129490000Y-77940000D01*
X129556666Y-77906666D01*
X129723333Y-77906666D01*
X129790000Y-77940000D01*
X129823333Y-77973333D01*
X129856666Y-78040000D01*
X129856666Y-78206666D01*
X129823333Y-78273333D01*
X129790000Y-78306666D01*
X172836666Y-79240000D02*
X172836666Y-78906666D01*
X173036666Y-79306666D02*
X172336666Y-79073333D01*
X173036666Y-78840000D01*
X172336666Y-78673333D02*
X172336666Y-78206666D01*
X173036666Y-78506666D01*
X172836666Y-81780000D02*
X172836666Y-81446666D01*
X173036666Y-81846666D02*
X172336666Y-81613333D01*
X173036666Y-81380000D01*
X172336666Y-80846666D02*
X172336666Y-80980000D01*
X172370000Y-81046666D01*
X172403333Y-81080000D01*
X172503333Y-81146666D01*
X172636666Y-81180000D01*
X172903333Y-81180000D01*
X172970000Y-81146666D01*
X173003333Y-81113333D01*
X173036666Y-81046666D01*
X173036666Y-80913333D01*
X173003333Y-80846666D01*
X172970000Y-80813333D01*
X172903333Y-80780000D01*
X172736666Y-80780000D01*
X172670000Y-80813333D01*
X172636666Y-80846666D01*
X172603333Y-80913333D01*
X172603333Y-81046666D01*
X172636666Y-81113333D01*
X172670000Y-81146666D01*
X172736666Y-81180000D01*
X172836666Y-84320000D02*
X172836666Y-83986666D01*
X173036666Y-84386666D02*
X172336666Y-84153333D01*
X173036666Y-83920000D01*
X172336666Y-83353333D02*
X172336666Y-83686666D01*
X172670000Y-83720000D01*
X172636666Y-83686666D01*
X172603333Y-83620000D01*
X172603333Y-83453333D01*
X172636666Y-83386666D01*
X172670000Y-83353333D01*
X172736666Y-83320000D01*
X172903333Y-83320000D01*
X172970000Y-83353333D01*
X173003333Y-83386666D01*
X173036666Y-83453333D01*
X173036666Y-83620000D01*
X173003333Y-83686666D01*
X172970000Y-83720000D01*
X172836666Y-86860000D02*
X172836666Y-86526666D01*
X173036666Y-86926666D02*
X172336666Y-86693333D01*
X173036666Y-86460000D01*
X172570000Y-85926666D02*
X173036666Y-85926666D01*
X172303333Y-86093333D02*
X172803333Y-86260000D01*
X172803333Y-85826666D01*
X172836666Y-89400000D02*
X172836666Y-89066666D01*
X173036666Y-89466666D02*
X172336666Y-89233333D01*
X173036666Y-89000000D01*
X172336666Y-88833333D02*
X172336666Y-88400000D01*
X172603333Y-88633333D01*
X172603333Y-88533333D01*
X172636666Y-88466666D01*
X172670000Y-88433333D01*
X172736666Y-88400000D01*
X172903333Y-88400000D01*
X172970000Y-88433333D01*
X173003333Y-88466666D01*
X173036666Y-88533333D01*
X173036666Y-88733333D01*
X173003333Y-88800000D01*
X172970000Y-88833333D01*
X172836666Y-91940000D02*
X172836666Y-91606666D01*
X173036666Y-92006666D02*
X172336666Y-91773333D01*
X173036666Y-91540000D01*
X172403333Y-91340000D02*
X172370000Y-91306666D01*
X172336666Y-91240000D01*
X172336666Y-91073333D01*
X172370000Y-91006666D01*
X172403333Y-90973333D01*
X172470000Y-90940000D01*
X172536666Y-90940000D01*
X172636666Y-90973333D01*
X173036666Y-91373333D01*
X173036666Y-90940000D01*
X172836666Y-94480000D02*
X172836666Y-94146666D01*
X173036666Y-94546666D02*
X172336666Y-94313333D01*
X173036666Y-94080000D01*
X173036666Y-93480000D02*
X173036666Y-93880000D01*
X173036666Y-93680000D02*
X172336666Y-93680000D01*
X172436666Y-93746666D01*
X172503333Y-93813333D01*
X172536666Y-93880000D01*
X172836666Y-97020000D02*
X172836666Y-96686666D01*
X173036666Y-97086666D02*
X172336666Y-96853333D01*
X173036666Y-96620000D01*
X172336666Y-96253333D02*
X172336666Y-96186666D01*
X172370000Y-96120000D01*
X172403333Y-96086666D01*
X172470000Y-96053333D01*
X172603333Y-96020000D01*
X172770000Y-96020000D01*
X172903333Y-96053333D01*
X172970000Y-96086666D01*
X173003333Y-96120000D01*
X173036666Y-96186666D01*
X173036666Y-96253333D01*
X173003333Y-96320000D01*
X172970000Y-96353333D01*
X172903333Y-96386666D01*
X172770000Y-96420000D01*
X172603333Y-96420000D01*
X172470000Y-96386666D01*
X172403333Y-96353333D01*
X172370000Y-96320000D01*
X172336666Y-96253333D01*
X172770000Y-127900000D02*
X172770000Y-127366666D01*
X173036666Y-127633333D02*
X172503333Y-127633333D01*
X172336666Y-126700000D02*
X172336666Y-127033333D01*
X172670000Y-127066666D01*
X172636666Y-127033333D01*
X172603333Y-126966666D01*
X172603333Y-126800000D01*
X172636666Y-126733333D01*
X172670000Y-126700000D01*
X172736666Y-126666666D01*
X172903333Y-126666666D01*
X172970000Y-126700000D01*
X173003333Y-126733333D01*
X173036666Y-126800000D01*
X173036666Y-126966666D01*
X173003333Y-127033333D01*
X172970000Y-127066666D01*
X172336666Y-126466666D02*
X173036666Y-126233333D01*
X172336666Y-126000000D01*
X172086000Y-125160000D02*
X172086000Y-124460000D01*
X173036666Y-124593333D02*
X172703333Y-124826666D01*
X173036666Y-124993333D02*
X172336666Y-124993333D01*
X172336666Y-124726666D01*
X172370000Y-124660000D01*
X172403333Y-124626666D01*
X172470000Y-124593333D01*
X172570000Y-124593333D01*
X172636666Y-124626666D01*
X172670000Y-124660000D01*
X172703333Y-124726666D01*
X172703333Y-124993333D01*
X172086000Y-124460000D02*
X172086000Y-123760000D01*
X173036666Y-124293333D02*
X172336666Y-124293333D01*
X172336666Y-124126666D01*
X172370000Y-124026666D01*
X172436666Y-123960000D01*
X172503333Y-123926666D01*
X172636666Y-123893333D01*
X172736666Y-123893333D01*
X172870000Y-123926666D01*
X172936666Y-123960000D01*
X173003333Y-124026666D01*
X173036666Y-124126666D01*
X173036666Y-124293333D01*
X172086000Y-122670000D02*
X172086000Y-121870000D01*
X172336666Y-122570000D02*
X173036666Y-122403333D01*
X172536666Y-122270000D01*
X173036666Y-122136666D01*
X172336666Y-121970000D01*
X172086000Y-121870000D02*
X172086000Y-121170000D01*
X173036666Y-121303333D02*
X172703333Y-121536666D01*
X173036666Y-121703333D02*
X172336666Y-121703333D01*
X172336666Y-121436666D01*
X172370000Y-121370000D01*
X172403333Y-121336666D01*
X172470000Y-121303333D01*
X172570000Y-121303333D01*
X172636666Y-121336666D01*
X172670000Y-121370000D01*
X172703333Y-121436666D01*
X172703333Y-121703333D01*
X172086000Y-120496666D02*
X172086000Y-119696666D01*
X173036666Y-120330000D02*
X172336666Y-120330000D01*
X172836666Y-120096666D01*
X172336666Y-119863333D01*
X173036666Y-119863333D01*
X172086000Y-119696666D02*
X172086000Y-118996666D01*
X173036666Y-119130000D02*
X172703333Y-119363333D01*
X173036666Y-119530000D02*
X172336666Y-119530000D01*
X172336666Y-119263333D01*
X172370000Y-119196666D01*
X172403333Y-119163333D01*
X172470000Y-119130000D01*
X172570000Y-119130000D01*
X172636666Y-119163333D01*
X172670000Y-119196666D01*
X172703333Y-119263333D01*
X172703333Y-119530000D01*
X172086000Y-118996666D02*
X172086000Y-118263333D01*
X173103333Y-118363333D02*
X173070000Y-118430000D01*
X173003333Y-118496666D01*
X172903333Y-118596666D01*
X172870000Y-118663333D01*
X172870000Y-118730000D01*
X173036666Y-118696666D02*
X173003333Y-118763333D01*
X172936666Y-118830000D01*
X172803333Y-118863333D01*
X172570000Y-118863333D01*
X172436666Y-118830000D01*
X172370000Y-118763333D01*
X172336666Y-118696666D01*
X172336666Y-118563333D01*
X172370000Y-118496666D01*
X172436666Y-118430000D01*
X172570000Y-118396666D01*
X172803333Y-118396666D01*
X172936666Y-118430000D01*
X173003333Y-118496666D01*
X173036666Y-118563333D01*
X173036666Y-118696666D01*
X172086000Y-118090000D02*
X172086000Y-117756666D01*
X173036666Y-117923333D02*
X172336666Y-117923333D01*
X172086000Y-117756666D02*
X172086000Y-117023333D01*
X172336666Y-117456666D02*
X172336666Y-117323333D01*
X172370000Y-117256666D01*
X172436666Y-117190000D01*
X172570000Y-117156666D01*
X172803333Y-117156666D01*
X172936666Y-117190000D01*
X173003333Y-117256666D01*
X173036666Y-117323333D01*
X173036666Y-117456666D01*
X173003333Y-117523333D01*
X172936666Y-117590000D01*
X172803333Y-117623333D01*
X172570000Y-117623333D01*
X172436666Y-117590000D01*
X172370000Y-117523333D01*
X172336666Y-117456666D01*
X172086000Y-117023333D02*
X172086000Y-116323333D01*
X173036666Y-116456666D02*
X172703333Y-116690000D01*
X173036666Y-116856666D02*
X172336666Y-116856666D01*
X172336666Y-116590000D01*
X172370000Y-116523333D01*
X172403333Y-116490000D01*
X172470000Y-116456666D01*
X172570000Y-116456666D01*
X172636666Y-116490000D01*
X172670000Y-116523333D01*
X172703333Y-116590000D01*
X172703333Y-116856666D01*
X172086000Y-116323333D02*
X172086000Y-115590000D01*
X173103333Y-115690000D02*
X173070000Y-115756666D01*
X173003333Y-115823333D01*
X172903333Y-115923333D01*
X172870000Y-115990000D01*
X172870000Y-116056666D01*
X173036666Y-116023333D02*
X173003333Y-116090000D01*
X172936666Y-116156666D01*
X172803333Y-116190000D01*
X172570000Y-116190000D01*
X172436666Y-116156666D01*
X172370000Y-116090000D01*
X172336666Y-116023333D01*
X172336666Y-115890000D01*
X172370000Y-115823333D01*
X172436666Y-115756666D01*
X172570000Y-115723333D01*
X172803333Y-115723333D01*
X172936666Y-115756666D01*
X173003333Y-115823333D01*
X173036666Y-115890000D01*
X173036666Y-116023333D01*
X172970000Y-114716666D02*
X173003333Y-114750000D01*
X173036666Y-114850000D01*
X173036666Y-114916666D01*
X173003333Y-115016666D01*
X172936666Y-115083333D01*
X172870000Y-115116666D01*
X172736666Y-115150000D01*
X172636666Y-115150000D01*
X172503333Y-115116666D01*
X172436666Y-115083333D01*
X172370000Y-115016666D01*
X172336666Y-114916666D01*
X172336666Y-114850000D01*
X172370000Y-114750000D01*
X172403333Y-114716666D01*
X173036666Y-114083333D02*
X173036666Y-114416666D01*
X172336666Y-114416666D01*
X173036666Y-113850000D02*
X172336666Y-113850000D01*
X173036666Y-113450000D02*
X172636666Y-113750000D01*
X172336666Y-113450000D02*
X172736666Y-113850000D01*
X172086000Y-112710000D02*
X172086000Y-112010000D01*
X173036666Y-112143333D02*
X172703333Y-112376666D01*
X173036666Y-112543333D02*
X172336666Y-112543333D01*
X172336666Y-112276666D01*
X172370000Y-112210000D01*
X172403333Y-112176666D01*
X172470000Y-112143333D01*
X172570000Y-112143333D01*
X172636666Y-112176666D01*
X172670000Y-112210000D01*
X172703333Y-112276666D01*
X172703333Y-112543333D01*
X172086000Y-112010000D02*
X172086000Y-111343333D01*
X173003333Y-111876666D02*
X173036666Y-111776666D01*
X173036666Y-111610000D01*
X173003333Y-111543333D01*
X172970000Y-111510000D01*
X172903333Y-111476666D01*
X172836666Y-111476666D01*
X172770000Y-111510000D01*
X172736666Y-111543333D01*
X172703333Y-111610000D01*
X172670000Y-111743333D01*
X172636666Y-111810000D01*
X172603333Y-111843333D01*
X172536666Y-111876666D01*
X172470000Y-111876666D01*
X172403333Y-111843333D01*
X172370000Y-111810000D01*
X172336666Y-111743333D01*
X172336666Y-111576666D01*
X172370000Y-111476666D01*
X172086000Y-111343333D02*
X172086000Y-110810000D01*
X172336666Y-111276666D02*
X172336666Y-110876666D01*
X173036666Y-111076666D02*
X172336666Y-111076666D01*
X172370000Y-109753333D02*
X172336666Y-109820000D01*
X172336666Y-109920000D01*
X172370000Y-110020000D01*
X172436666Y-110086666D01*
X172503333Y-110120000D01*
X172636666Y-110153333D01*
X172736666Y-110153333D01*
X172870000Y-110120000D01*
X172936666Y-110086666D01*
X173003333Y-110020000D01*
X173036666Y-109920000D01*
X173036666Y-109853333D01*
X173003333Y-109753333D01*
X172970000Y-109720000D01*
X172736666Y-109720000D01*
X172736666Y-109853333D01*
X173036666Y-109420000D02*
X172336666Y-109420000D01*
X173036666Y-109020000D01*
X172336666Y-109020000D01*
X173036666Y-108686666D02*
X172336666Y-108686666D01*
X172336666Y-108520000D01*
X172370000Y-108420000D01*
X172436666Y-108353333D01*
X172503333Y-108320000D01*
X172636666Y-108286666D01*
X172736666Y-108286666D01*
X172870000Y-108320000D01*
X172936666Y-108353333D01*
X173003333Y-108420000D01*
X173036666Y-108520000D01*
X173036666Y-108686666D01*
X103573333Y-146936666D02*
X103806666Y-147636666D01*
X104040000Y-146936666D01*
X104240000Y-147603333D02*
X104340000Y-147636666D01*
X104506666Y-147636666D01*
X104573333Y-147603333D01*
X104606666Y-147570000D01*
X104640000Y-147503333D01*
X104640000Y-147436666D01*
X104606666Y-147370000D01*
X104573333Y-147336666D01*
X104506666Y-147303333D01*
X104373333Y-147270000D01*
X104306666Y-147236666D01*
X104273333Y-147203333D01*
X104240000Y-147136666D01*
X104240000Y-147070000D01*
X104273333Y-147003333D01*
X104306666Y-146970000D01*
X104373333Y-146936666D01*
X104540000Y-146936666D01*
X104640000Y-146970000D01*
X106146666Y-147636666D02*
X106146666Y-146936666D01*
X106146666Y-147270000D02*
X106546666Y-147270000D01*
X106546666Y-147636666D02*
X106546666Y-146936666D01*
X106846666Y-147603333D02*
X106946666Y-147636666D01*
X107113333Y-147636666D01*
X107180000Y-147603333D01*
X107213333Y-147570000D01*
X107246666Y-147503333D01*
X107246666Y-147436666D01*
X107213333Y-147370000D01*
X107180000Y-147336666D01*
X107113333Y-147303333D01*
X106980000Y-147270000D01*
X106913333Y-147236666D01*
X106880000Y-147203333D01*
X106846666Y-147136666D01*
X106846666Y-147070000D01*
X106880000Y-147003333D01*
X106913333Y-146970000D01*
X106980000Y-146936666D01*
X107146666Y-146936666D01*
X107246666Y-146970000D01*
X111810000Y-147270000D02*
X111910000Y-147303333D01*
X111943333Y-147336666D01*
X111976666Y-147403333D01*
X111976666Y-147503333D01*
X111943333Y-147570000D01*
X111910000Y-147603333D01*
X111843333Y-147636666D01*
X111576666Y-147636666D01*
X111576666Y-146936666D01*
X111810000Y-146936666D01*
X111876666Y-146970000D01*
X111910000Y-147003333D01*
X111943333Y-147070000D01*
X111943333Y-147136666D01*
X111910000Y-147203333D01*
X111876666Y-147236666D01*
X111810000Y-147270000D01*
X111576666Y-147270000D01*
X117023333Y-146970000D02*
X116956666Y-146936666D01*
X116856666Y-146936666D01*
X116756666Y-146970000D01*
X116690000Y-147036666D01*
X116656666Y-147103333D01*
X116623333Y-147236666D01*
X116623333Y-147336666D01*
X116656666Y-147470000D01*
X116690000Y-147536666D01*
X116756666Y-147603333D01*
X116856666Y-147636666D01*
X116923333Y-147636666D01*
X117023333Y-147603333D01*
X117056666Y-147570000D01*
X117056666Y-147336666D01*
X116923333Y-147336666D01*
X122136666Y-147636666D02*
X121903333Y-147303333D01*
X121736666Y-147636666D02*
X121736666Y-146936666D01*
X122003333Y-146936666D01*
X122070000Y-146970000D01*
X122103333Y-147003333D01*
X122136666Y-147070000D01*
X122136666Y-147170000D01*
X122103333Y-147236666D01*
X122070000Y-147270000D01*
X122003333Y-147303333D01*
X121736666Y-147303333D01*
X118846666Y-146970000D02*
X118780000Y-146936666D01*
X118680000Y-146936666D01*
X118580000Y-146970000D01*
X118513333Y-147036666D01*
X118480000Y-147103333D01*
X118446666Y-147236666D01*
X118446666Y-147336666D01*
X118480000Y-147470000D01*
X118513333Y-147536666D01*
X118580000Y-147603333D01*
X118680000Y-147636666D01*
X118746666Y-147636666D01*
X118846666Y-147603333D01*
X118880000Y-147570000D01*
X118880000Y-147336666D01*
X118746666Y-147336666D01*
X119180000Y-147636666D02*
X119180000Y-146936666D01*
X119580000Y-147636666D01*
X119580000Y-146936666D01*
X119913333Y-147636666D02*
X119913333Y-146936666D01*
X120080000Y-146936666D01*
X120180000Y-146970000D01*
X120246666Y-147036666D01*
X120280000Y-147103333D01*
X120313333Y-147236666D01*
X120313333Y-147336666D01*
X120280000Y-147470000D01*
X120246666Y-147536666D01*
X120180000Y-147603333D01*
X120080000Y-147636666D01*
X119913333Y-147636666D01*
X113766666Y-146970000D02*
X113700000Y-146936666D01*
X113600000Y-146936666D01*
X113500000Y-146970000D01*
X113433333Y-147036666D01*
X113400000Y-147103333D01*
X113366666Y-147236666D01*
X113366666Y-147336666D01*
X113400000Y-147470000D01*
X113433333Y-147536666D01*
X113500000Y-147603333D01*
X113600000Y-147636666D01*
X113666666Y-147636666D01*
X113766666Y-147603333D01*
X113800000Y-147570000D01*
X113800000Y-147336666D01*
X113666666Y-147336666D01*
X114100000Y-147636666D02*
X114100000Y-146936666D01*
X114500000Y-147636666D01*
X114500000Y-146936666D01*
X114833333Y-147636666D02*
X114833333Y-146936666D01*
X115000000Y-146936666D01*
X115100000Y-146970000D01*
X115166666Y-147036666D01*
X115200000Y-147103333D01*
X115233333Y-147236666D01*
X115233333Y-147336666D01*
X115200000Y-147470000D01*
X115166666Y-147536666D01*
X115100000Y-147603333D01*
X115000000Y-147636666D01*
X114833333Y-147636666D01*
X108686666Y-146970000D02*
X108620000Y-146936666D01*
X108520000Y-146936666D01*
X108420000Y-146970000D01*
X108353333Y-147036666D01*
X108320000Y-147103333D01*
X108286666Y-147236666D01*
X108286666Y-147336666D01*
X108320000Y-147470000D01*
X108353333Y-147536666D01*
X108420000Y-147603333D01*
X108520000Y-147636666D01*
X108586666Y-147636666D01*
X108686666Y-147603333D01*
X108720000Y-147570000D01*
X108720000Y-147336666D01*
X108586666Y-147336666D01*
X109020000Y-147636666D02*
X109020000Y-146936666D01*
X109420000Y-147636666D01*
X109420000Y-146936666D01*
X109753333Y-147636666D02*
X109753333Y-146936666D01*
X109920000Y-146936666D01*
X110020000Y-146970000D01*
X110086666Y-147036666D01*
X110120000Y-147103333D01*
X110153333Y-147236666D01*
X110153333Y-147336666D01*
X110120000Y-147470000D01*
X110086666Y-147536666D01*
X110020000Y-147603333D01*
X109920000Y-147636666D01*
X109753333Y-147636666D01*
X90390000Y-147636666D02*
X90390000Y-146936666D01*
X90556666Y-146936666D01*
X90656666Y-146970000D01*
X90723333Y-147036666D01*
X90756666Y-147103333D01*
X90790000Y-147236666D01*
X90790000Y-147336666D01*
X90756666Y-147470000D01*
X90723333Y-147536666D01*
X90656666Y-147603333D01*
X90556666Y-147636666D01*
X90390000Y-147636666D01*
X91056666Y-147436666D02*
X91390000Y-147436666D01*
X90990000Y-147636666D02*
X91223333Y-146936666D01*
X91456666Y-147636666D01*
X91590000Y-146936666D02*
X91990000Y-146936666D01*
X91790000Y-147636666D02*
X91790000Y-146936666D01*
X92190000Y-147436666D02*
X92523333Y-147436666D01*
X92123333Y-147636666D02*
X92356666Y-146936666D01*
X92590000Y-147636666D01*
X95620000Y-147370000D02*
X96153333Y-147370000D01*
X95886666Y-147636666D02*
X95886666Y-147103333D01*
X96820000Y-146936666D02*
X96486666Y-146936666D01*
X96453333Y-147270000D01*
X96486666Y-147236666D01*
X96553333Y-147203333D01*
X96720000Y-147203333D01*
X96786666Y-147236666D01*
X96820000Y-147270000D01*
X96853333Y-147336666D01*
X96853333Y-147503333D01*
X96820000Y-147570000D01*
X96786666Y-147603333D01*
X96720000Y-147636666D01*
X96553333Y-147636666D01*
X96486666Y-147603333D01*
X96453333Y-147570000D01*
X97053333Y-146936666D02*
X97286666Y-147636666D01*
X97520000Y-146936666D01*
X88483333Y-139950000D02*
X88450000Y-139983333D01*
X88350000Y-140016666D01*
X88283333Y-140016666D01*
X88183333Y-139983333D01*
X88116666Y-139916666D01*
X88083333Y-139850000D01*
X88050000Y-139716666D01*
X88050000Y-139616666D01*
X88083333Y-139483333D01*
X88116666Y-139416666D01*
X88183333Y-139350000D01*
X88283333Y-139316666D01*
X88350000Y-139316666D01*
X88450000Y-139350000D01*
X88483333Y-139383333D01*
X89116666Y-140016666D02*
X88783333Y-140016666D01*
X88783333Y-139316666D01*
X89350000Y-140016666D02*
X89350000Y-139316666D01*
X89750000Y-140016666D02*
X89450000Y-139616666D01*
X89750000Y-139316666D02*
X89350000Y-139716666D01*
X88366666Y-146970000D02*
X88300000Y-146936666D01*
X88200000Y-146936666D01*
X88100000Y-146970000D01*
X88033333Y-147036666D01*
X88000000Y-147103333D01*
X87966666Y-147236666D01*
X87966666Y-147336666D01*
X88000000Y-147470000D01*
X88033333Y-147536666D01*
X88100000Y-147603333D01*
X88200000Y-147636666D01*
X88266666Y-147636666D01*
X88366666Y-147603333D01*
X88400000Y-147570000D01*
X88400000Y-147336666D01*
X88266666Y-147336666D01*
X88700000Y-147636666D02*
X88700000Y-146936666D01*
X89100000Y-147636666D01*
X89100000Y-146936666D01*
X89433333Y-147636666D02*
X89433333Y-146936666D01*
X89600000Y-146936666D01*
X89700000Y-146970000D01*
X89766666Y-147036666D01*
X89800000Y-147103333D01*
X89833333Y-147236666D01*
X89833333Y-147336666D01*
X89800000Y-147470000D01*
X89766666Y-147536666D01*
X89700000Y-147603333D01*
X89600000Y-147636666D01*
X89433333Y-147636666D01*
X106296666Y-133013333D02*
X106996666Y-132780000D01*
X106296666Y-132546666D01*
X106930000Y-131913333D02*
X106963333Y-131946666D01*
X106996666Y-132046666D01*
X106996666Y-132113333D01*
X106963333Y-132213333D01*
X106896666Y-132280000D01*
X106830000Y-132313333D01*
X106696666Y-132346666D01*
X106596666Y-132346666D01*
X106463333Y-132313333D01*
X106396666Y-132280000D01*
X106330000Y-132213333D01*
X106296666Y-132113333D01*
X106296666Y-132046666D01*
X106330000Y-131946666D01*
X106363333Y-131913333D01*
X106930000Y-131213333D02*
X106963333Y-131246666D01*
X106996666Y-131346666D01*
X106996666Y-131413333D01*
X106963333Y-131513333D01*
X106896666Y-131580000D01*
X106830000Y-131613333D01*
X106696666Y-131646666D01*
X106596666Y-131646666D01*
X106463333Y-131613333D01*
X106396666Y-131580000D01*
X106330000Y-131513333D01*
X106296666Y-131413333D01*
X106296666Y-131346666D01*
X106330000Y-131246666D01*
X106363333Y-131213333D01*
X106996666Y-135720000D02*
X106296666Y-135720000D01*
X106796666Y-135486666D01*
X106296666Y-135253333D01*
X106996666Y-135253333D01*
X106296666Y-134786666D02*
X106296666Y-134653333D01*
X106330000Y-134586666D01*
X106396666Y-134520000D01*
X106530000Y-134486666D01*
X106763333Y-134486666D01*
X106896666Y-134520000D01*
X106963333Y-134586666D01*
X106996666Y-134653333D01*
X106996666Y-134786666D01*
X106963333Y-134853333D01*
X106896666Y-134920000D01*
X106763333Y-134953333D01*
X106530000Y-134953333D01*
X106396666Y-134920000D01*
X106330000Y-134853333D01*
X106296666Y-134786666D01*
X106963333Y-134220000D02*
X106996666Y-134120000D01*
X106996666Y-133953333D01*
X106963333Y-133886666D01*
X106930000Y-133853333D01*
X106863333Y-133820000D01*
X106796666Y-133820000D01*
X106730000Y-133853333D01*
X106696666Y-133886666D01*
X106663333Y-133953333D01*
X106630000Y-134086666D01*
X106596666Y-134153333D01*
X106563333Y-134186666D01*
X106496666Y-134220000D01*
X106430000Y-134220000D01*
X106363333Y-134186666D01*
X106330000Y-134153333D01*
X106296666Y-134086666D01*
X106296666Y-133920000D01*
X106330000Y-133820000D01*
X106996666Y-133520000D02*
X106296666Y-133520000D01*
X106330000Y-137693333D02*
X106296666Y-137760000D01*
X106296666Y-137860000D01*
X106330000Y-137960000D01*
X106396666Y-138026666D01*
X106463333Y-138060000D01*
X106596666Y-138093333D01*
X106696666Y-138093333D01*
X106830000Y-138060000D01*
X106896666Y-138026666D01*
X106963333Y-137960000D01*
X106996666Y-137860000D01*
X106996666Y-137793333D01*
X106963333Y-137693333D01*
X106930000Y-137660000D01*
X106696666Y-137660000D01*
X106696666Y-137793333D01*
X106996666Y-137360000D02*
X106296666Y-137360000D01*
X106996666Y-136960000D01*
X106296666Y-136960000D01*
X106996666Y-136626666D02*
X106296666Y-136626666D01*
X106296666Y-136460000D01*
X106330000Y-136360000D01*
X106396666Y-136293333D01*
X106463333Y-136260000D01*
X106596666Y-136226666D01*
X106696666Y-136226666D01*
X106830000Y-136260000D01*
X106896666Y-136293333D01*
X106963333Y-136360000D01*
X106996666Y-136460000D01*
X106996666Y-136626666D01*
X99376666Y-137543333D02*
X99043333Y-137776666D01*
X99376666Y-137943333D02*
X98676666Y-137943333D01*
X98676666Y-137676666D01*
X98710000Y-137610000D01*
X98743333Y-137576666D01*
X98810000Y-137543333D01*
X98910000Y-137543333D01*
X98976666Y-137576666D01*
X99010000Y-137610000D01*
X99043333Y-137676666D01*
X99043333Y-137943333D01*
X99343333Y-137276666D02*
X99376666Y-137176666D01*
X99376666Y-137010000D01*
X99343333Y-136943333D01*
X99310000Y-136910000D01*
X99243333Y-136876666D01*
X99176666Y-136876666D01*
X99110000Y-136910000D01*
X99076666Y-136943333D01*
X99043333Y-137010000D01*
X99010000Y-137143333D01*
X98976666Y-137210000D01*
X98943333Y-137243333D01*
X98876666Y-137276666D01*
X98810000Y-137276666D01*
X98743333Y-137243333D01*
X98710000Y-137210000D01*
X98676666Y-137143333D01*
X98676666Y-136976666D01*
X98710000Y-136876666D01*
X98676666Y-136676666D02*
X98676666Y-136276666D01*
X99376666Y-136476666D02*
X98676666Y-136476666D01*
X99343333Y-135803333D02*
X99376666Y-135703333D01*
X99376666Y-135536666D01*
X99343333Y-135470000D01*
X99310000Y-135436666D01*
X99243333Y-135403333D01*
X99176666Y-135403333D01*
X99110000Y-135436666D01*
X99076666Y-135470000D01*
X99043333Y-135536666D01*
X99010000Y-135670000D01*
X98976666Y-135736666D01*
X98943333Y-135770000D01*
X98876666Y-135803333D01*
X98810000Y-135803333D01*
X98743333Y-135770000D01*
X98710000Y-135736666D01*
X98676666Y-135670000D01*
X98676666Y-135503333D01*
X98710000Y-135403333D01*
X99310000Y-134703333D02*
X99343333Y-134736666D01*
X99376666Y-134836666D01*
X99376666Y-134903333D01*
X99343333Y-135003333D01*
X99276666Y-135070000D01*
X99210000Y-135103333D01*
X99076666Y-135136666D01*
X98976666Y-135136666D01*
X98843333Y-135103333D01*
X98776666Y-135070000D01*
X98710000Y-135003333D01*
X98676666Y-134903333D01*
X98676666Y-134836666D01*
X98710000Y-134736666D01*
X98743333Y-134703333D01*
X99376666Y-134070000D02*
X99376666Y-134403333D01*
X98676666Y-134403333D01*
X99376666Y-133836666D02*
X98676666Y-133836666D01*
X99376666Y-133436666D02*
X98976666Y-133736666D01*
X98676666Y-133436666D02*
X99076666Y-133836666D01*
X99376666Y-133180000D02*
X98676666Y-133180000D01*
X99176666Y-132946666D01*
X98676666Y-132713333D01*
X99376666Y-132713333D01*
X99376666Y-132380000D02*
X98676666Y-132380000D01*
X99343333Y-132080000D02*
X99376666Y-131980000D01*
X99376666Y-131813333D01*
X99343333Y-131746666D01*
X99310000Y-131713333D01*
X99243333Y-131680000D01*
X99176666Y-131680000D01*
X99110000Y-131713333D01*
X99076666Y-131746666D01*
X99043333Y-131813333D01*
X99010000Y-131946666D01*
X98976666Y-132013333D01*
X98943333Y-132046666D01*
X98876666Y-132080000D01*
X98810000Y-132080000D01*
X98743333Y-132046666D01*
X98710000Y-132013333D01*
X98676666Y-131946666D01*
X98676666Y-131780000D01*
X98710000Y-131680000D01*
X98676666Y-131246666D02*
X98676666Y-131113333D01*
X98710000Y-131046666D01*
X98776666Y-130980000D01*
X98910000Y-130946666D01*
X99143333Y-130946666D01*
X99276666Y-130980000D01*
X99343333Y-131046666D01*
X99376666Y-131113333D01*
X99376666Y-131246666D01*
X99343333Y-131313333D01*
X99276666Y-131380000D01*
X99143333Y-131413333D01*
X98910000Y-131413333D01*
X98776666Y-131380000D01*
X98710000Y-131313333D01*
X98676666Y-131246666D01*
X79056666Y-107146666D02*
X78723333Y-107380000D01*
X79056666Y-107546666D02*
X78356666Y-107546666D01*
X78356666Y-107280000D01*
X78390000Y-107213333D01*
X78423333Y-107180000D01*
X78490000Y-107146666D01*
X78590000Y-107146666D01*
X78656666Y-107180000D01*
X78690000Y-107213333D01*
X78723333Y-107280000D01*
X78723333Y-107546666D01*
X78356666Y-106913333D02*
X79056666Y-106446666D01*
X78356666Y-106446666D02*
X79056666Y-106913333D01*
X79056666Y-106180000D02*
X78356666Y-106180000D01*
X78356666Y-106013333D01*
X78390000Y-105913333D01*
X78456666Y-105846666D01*
X78523333Y-105813333D01*
X78656666Y-105780000D01*
X78756666Y-105780000D01*
X78890000Y-105813333D01*
X78956666Y-105846666D01*
X79023333Y-105913333D01*
X79056666Y-106013333D01*
X79056666Y-106180000D01*
X78356666Y-110103333D02*
X78356666Y-109703333D01*
X79056666Y-109903333D02*
X78356666Y-109903333D01*
X78356666Y-109536666D02*
X79056666Y-109070000D01*
X78356666Y-109070000D02*
X79056666Y-109536666D01*
X79056666Y-108803333D02*
X78356666Y-108803333D01*
X78356666Y-108636666D01*
X78390000Y-108536666D01*
X78456666Y-108470000D01*
X78523333Y-108436666D01*
X78656666Y-108403333D01*
X78756666Y-108403333D01*
X78890000Y-108436666D01*
X78956666Y-108470000D01*
X79023333Y-108536666D01*
X79056666Y-108636666D01*
X79056666Y-108803333D01*
X78790000Y-112660000D02*
X78790000Y-112126666D01*
X79056666Y-112393333D02*
X78523333Y-112393333D01*
X78356666Y-111460000D02*
X78356666Y-111793333D01*
X78690000Y-111826666D01*
X78656666Y-111793333D01*
X78623333Y-111726666D01*
X78623333Y-111560000D01*
X78656666Y-111493333D01*
X78690000Y-111460000D01*
X78756666Y-111426666D01*
X78923333Y-111426666D01*
X78990000Y-111460000D01*
X79023333Y-111493333D01*
X79056666Y-111560000D01*
X79056666Y-111726666D01*
X79023333Y-111793333D01*
X78990000Y-111826666D01*
X78356666Y-111226666D02*
X79056666Y-110993333D01*
X78356666Y-110760000D01*
X78390000Y-104673333D02*
X78356666Y-104740000D01*
X78356666Y-104840000D01*
X78390000Y-104940000D01*
X78456666Y-105006666D01*
X78523333Y-105040000D01*
X78656666Y-105073333D01*
X78756666Y-105073333D01*
X78890000Y-105040000D01*
X78956666Y-105006666D01*
X79023333Y-104940000D01*
X79056666Y-104840000D01*
X79056666Y-104773333D01*
X79023333Y-104673333D01*
X78990000Y-104640000D01*
X78756666Y-104640000D01*
X78756666Y-104773333D01*
X79056666Y-104340000D02*
X78356666Y-104340000D01*
X79056666Y-103940000D01*
X78356666Y-103940000D01*
X79056666Y-103606666D02*
X78356666Y-103606666D01*
X78356666Y-103440000D01*
X78390000Y-103340000D01*
X78456666Y-103273333D01*
X78523333Y-103240000D01*
X78656666Y-103206666D01*
X78756666Y-103206666D01*
X78890000Y-103240000D01*
X78956666Y-103273333D01*
X79023333Y-103340000D01*
X79056666Y-103440000D01*
X79056666Y-103606666D01*
D12*
G04 #@! TO.C,U7*
X106410000Y-102810000D02*
G75*
G02X104410000Y-102810000I-1000000J0D01*
G01*
X104410000Y-102810000D02*
X102760000Y-102810000D01*
X102760000Y-102810000D02*
X102760000Y-128330000D01*
X102760000Y-128330000D02*
X108060000Y-128330000D01*
X108060000Y-128330000D02*
X108060000Y-102810000D01*
X108060000Y-102810000D02*
X106410000Y-102810000D01*
X100270000Y-102750000D02*
X100270000Y-128390000D01*
X100270000Y-128390000D02*
X110550000Y-128390000D01*
X110550000Y-128390000D02*
X110550000Y-102750000D01*
X110550000Y-102750000D02*
X100270000Y-102750000D01*
G04 #@! TO.C,U6*
X145780000Y-77410000D02*
G75*
G02X143780000Y-77410000I-1000000J0D01*
G01*
X143780000Y-77410000D02*
X138320000Y-77410000D01*
X138320000Y-77410000D02*
X138320000Y-128330000D01*
X138320000Y-128330000D02*
X151240000Y-128330000D01*
X151240000Y-128330000D02*
X151240000Y-77410000D01*
X151240000Y-77410000D02*
X145780000Y-77410000D01*
X135830000Y-77350000D02*
X135830000Y-128390000D01*
X135830000Y-128390000D02*
X153730000Y-128390000D01*
X153730000Y-128390000D02*
X153730000Y-77350000D01*
X153730000Y-77350000D02*
X135830000Y-77350000D01*
G04 #@! TO.C,U12*
X123250000Y-107830000D02*
X112970000Y-107830000D01*
X123250000Y-128390000D02*
X123250000Y-107830000D01*
X112970000Y-128390000D02*
X123250000Y-128390000D01*
X112970000Y-107830000D02*
X112970000Y-128390000D01*
X120760000Y-107890000D02*
X119110000Y-107890000D01*
X120760000Y-128330000D02*
X120760000Y-107890000D01*
X115460000Y-128330000D02*
X120760000Y-128330000D01*
X115460000Y-107890000D02*
X115460000Y-128330000D01*
X117110000Y-107890000D02*
X115460000Y-107890000D01*
X119110000Y-107890000D02*
G75*
G02X117110000Y-107890000I-1000000J0D01*
G01*
G04 #@! TO.C,U4*
X131810000Y-54550000D02*
G75*
G02X129810000Y-54550000I-1000000J0D01*
G01*
X129810000Y-54550000D02*
X128160000Y-54550000D01*
X128160000Y-54550000D02*
X128160000Y-72450000D01*
X128160000Y-72450000D02*
X133460000Y-72450000D01*
X133460000Y-72450000D02*
X133460000Y-54550000D01*
X133460000Y-54550000D02*
X131810000Y-54550000D01*
X125670000Y-54490000D02*
X125670000Y-72510000D01*
X125670000Y-72510000D02*
X135950000Y-72510000D01*
X135950000Y-72510000D02*
X135950000Y-54490000D01*
X135950000Y-54490000D02*
X125670000Y-54490000D01*
G04 #@! TO.C,U10*
X162290000Y-77410000D02*
G75*
G02X160290000Y-77410000I-1000000J0D01*
G01*
X160290000Y-77410000D02*
X158640000Y-77410000D01*
X158640000Y-77410000D02*
X158640000Y-113090000D01*
X158640000Y-113090000D02*
X163940000Y-113090000D01*
X163940000Y-113090000D02*
X163940000Y-77410000D01*
X163940000Y-77410000D02*
X162290000Y-77410000D01*
X156150000Y-77350000D02*
X156150000Y-113150000D01*
X156150000Y-113150000D02*
X166430000Y-113150000D01*
X166430000Y-113150000D02*
X166430000Y-77350000D01*
X166430000Y-77350000D02*
X156150000Y-77350000D01*
G04 #@! TO.C,U2*
X93710000Y-77410000D02*
G75*
G02X91710000Y-77410000I-1000000J0D01*
G01*
X91710000Y-77410000D02*
X90060000Y-77410000D01*
X90060000Y-77410000D02*
X90060000Y-97850000D01*
X90060000Y-97850000D02*
X95360000Y-97850000D01*
X95360000Y-97850000D02*
X95360000Y-77410000D01*
X95360000Y-77410000D02*
X93710000Y-77410000D01*
X87570000Y-77350000D02*
X87570000Y-97910000D01*
X87570000Y-97910000D02*
X97850000Y-97910000D01*
X97850000Y-97910000D02*
X97850000Y-77350000D01*
X97850000Y-77350000D02*
X87570000Y-77350000D01*
G04 #@! TO.C,C1*
X160350000Y-54460000D02*
X157110000Y-54460000D01*
X160350000Y-52220000D02*
X157110000Y-52220000D01*
X160350000Y-54460000D02*
X160350000Y-54395000D01*
X160350000Y-52285000D02*
X160350000Y-52220000D01*
X157110000Y-54460000D02*
X157110000Y-54395000D01*
X157110000Y-52285000D02*
X157110000Y-52220000D01*
G04 #@! TO.C,C2*
X116510000Y-105625000D02*
X116510000Y-105560000D01*
X116510000Y-107800000D02*
X116510000Y-107735000D01*
X119750000Y-105625000D02*
X119750000Y-105560000D01*
X119750000Y-107800000D02*
X119750000Y-107735000D01*
X119750000Y-105560000D02*
X116510000Y-105560000D01*
X119750000Y-107800000D02*
X116510000Y-107800000D01*
G04 #@! TO.C,C3*
X131710000Y-128485000D02*
X131710000Y-128420000D01*
X131710000Y-130660000D02*
X131710000Y-130595000D01*
X134950000Y-128485000D02*
X134950000Y-128420000D01*
X134950000Y-130660000D02*
X134950000Y-130595000D01*
X134950000Y-128420000D02*
X131710000Y-128420000D01*
X134950000Y-130660000D02*
X131710000Y-130660000D01*
G04 #@! TO.C,C4*
X103810000Y-100545000D02*
X103810000Y-100480000D01*
X103810000Y-102720000D02*
X103810000Y-102655000D01*
X107050000Y-100545000D02*
X107050000Y-100480000D01*
X107050000Y-102720000D02*
X107050000Y-102655000D01*
X107050000Y-100480000D02*
X103810000Y-100480000D01*
X107050000Y-102720000D02*
X103810000Y-102720000D01*
G04 #@! TO.C,C5*
X103810000Y-52285000D02*
X103810000Y-52220000D01*
X103810000Y-54460000D02*
X103810000Y-54395000D01*
X107050000Y-52285000D02*
X107050000Y-52220000D01*
X107050000Y-54460000D02*
X107050000Y-54395000D01*
X107050000Y-52220000D02*
X103810000Y-52220000D01*
X107050000Y-54460000D02*
X103810000Y-54460000D01*
G04 #@! TO.C,C6*
X91070000Y-75145000D02*
X91070000Y-75080000D01*
X91070000Y-77320000D02*
X91070000Y-77255000D01*
X94310000Y-75145000D02*
X94310000Y-75080000D01*
X94310000Y-77320000D02*
X94310000Y-77255000D01*
X94310000Y-75080000D02*
X91070000Y-75080000D01*
X94310000Y-77320000D02*
X91070000Y-77320000D01*
G04 #@! TO.C,C7*
X146950000Y-128485000D02*
X146950000Y-128420000D01*
X146950000Y-130660000D02*
X146950000Y-130595000D01*
X150190000Y-128485000D02*
X150190000Y-128420000D01*
X150190000Y-130660000D02*
X150190000Y-130595000D01*
X150190000Y-128420000D02*
X146950000Y-128420000D01*
X150190000Y-130660000D02*
X146950000Y-130660000D01*
G04 #@! TO.C,C8*
X97940000Y-122290000D02*
X97940000Y-119050000D01*
X100180000Y-122290000D02*
X100180000Y-119050000D01*
X97940000Y-122290000D02*
X98005000Y-122290000D01*
X100115000Y-122290000D02*
X100180000Y-122290000D01*
X97940000Y-119050000D02*
X98005000Y-119050000D01*
X100115000Y-119050000D02*
X100180000Y-119050000D01*
G04 #@! TO.C,C9*
X132450000Y-54460000D02*
X129210000Y-54460000D01*
X132450000Y-52220000D02*
X129210000Y-52220000D01*
X132450000Y-54460000D02*
X132450000Y-54395000D01*
X132450000Y-52285000D02*
X132450000Y-52220000D01*
X129210000Y-54460000D02*
X129210000Y-54395000D01*
X129210000Y-52285000D02*
X129210000Y-52220000D01*
G04 #@! TO.C,C10*
X162930000Y-77320000D02*
X159690000Y-77320000D01*
X162930000Y-75080000D02*
X159690000Y-75080000D01*
X162930000Y-77320000D02*
X162930000Y-77255000D01*
X162930000Y-75145000D02*
X162930000Y-75080000D01*
X159690000Y-77320000D02*
X159690000Y-77255000D01*
X159690000Y-75145000D02*
X159690000Y-75080000D01*
G04 #@! TO.C,C11*
X119750000Y-84940000D02*
X116510000Y-84940000D01*
X119750000Y-82700000D02*
X116510000Y-82700000D01*
X119750000Y-84940000D02*
X119750000Y-84875000D01*
X119750000Y-82765000D02*
X119750000Y-82700000D01*
X116510000Y-84940000D02*
X116510000Y-84875000D01*
X116510000Y-82765000D02*
X116510000Y-82700000D01*
G04 #@! TO.C,C12*
X87480000Y-119010000D02*
X87480000Y-122250000D01*
X85240000Y-119010000D02*
X85240000Y-122250000D01*
X87480000Y-119010000D02*
X87415000Y-119010000D01*
X85305000Y-119010000D02*
X85240000Y-119010000D01*
X87480000Y-122250000D02*
X87415000Y-122250000D01*
X85305000Y-122250000D02*
X85240000Y-122250000D01*
G04 #@! TO.C,D1*
X103290000Y-92860000D02*
X103290000Y-95100000D01*
X103290000Y-95100000D02*
X107530000Y-95100000D01*
X107530000Y-95100000D02*
X107530000Y-92860000D01*
X107530000Y-92860000D02*
X103290000Y-92860000D01*
X102640000Y-93980000D02*
X103290000Y-93980000D01*
X108180000Y-93980000D02*
X107530000Y-93980000D01*
X104010000Y-92860000D02*
X104010000Y-95100000D01*
X104130000Y-92860000D02*
X104130000Y-95100000D01*
X103890000Y-92860000D02*
X103890000Y-95100000D01*
G04 #@! TO.C,D2*
X87480000Y-129290000D02*
X85240000Y-129290000D01*
X87480000Y-129530000D02*
X85240000Y-129530000D01*
X87480000Y-129410000D02*
X85240000Y-129410000D01*
X86360000Y-133580000D02*
X86360000Y-132930000D01*
X86360000Y-128040000D02*
X86360000Y-128690000D01*
X87480000Y-132930000D02*
X87480000Y-128690000D01*
X85240000Y-132930000D02*
X87480000Y-132930000D01*
X85240000Y-128690000D02*
X85240000Y-132930000D01*
X87480000Y-128690000D02*
X85240000Y-128690000D01*
G04 #@! TO.C,J2*
X171510000Y-128330000D02*
X170180000Y-128330000D01*
X171510000Y-127000000D02*
X171510000Y-128330000D01*
X171510000Y-125730000D02*
X168850000Y-125730000D01*
X168850000Y-125730000D02*
X168850000Y-107890000D01*
X171510000Y-125730000D02*
X171510000Y-107890000D01*
X171510000Y-107890000D02*
X168850000Y-107890000D01*
G04 #@! TO.C,J3*
X100270000Y-138490000D02*
X105470000Y-138490000D01*
X100270000Y-133350000D02*
X100270000Y-138490000D01*
X105470000Y-130750000D02*
X105470000Y-138490000D01*
X100270000Y-133350000D02*
X102870000Y-133350000D01*
X102870000Y-133350000D02*
X102870000Y-130750000D01*
X102870000Y-130750000D02*
X105470000Y-130750000D01*
X100270000Y-132080000D02*
X100270000Y-130750000D01*
X100270000Y-130750000D02*
X101600000Y-130750000D01*
G04 #@! TO.C,J4*
X82610000Y-102810000D02*
X79950000Y-102810000D01*
X82610000Y-110490000D02*
X82610000Y-102810000D01*
X79950000Y-110490000D02*
X79950000Y-102810000D01*
X82610000Y-110490000D02*
X79950000Y-110490000D01*
X82610000Y-111760000D02*
X82610000Y-113090000D01*
X82610000Y-113090000D02*
X81280000Y-113090000D01*
G04 #@! TO.C,J7*
X128330000Y-107890000D02*
X125670000Y-107890000D01*
X128330000Y-125730000D02*
X128330000Y-107890000D01*
X125670000Y-125730000D02*
X125670000Y-107890000D01*
X128330000Y-125730000D02*
X125670000Y-125730000D01*
X128330000Y-127000000D02*
X128330000Y-128330000D01*
X128330000Y-128330000D02*
X127000000Y-128330000D01*
G04 #@! TO.C,RN1*
X133480000Y-105240000D02*
X130680000Y-105240000D01*
X130680000Y-105240000D02*
X130680000Y-128440000D01*
X130680000Y-128440000D02*
X133480000Y-128440000D01*
X133480000Y-128440000D02*
X133480000Y-105240000D01*
X133480000Y-107950000D02*
X130680000Y-107950000D01*
G04 #@! TO.C,U3*
X138490000Y-130690000D02*
X128210000Y-130690000D01*
X138490000Y-148710000D02*
X138490000Y-130690000D01*
X128210000Y-148710000D02*
X138490000Y-148710000D01*
X128210000Y-130690000D02*
X128210000Y-148710000D01*
X136000000Y-130750000D02*
X134350000Y-130750000D01*
X136000000Y-148650000D02*
X136000000Y-130750000D01*
X130700000Y-148650000D02*
X136000000Y-148650000D01*
X130700000Y-130750000D02*
X130700000Y-148650000D01*
X132350000Y-130750000D02*
X130700000Y-130750000D01*
X134350000Y-130750000D02*
G75*
G02X132350000Y-130750000I-1000000J0D01*
G01*
G04 #@! TO.C,U5*
X106410000Y-54550000D02*
G75*
G02X104410000Y-54550000I-1000000J0D01*
G01*
X104410000Y-54550000D02*
X102760000Y-54550000D01*
X102760000Y-54550000D02*
X102760000Y-74990000D01*
X102760000Y-74990000D02*
X108060000Y-74990000D01*
X108060000Y-74990000D02*
X108060000Y-54550000D01*
X108060000Y-54550000D02*
X106410000Y-54550000D01*
X100270000Y-54490000D02*
X100270000Y-75050000D01*
X100270000Y-75050000D02*
X110550000Y-75050000D01*
X110550000Y-75050000D02*
X110550000Y-54490000D01*
X110550000Y-54490000D02*
X100270000Y-54490000D01*
G04 #@! TO.C,U8*
X163890000Y-54490000D02*
X153610000Y-54490000D01*
X163890000Y-72510000D02*
X163890000Y-54490000D01*
X153610000Y-72510000D02*
X163890000Y-72510000D01*
X153610000Y-54490000D02*
X153610000Y-72510000D01*
X161400000Y-54550000D02*
X159750000Y-54550000D01*
X161400000Y-72450000D02*
X161400000Y-54550000D01*
X156100000Y-72450000D02*
X161400000Y-72450000D01*
X156100000Y-54550000D02*
X156100000Y-72450000D01*
X157750000Y-54550000D02*
X156100000Y-54550000D01*
X159750000Y-54550000D02*
G75*
G02X157750000Y-54550000I-1000000J0D01*
G01*
G04 #@! TO.C,U9*
X149590000Y-130750000D02*
G75*
G02X147590000Y-130750000I-1000000J0D01*
G01*
X147590000Y-130750000D02*
X145940000Y-130750000D01*
X145940000Y-130750000D02*
X145940000Y-148650000D01*
X145940000Y-148650000D02*
X151240000Y-148650000D01*
X151240000Y-148650000D02*
X151240000Y-130750000D01*
X151240000Y-130750000D02*
X149590000Y-130750000D01*
X143450000Y-130690000D02*
X143450000Y-148710000D01*
X143450000Y-148710000D02*
X153730000Y-148710000D01*
X153730000Y-148710000D02*
X153730000Y-130690000D01*
X153730000Y-130690000D02*
X143450000Y-130690000D01*
G04 #@! TO.C,U11*
X119110000Y-85030000D02*
G75*
G02X117110000Y-85030000I-1000000J0D01*
G01*
X117110000Y-85030000D02*
X115460000Y-85030000D01*
X115460000Y-85030000D02*
X115460000Y-102930000D01*
X115460000Y-102930000D02*
X120760000Y-102930000D01*
X120760000Y-102930000D02*
X120760000Y-85030000D01*
X120760000Y-85030000D02*
X119110000Y-85030000D01*
X112970000Y-84970000D02*
X112970000Y-102990000D01*
X112970000Y-102990000D02*
X123250000Y-102990000D01*
X123250000Y-102990000D02*
X123250000Y-84970000D01*
X123250000Y-84970000D02*
X112970000Y-84970000D01*
G04 #@! TO.C,X1*
X111110000Y-76100000D02*
X98960000Y-76100000D01*
X111860000Y-88250000D02*
X111860000Y-76850000D01*
X99710000Y-89000000D02*
X111110000Y-89000000D01*
X98960000Y-76100000D02*
X98960000Y-88250000D01*
X98960000Y-88250000D02*
G75*
G03X99710000Y-89000000I750000J0D01*
G01*
X111110000Y-89000000D02*
G75*
G03X111860000Y-88250000I0J750000D01*
G01*
X111860000Y-76850000D02*
G75*
G03X111110000Y-76100000I-750000J0D01*
G01*
G04 #@! TO.C,J1*
X97850000Y-146110000D02*
X97850000Y-140910000D01*
X90170000Y-146110000D02*
X97850000Y-146110000D01*
X87570000Y-140910000D02*
X97850000Y-140910000D01*
X90170000Y-146110000D02*
X90170000Y-143510000D01*
X90170000Y-143510000D02*
X87570000Y-143510000D01*
X87570000Y-143510000D02*
X87570000Y-140910000D01*
X88900000Y-146110000D02*
X87570000Y-146110000D01*
X87570000Y-146110000D02*
X87570000Y-144780000D01*
G04 #@! TO.C,R1*
X108680000Y-92480000D02*
X108680000Y-92810000D01*
X108680000Y-92810000D02*
X102140000Y-92810000D01*
X102140000Y-92810000D02*
X102140000Y-92480000D01*
X108680000Y-90400000D02*
X108680000Y-90070000D01*
X108680000Y-90070000D02*
X102140000Y-90070000D01*
X102140000Y-90070000D02*
X102140000Y-90400000D01*
G04 #@! TO.C,R2*
X87400000Y-97060000D02*
X87730000Y-97060000D01*
X87730000Y-97060000D02*
X87730000Y-103600000D01*
X87730000Y-103600000D02*
X87400000Y-103600000D01*
X85320000Y-97060000D02*
X84990000Y-97060000D01*
X84990000Y-97060000D02*
X84990000Y-103600000D01*
X84990000Y-103600000D02*
X85320000Y-103600000D01*
G04 #@! TO.C,R3*
X102140000Y-95480000D02*
X102140000Y-95150000D01*
X102140000Y-95150000D02*
X108680000Y-95150000D01*
X108680000Y-95150000D02*
X108680000Y-95480000D01*
X102140000Y-97560000D02*
X102140000Y-97890000D01*
X102140000Y-97890000D02*
X108680000Y-97890000D01*
X108680000Y-97890000D02*
X108680000Y-97560000D01*
G04 #@! TO.C,R4*
X123290000Y-132620000D02*
X122960000Y-132620000D01*
X123290000Y-139160000D02*
X123290000Y-132620000D01*
X122960000Y-139160000D02*
X123290000Y-139160000D01*
X120550000Y-132620000D02*
X120880000Y-132620000D01*
X120550000Y-139160000D02*
X120550000Y-132620000D01*
X120880000Y-139160000D02*
X120550000Y-139160000D01*
G04 #@! TO.C,R5*
X118210000Y-132620000D02*
X117880000Y-132620000D01*
X118210000Y-139160000D02*
X118210000Y-132620000D01*
X117880000Y-139160000D02*
X118210000Y-139160000D01*
X115470000Y-132620000D02*
X115800000Y-132620000D01*
X115470000Y-139160000D02*
X115470000Y-132620000D01*
X115800000Y-139160000D02*
X115470000Y-139160000D01*
G04 #@! TO.C,R6*
X113130000Y-132620000D02*
X112800000Y-132620000D01*
X113130000Y-139160000D02*
X113130000Y-132620000D01*
X112800000Y-139160000D02*
X113130000Y-139160000D01*
X110390000Y-132620000D02*
X110720000Y-132620000D01*
X110390000Y-139160000D02*
X110390000Y-132620000D01*
X110720000Y-139160000D02*
X110390000Y-139160000D01*
G04 #@! TO.C,J5*
X171510000Y-97850000D02*
X170180000Y-97850000D01*
X171510000Y-96520000D02*
X171510000Y-97850000D01*
X171510000Y-95250000D02*
X168850000Y-95250000D01*
X168850000Y-95250000D02*
X168850000Y-77410000D01*
X171510000Y-95250000D02*
X171510000Y-77410000D01*
X171510000Y-77410000D02*
X168850000Y-77410000D01*
G04 #@! TO.C,J6*
X128330000Y-77410000D02*
X125670000Y-77410000D01*
X128330000Y-95250000D02*
X128330000Y-77410000D01*
X125670000Y-95250000D02*
X125670000Y-77410000D01*
X128330000Y-95250000D02*
X125670000Y-95250000D01*
X128330000Y-96520000D02*
X128330000Y-97850000D01*
X128330000Y-97850000D02*
X127000000Y-97850000D01*
G04 #@! TO.C,J8*
X120650000Y-143450000D02*
X120650000Y-146110000D01*
X120650000Y-143450000D02*
X102810000Y-143450000D01*
X102810000Y-143450000D02*
X102810000Y-146110000D01*
X120650000Y-146110000D02*
X102810000Y-146110000D01*
X123250000Y-146110000D02*
X121920000Y-146110000D01*
X123250000Y-144780000D02*
X123250000Y-146110000D01*
G04 #@! TO.C,D3*
X81280462Y-117660000D02*
G75*
G03X79735170Y-123210000I-462J-2990000D01*
G01*
X81279538Y-117660000D02*
G75*
G02X82824830Y-123210000I462J-2990000D01*
G01*
X83780000Y-120650000D02*
G75*
G03X83780000Y-120650000I-2500000J0D01*
G01*
X79735000Y-123210000D02*
X82825000Y-123210000D01*
G04 #@! TO.C,R7*
X80240000Y-134080000D02*
X79910000Y-134080000D01*
X79910000Y-134080000D02*
X79910000Y-127540000D01*
X79910000Y-127540000D02*
X80240000Y-127540000D01*
X82320000Y-134080000D02*
X82650000Y-134080000D01*
X82650000Y-134080000D02*
X82650000Y-127540000D01*
X82650000Y-127540000D02*
X82320000Y-127540000D01*
G04 #@! TO.C,J9*
X82610000Y-87570000D02*
X79950000Y-87570000D01*
X82610000Y-95250000D02*
X82610000Y-87570000D01*
X79950000Y-95250000D02*
X79950000Y-87570000D01*
X82610000Y-95250000D02*
X79950000Y-95250000D01*
X82610000Y-96520000D02*
X82610000Y-97850000D01*
X82610000Y-97850000D02*
X81280000Y-97850000D01*
G04 #@! TO.C,U1*
X93710000Y-102810000D02*
G75*
G02X91710000Y-102810000I-1000000J0D01*
G01*
X91710000Y-102810000D02*
X90060000Y-102810000D01*
X90060000Y-102810000D02*
X90060000Y-138490000D01*
X90060000Y-138490000D02*
X95360000Y-138490000D01*
X95360000Y-138490000D02*
X95360000Y-102810000D01*
X95360000Y-102810000D02*
X93710000Y-102810000D01*
X87570000Y-102750000D02*
X87570000Y-138550000D01*
X87570000Y-138550000D02*
X97850000Y-138550000D01*
X97850000Y-138550000D02*
X97850000Y-102750000D01*
X97850000Y-102750000D02*
X87570000Y-102750000D01*
G04 #@! TO.C,U7*
D13*
X104648095Y-101262380D02*
X104648095Y-102071904D01*
X104695714Y-102167142D01*
X104743333Y-102214761D01*
X104838571Y-102262380D01*
X105029047Y-102262380D01*
X105124285Y-102214761D01*
X105171904Y-102167142D01*
X105219523Y-102071904D01*
X105219523Y-101262380D01*
X105600476Y-101262380D02*
X106267142Y-101262380D01*
X105838571Y-102262380D01*
X104862380Y-120578095D02*
X104862380Y-119911428D01*
X105862380Y-120340000D01*
X105195714Y-119101904D02*
X105862380Y-119101904D01*
X104814761Y-119340000D02*
X105529047Y-119578095D01*
X105529047Y-118959047D01*
X105862380Y-118578095D02*
X104862380Y-118578095D01*
X105338571Y-118578095D02*
X105338571Y-118006666D01*
X105862380Y-118006666D02*
X104862380Y-118006666D01*
X105767142Y-116959047D02*
X105814761Y-117006666D01*
X105862380Y-117149523D01*
X105862380Y-117244761D01*
X105814761Y-117387619D01*
X105719523Y-117482857D01*
X105624285Y-117530476D01*
X105433809Y-117578095D01*
X105290952Y-117578095D01*
X105100476Y-117530476D01*
X105005238Y-117482857D01*
X104910000Y-117387619D01*
X104862380Y-117244761D01*
X104862380Y-117149523D01*
X104910000Y-117006666D01*
X104957619Y-116959047D01*
X105814761Y-116578095D02*
X105862380Y-116435238D01*
X105862380Y-116197142D01*
X105814761Y-116101904D01*
X105767142Y-116054285D01*
X105671904Y-116006666D01*
X105576666Y-116006666D01*
X105481428Y-116054285D01*
X105433809Y-116101904D01*
X105386190Y-116197142D01*
X105338571Y-116387619D01*
X105290952Y-116482857D01*
X105243333Y-116530476D01*
X105148095Y-116578095D01*
X105052857Y-116578095D01*
X104957619Y-116530476D01*
X104910000Y-116482857D01*
X104862380Y-116387619D01*
X104862380Y-116149523D01*
X104910000Y-116006666D01*
X104957619Y-115625714D02*
X104910000Y-115578095D01*
X104862380Y-115482857D01*
X104862380Y-115244761D01*
X104910000Y-115149523D01*
X104957619Y-115101904D01*
X105052857Y-115054285D01*
X105148095Y-115054285D01*
X105290952Y-115101904D01*
X105862380Y-115673333D01*
X105862380Y-115054285D01*
X105862380Y-114578095D02*
X105862380Y-114387619D01*
X105814761Y-114292380D01*
X105767142Y-114244761D01*
X105624285Y-114149523D01*
X105433809Y-114101904D01*
X105052857Y-114101904D01*
X104957619Y-114149523D01*
X104910000Y-114197142D01*
X104862380Y-114292380D01*
X104862380Y-114482857D01*
X104910000Y-114578095D01*
X104957619Y-114625714D01*
X105052857Y-114673333D01*
X105290952Y-114673333D01*
X105386190Y-114625714D01*
X105433809Y-114578095D01*
X105481428Y-114482857D01*
X105481428Y-114292380D01*
X105433809Y-114197142D01*
X105386190Y-114149523D01*
X105290952Y-114101904D01*
X105862380Y-113625714D02*
X105862380Y-113435238D01*
X105814761Y-113340000D01*
X105767142Y-113292380D01*
X105624285Y-113197142D01*
X105433809Y-113149523D01*
X105052857Y-113149523D01*
X104957619Y-113197142D01*
X104910000Y-113244761D01*
X104862380Y-113340000D01*
X104862380Y-113530476D01*
X104910000Y-113625714D01*
X104957619Y-113673333D01*
X105052857Y-113720952D01*
X105290952Y-113720952D01*
X105386190Y-113673333D01*
X105433809Y-113625714D01*
X105481428Y-113530476D01*
X105481428Y-113340000D01*
X105433809Y-113244761D01*
X105386190Y-113197142D01*
X105290952Y-113149523D01*
G04 #@! TO.C,U6*
X133858095Y-78192380D02*
X133858095Y-79001904D01*
X133905714Y-79097142D01*
X133953333Y-79144761D01*
X134048571Y-79192380D01*
X134239047Y-79192380D01*
X134334285Y-79144761D01*
X134381904Y-79097142D01*
X134429523Y-79001904D01*
X134429523Y-78192380D01*
X135334285Y-78192380D02*
X135143809Y-78192380D01*
X135048571Y-78240000D01*
X135000952Y-78287619D01*
X134905714Y-78430476D01*
X134858095Y-78620952D01*
X134858095Y-79001904D01*
X134905714Y-79097142D01*
X134953333Y-79144761D01*
X135048571Y-79192380D01*
X135239047Y-79192380D01*
X135334285Y-79144761D01*
X135381904Y-79097142D01*
X135429523Y-79001904D01*
X135429523Y-78763809D01*
X135381904Y-78668571D01*
X135334285Y-78620952D01*
X135239047Y-78573333D01*
X135048571Y-78573333D01*
X134953333Y-78620952D01*
X134905714Y-78668571D01*
X134858095Y-78763809D01*
X144232380Y-105679523D02*
X144232380Y-105012857D01*
X145232380Y-105679523D01*
X145232380Y-105012857D01*
X144660952Y-104489047D02*
X144613333Y-104584285D01*
X144565714Y-104631904D01*
X144470476Y-104679523D01*
X144422857Y-104679523D01*
X144327619Y-104631904D01*
X144280000Y-104584285D01*
X144232380Y-104489047D01*
X144232380Y-104298571D01*
X144280000Y-104203333D01*
X144327619Y-104155714D01*
X144422857Y-104108095D01*
X144470476Y-104108095D01*
X144565714Y-104155714D01*
X144613333Y-104203333D01*
X144660952Y-104298571D01*
X144660952Y-104489047D01*
X144708571Y-104584285D01*
X144756190Y-104631904D01*
X144851428Y-104679523D01*
X145041904Y-104679523D01*
X145137142Y-104631904D01*
X145184761Y-104584285D01*
X145232380Y-104489047D01*
X145232380Y-104298571D01*
X145184761Y-104203333D01*
X145137142Y-104155714D01*
X145041904Y-104108095D01*
X144851428Y-104108095D01*
X144756190Y-104155714D01*
X144708571Y-104203333D01*
X144660952Y-104298571D01*
X144232380Y-103489047D02*
X144232380Y-103393809D01*
X144280000Y-103298571D01*
X144327619Y-103250952D01*
X144422857Y-103203333D01*
X144613333Y-103155714D01*
X144851428Y-103155714D01*
X145041904Y-103203333D01*
X145137142Y-103250952D01*
X145184761Y-103298571D01*
X145232380Y-103393809D01*
X145232380Y-103489047D01*
X145184761Y-103584285D01*
X145137142Y-103631904D01*
X145041904Y-103679523D01*
X144851428Y-103727142D01*
X144613333Y-103727142D01*
X144422857Y-103679523D01*
X144327619Y-103631904D01*
X144280000Y-103584285D01*
X144232380Y-103489047D01*
X145137142Y-102155714D02*
X145184761Y-102203333D01*
X145232380Y-102346190D01*
X145232380Y-102441428D01*
X145184761Y-102584285D01*
X145089523Y-102679523D01*
X144994285Y-102727142D01*
X144803809Y-102774761D01*
X144660952Y-102774761D01*
X144470476Y-102727142D01*
X144375238Y-102679523D01*
X144280000Y-102584285D01*
X144232380Y-102441428D01*
X144232380Y-102346190D01*
X144280000Y-102203333D01*
X144327619Y-102155714D01*
X145232380Y-101727142D02*
X144232380Y-101727142D01*
X144232380Y-101346190D01*
X144280000Y-101250952D01*
X144327619Y-101203333D01*
X144422857Y-101155714D01*
X144565714Y-101155714D01*
X144660952Y-101203333D01*
X144708571Y-101250952D01*
X144756190Y-101346190D01*
X144756190Y-101727142D01*
X144232380Y-100727142D02*
X145041904Y-100727142D01*
X145137142Y-100679523D01*
X145184761Y-100631904D01*
X145232380Y-100536666D01*
X145232380Y-100346190D01*
X145184761Y-100250952D01*
X145137142Y-100203333D01*
X145041904Y-100155714D01*
X144232380Y-100155714D01*
G04 #@! TO.C,U12*
X116871904Y-106342380D02*
X116871904Y-107151904D01*
X116919523Y-107247142D01*
X116967142Y-107294761D01*
X117062380Y-107342380D01*
X117252857Y-107342380D01*
X117348095Y-107294761D01*
X117395714Y-107247142D01*
X117443333Y-107151904D01*
X117443333Y-106342380D01*
X118443333Y-107342380D02*
X117871904Y-107342380D01*
X118157619Y-107342380D02*
X118157619Y-106342380D01*
X118062380Y-106485238D01*
X117967142Y-106580476D01*
X117871904Y-106628095D01*
X118824285Y-106437619D02*
X118871904Y-106390000D01*
X118967142Y-106342380D01*
X119205238Y-106342380D01*
X119300476Y-106390000D01*
X119348095Y-106437619D01*
X119395714Y-106532857D01*
X119395714Y-106628095D01*
X119348095Y-106770952D01*
X118776666Y-107342380D01*
X119395714Y-107342380D01*
X117562380Y-121371904D02*
X117562380Y-120705238D01*
X118562380Y-121133809D01*
X117895714Y-119895714D02*
X118562380Y-119895714D01*
X117514761Y-120133809D02*
X118229047Y-120371904D01*
X118229047Y-119752857D01*
X118562380Y-119371904D02*
X117562380Y-119371904D01*
X118038571Y-119371904D02*
X118038571Y-118800476D01*
X118562380Y-118800476D02*
X117562380Y-118800476D01*
X118467142Y-117752857D02*
X118514761Y-117800476D01*
X118562380Y-117943333D01*
X118562380Y-118038571D01*
X118514761Y-118181428D01*
X118419523Y-118276666D01*
X118324285Y-118324285D01*
X118133809Y-118371904D01*
X117990952Y-118371904D01*
X117800476Y-118324285D01*
X117705238Y-118276666D01*
X117610000Y-118181428D01*
X117562380Y-118038571D01*
X117562380Y-117943333D01*
X117610000Y-117800476D01*
X117657619Y-117752857D01*
X118562380Y-116800476D02*
X118562380Y-117371904D01*
X118562380Y-117086190D02*
X117562380Y-117086190D01*
X117705238Y-117181428D01*
X117800476Y-117276666D01*
X117848095Y-117371904D01*
X117562380Y-115943333D02*
X117562380Y-116133809D01*
X117610000Y-116229047D01*
X117657619Y-116276666D01*
X117800476Y-116371904D01*
X117990952Y-116419523D01*
X118371904Y-116419523D01*
X118467142Y-116371904D01*
X118514761Y-116324285D01*
X118562380Y-116229047D01*
X118562380Y-116038571D01*
X118514761Y-115943333D01*
X118467142Y-115895714D01*
X118371904Y-115848095D01*
X118133809Y-115848095D01*
X118038571Y-115895714D01*
X117990952Y-115943333D01*
X117943333Y-116038571D01*
X117943333Y-116229047D01*
X117990952Y-116324285D01*
X118038571Y-116371904D01*
X118133809Y-116419523D01*
X117562380Y-114943333D02*
X117562380Y-115419523D01*
X118038571Y-115467142D01*
X117990952Y-115419523D01*
X117943333Y-115324285D01*
X117943333Y-115086190D01*
X117990952Y-114990952D01*
X118038571Y-114943333D01*
X118133809Y-114895714D01*
X118371904Y-114895714D01*
X118467142Y-114943333D01*
X118514761Y-114990952D01*
X118562380Y-115086190D01*
X118562380Y-115324285D01*
X118514761Y-115419523D01*
X118467142Y-115467142D01*
G04 #@! TO.C,U4*
X123698095Y-55332380D02*
X123698095Y-56141904D01*
X123745714Y-56237142D01*
X123793333Y-56284761D01*
X123888571Y-56332380D01*
X124079047Y-56332380D01*
X124174285Y-56284761D01*
X124221904Y-56237142D01*
X124269523Y-56141904D01*
X124269523Y-55332380D01*
X125174285Y-55665714D02*
X125174285Y-56332380D01*
X124936190Y-55284761D02*
X124698095Y-55999047D01*
X125317142Y-55999047D01*
X130262380Y-66285714D02*
X130262380Y-65619047D01*
X131262380Y-66047619D01*
X130595714Y-64809523D02*
X131262380Y-64809523D01*
X130214761Y-65047619D02*
X130929047Y-65285714D01*
X130929047Y-64666666D01*
X131262380Y-64285714D02*
X130262380Y-64285714D01*
X130738571Y-64285714D02*
X130738571Y-63714285D01*
X131262380Y-63714285D02*
X130262380Y-63714285D01*
X131167142Y-62666666D02*
X131214761Y-62714285D01*
X131262380Y-62857142D01*
X131262380Y-62952380D01*
X131214761Y-63095238D01*
X131119523Y-63190476D01*
X131024285Y-63238095D01*
X130833809Y-63285714D01*
X130690952Y-63285714D01*
X130500476Y-63238095D01*
X130405238Y-63190476D01*
X130310000Y-63095238D01*
X130262380Y-62952380D01*
X130262380Y-62857142D01*
X130310000Y-62714285D01*
X130357619Y-62666666D01*
X130262380Y-62047619D02*
X130262380Y-61952380D01*
X130310000Y-61857142D01*
X130357619Y-61809523D01*
X130452857Y-61761904D01*
X130643333Y-61714285D01*
X130881428Y-61714285D01*
X131071904Y-61761904D01*
X131167142Y-61809523D01*
X131214761Y-61857142D01*
X131262380Y-61952380D01*
X131262380Y-62047619D01*
X131214761Y-62142857D01*
X131167142Y-62190476D01*
X131071904Y-62238095D01*
X130881428Y-62285714D01*
X130643333Y-62285714D01*
X130452857Y-62238095D01*
X130357619Y-62190476D01*
X130310000Y-62142857D01*
X130262380Y-62047619D01*
X130690952Y-61142857D02*
X130643333Y-61238095D01*
X130595714Y-61285714D01*
X130500476Y-61333333D01*
X130452857Y-61333333D01*
X130357619Y-61285714D01*
X130310000Y-61238095D01*
X130262380Y-61142857D01*
X130262380Y-60952380D01*
X130310000Y-60857142D01*
X130357619Y-60809523D01*
X130452857Y-60761904D01*
X130500476Y-60761904D01*
X130595714Y-60809523D01*
X130643333Y-60857142D01*
X130690952Y-60952380D01*
X130690952Y-61142857D01*
X130738571Y-61238095D01*
X130786190Y-61285714D01*
X130881428Y-61333333D01*
X131071904Y-61333333D01*
X131167142Y-61285714D01*
X131214761Y-61238095D01*
X131262380Y-61142857D01*
X131262380Y-60952380D01*
X131214761Y-60857142D01*
X131167142Y-60809523D01*
X131071904Y-60761904D01*
X130881428Y-60761904D01*
X130786190Y-60809523D01*
X130738571Y-60857142D01*
X130690952Y-60952380D01*
G04 #@! TO.C,U10*
X154971904Y-75652380D02*
X154971904Y-76461904D01*
X155019523Y-76557142D01*
X155067142Y-76604761D01*
X155162380Y-76652380D01*
X155352857Y-76652380D01*
X155448095Y-76604761D01*
X155495714Y-76557142D01*
X155543333Y-76461904D01*
X155543333Y-75652380D01*
X156543333Y-76652380D02*
X155971904Y-76652380D01*
X156257619Y-76652380D02*
X156257619Y-75652380D01*
X156162380Y-75795238D01*
X156067142Y-75890476D01*
X155971904Y-75938095D01*
X157162380Y-75652380D02*
X157257619Y-75652380D01*
X157352857Y-75700000D01*
X157400476Y-75747619D01*
X157448095Y-75842857D01*
X157495714Y-76033333D01*
X157495714Y-76271428D01*
X157448095Y-76461904D01*
X157400476Y-76557142D01*
X157352857Y-76604761D01*
X157257619Y-76652380D01*
X157162380Y-76652380D01*
X157067142Y-76604761D01*
X157019523Y-76557142D01*
X156971904Y-76461904D01*
X156924285Y-76271428D01*
X156924285Y-76033333D01*
X156971904Y-75842857D01*
X157019523Y-75747619D01*
X157067142Y-75700000D01*
X157162380Y-75652380D01*
X161647142Y-96503809D02*
X161694761Y-96551428D01*
X161742380Y-96694285D01*
X161742380Y-96789523D01*
X161694761Y-96932380D01*
X161599523Y-97027619D01*
X161504285Y-97075238D01*
X161313809Y-97122857D01*
X161170952Y-97122857D01*
X160980476Y-97075238D01*
X160885238Y-97027619D01*
X160790000Y-96932380D01*
X160742380Y-96789523D01*
X160742380Y-96694285D01*
X160790000Y-96551428D01*
X160837619Y-96503809D01*
X161266190Y-95884761D02*
X161742380Y-95884761D01*
X160742380Y-96218095D02*
X161266190Y-95884761D01*
X160742380Y-95551428D01*
X160742380Y-95313333D02*
X160742380Y-94646666D01*
X161742380Y-95075238D01*
X161647142Y-93694285D02*
X161694761Y-93741904D01*
X161742380Y-93884761D01*
X161742380Y-93980000D01*
X161694761Y-94122857D01*
X161599523Y-94218095D01*
X161504285Y-94265714D01*
X161313809Y-94313333D01*
X161170952Y-94313333D01*
X160980476Y-94265714D01*
X160885238Y-94218095D01*
X160790000Y-94122857D01*
X160742380Y-93980000D01*
X160742380Y-93884761D01*
X160790000Y-93741904D01*
X160837619Y-93694285D01*
X161742380Y-92741904D02*
X161742380Y-93313333D01*
X161742380Y-93027619D02*
X160742380Y-93027619D01*
X160885238Y-93122857D01*
X160980476Y-93218095D01*
X161028095Y-93313333D01*
X161742380Y-92265714D02*
X161742380Y-92075238D01*
X161694761Y-91980000D01*
X161647142Y-91932380D01*
X161504285Y-91837142D01*
X161313809Y-91789523D01*
X160932857Y-91789523D01*
X160837619Y-91837142D01*
X160790000Y-91884761D01*
X160742380Y-91980000D01*
X160742380Y-92170476D01*
X160790000Y-92265714D01*
X160837619Y-92313333D01*
X160932857Y-92360952D01*
X161170952Y-92360952D01*
X161266190Y-92313333D01*
X161313809Y-92265714D01*
X161361428Y-92170476D01*
X161361428Y-91980000D01*
X161313809Y-91884761D01*
X161266190Y-91837142D01*
X161170952Y-91789523D01*
X161742380Y-91313333D02*
X161742380Y-91122857D01*
X161694761Y-91027619D01*
X161647142Y-90980000D01*
X161504285Y-90884761D01*
X161313809Y-90837142D01*
X160932857Y-90837142D01*
X160837619Y-90884761D01*
X160790000Y-90932380D01*
X160742380Y-91027619D01*
X160742380Y-91218095D01*
X160790000Y-91313333D01*
X160837619Y-91360952D01*
X160932857Y-91408571D01*
X161170952Y-91408571D01*
X161266190Y-91360952D01*
X161313809Y-91313333D01*
X161361428Y-91218095D01*
X161361428Y-91027619D01*
X161313809Y-90932380D01*
X161266190Y-90884761D01*
X161170952Y-90837142D01*
G04 #@! TO.C,U2*
X91948095Y-75862380D02*
X91948095Y-76671904D01*
X91995714Y-76767142D01*
X92043333Y-76814761D01*
X92138571Y-76862380D01*
X92329047Y-76862380D01*
X92424285Y-76814761D01*
X92471904Y-76767142D01*
X92519523Y-76671904D01*
X92519523Y-75862380D01*
X92948095Y-75957619D02*
X92995714Y-75910000D01*
X93090952Y-75862380D01*
X93329047Y-75862380D01*
X93424285Y-75910000D01*
X93471904Y-75957619D01*
X93519523Y-76052857D01*
X93519523Y-76148095D01*
X93471904Y-76290952D01*
X92900476Y-76862380D01*
X93519523Y-76862380D01*
X92162380Y-97241904D02*
X92162380Y-96575238D01*
X93162380Y-97003809D01*
X92495714Y-95765714D02*
X93162380Y-95765714D01*
X92114761Y-96003809D02*
X92829047Y-96241904D01*
X92829047Y-95622857D01*
X93162380Y-95241904D02*
X92162380Y-95241904D01*
X92638571Y-95241904D02*
X92638571Y-94670476D01*
X93162380Y-94670476D02*
X92162380Y-94670476D01*
X93067142Y-93622857D02*
X93114761Y-93670476D01*
X93162380Y-93813333D01*
X93162380Y-93908571D01*
X93114761Y-94051428D01*
X93019523Y-94146666D01*
X92924285Y-94194285D01*
X92733809Y-94241904D01*
X92590952Y-94241904D01*
X92400476Y-94194285D01*
X92305238Y-94146666D01*
X92210000Y-94051428D01*
X92162380Y-93908571D01*
X92162380Y-93813333D01*
X92210000Y-93670476D01*
X92257619Y-93622857D01*
X93162380Y-92670476D02*
X93162380Y-93241904D01*
X93162380Y-92956190D02*
X92162380Y-92956190D01*
X92305238Y-93051428D01*
X92400476Y-93146666D01*
X92448095Y-93241904D01*
X92162380Y-91813333D02*
X92162380Y-92003809D01*
X92210000Y-92099047D01*
X92257619Y-92146666D01*
X92400476Y-92241904D01*
X92590952Y-92289523D01*
X92971904Y-92289523D01*
X93067142Y-92241904D01*
X93114761Y-92194285D01*
X93162380Y-92099047D01*
X93162380Y-91908571D01*
X93114761Y-91813333D01*
X93067142Y-91765714D01*
X92971904Y-91718095D01*
X92733809Y-91718095D01*
X92638571Y-91765714D01*
X92590952Y-91813333D01*
X92543333Y-91908571D01*
X92543333Y-92099047D01*
X92590952Y-92194285D01*
X92638571Y-92241904D01*
X92733809Y-92289523D01*
X93162380Y-90765714D02*
X93162380Y-91337142D01*
X93162380Y-91051428D02*
X92162380Y-91051428D01*
X92305238Y-91146666D01*
X92400476Y-91241904D01*
X92448095Y-91337142D01*
G04 #@! TO.C,C1*
X156043333Y-52427142D02*
X155995714Y-52474761D01*
X155852857Y-52522380D01*
X155757619Y-52522380D01*
X155614761Y-52474761D01*
X155519523Y-52379523D01*
X155471904Y-52284285D01*
X155424285Y-52093809D01*
X155424285Y-51950952D01*
X155471904Y-51760476D01*
X155519523Y-51665238D01*
X155614761Y-51570000D01*
X155757619Y-51522380D01*
X155852857Y-51522380D01*
X155995714Y-51570000D01*
X156043333Y-51617619D01*
X156995714Y-52522380D02*
X156424285Y-52522380D01*
X156710000Y-52522380D02*
X156710000Y-51522380D01*
X156614761Y-51665238D01*
X156519523Y-51760476D01*
X156424285Y-51808095D01*
X161440952Y-52522380D02*
X160869523Y-52522380D01*
X161155238Y-52522380D02*
X161155238Y-51522380D01*
X161060000Y-51665238D01*
X160964761Y-51760476D01*
X160869523Y-51808095D01*
X162060000Y-51522380D02*
X162155238Y-51522380D01*
X162250476Y-51570000D01*
X162298095Y-51617619D01*
X162345714Y-51712857D01*
X162393333Y-51903333D01*
X162393333Y-52141428D01*
X162345714Y-52331904D01*
X162298095Y-52427142D01*
X162250476Y-52474761D01*
X162155238Y-52522380D01*
X162060000Y-52522380D01*
X161964761Y-52474761D01*
X161917142Y-52427142D01*
X161869523Y-52331904D01*
X161821904Y-52141428D01*
X161821904Y-51903333D01*
X161869523Y-51712857D01*
X161917142Y-51617619D01*
X161964761Y-51570000D01*
X162060000Y-51522380D01*
X163012380Y-51522380D02*
X163107619Y-51522380D01*
X163202857Y-51570000D01*
X163250476Y-51617619D01*
X163298095Y-51712857D01*
X163345714Y-51903333D01*
X163345714Y-52141428D01*
X163298095Y-52331904D01*
X163250476Y-52427142D01*
X163202857Y-52474761D01*
X163107619Y-52522380D01*
X163012380Y-52522380D01*
X162917142Y-52474761D01*
X162869523Y-52427142D01*
X162821904Y-52331904D01*
X162774285Y-52141428D01*
X162774285Y-51903333D01*
X162821904Y-51712857D01*
X162869523Y-51617619D01*
X162917142Y-51570000D01*
X163012380Y-51522380D01*
X163774285Y-51855714D02*
X163774285Y-52522380D01*
X163774285Y-51950952D02*
X163821904Y-51903333D01*
X163917142Y-51855714D01*
X164060000Y-51855714D01*
X164155238Y-51903333D01*
X164202857Y-51998571D01*
X164202857Y-52522380D01*
G04 #@! TO.C,C2*
X114133333Y-107037142D02*
X114085714Y-107084761D01*
X113942857Y-107132380D01*
X113847619Y-107132380D01*
X113704761Y-107084761D01*
X113609523Y-106989523D01*
X113561904Y-106894285D01*
X113514285Y-106703809D01*
X113514285Y-106560952D01*
X113561904Y-106370476D01*
X113609523Y-106275238D01*
X113704761Y-106180000D01*
X113847619Y-106132380D01*
X113942857Y-106132380D01*
X114085714Y-106180000D01*
X114133333Y-106227619D01*
X114514285Y-106227619D02*
X114561904Y-106180000D01*
X114657142Y-106132380D01*
X114895238Y-106132380D01*
X114990476Y-106180000D01*
X115038095Y-106227619D01*
X115085714Y-106322857D01*
X115085714Y-106418095D01*
X115038095Y-106560952D01*
X114466666Y-107132380D01*
X115085714Y-107132380D01*
X122070952Y-107132380D02*
X121499523Y-107132380D01*
X121785238Y-107132380D02*
X121785238Y-106132380D01*
X121690000Y-106275238D01*
X121594761Y-106370476D01*
X121499523Y-106418095D01*
X122690000Y-106132380D02*
X122785238Y-106132380D01*
X122880476Y-106180000D01*
X122928095Y-106227619D01*
X122975714Y-106322857D01*
X123023333Y-106513333D01*
X123023333Y-106751428D01*
X122975714Y-106941904D01*
X122928095Y-107037142D01*
X122880476Y-107084761D01*
X122785238Y-107132380D01*
X122690000Y-107132380D01*
X122594761Y-107084761D01*
X122547142Y-107037142D01*
X122499523Y-106941904D01*
X122451904Y-106751428D01*
X122451904Y-106513333D01*
X122499523Y-106322857D01*
X122547142Y-106227619D01*
X122594761Y-106180000D01*
X122690000Y-106132380D01*
X123642380Y-106132380D02*
X123737619Y-106132380D01*
X123832857Y-106180000D01*
X123880476Y-106227619D01*
X123928095Y-106322857D01*
X123975714Y-106513333D01*
X123975714Y-106751428D01*
X123928095Y-106941904D01*
X123880476Y-107037142D01*
X123832857Y-107084761D01*
X123737619Y-107132380D01*
X123642380Y-107132380D01*
X123547142Y-107084761D01*
X123499523Y-107037142D01*
X123451904Y-106941904D01*
X123404285Y-106751428D01*
X123404285Y-106513333D01*
X123451904Y-106322857D01*
X123499523Y-106227619D01*
X123547142Y-106180000D01*
X123642380Y-106132380D01*
X124404285Y-106465714D02*
X124404285Y-107132380D01*
X124404285Y-106560952D02*
X124451904Y-106513333D01*
X124547142Y-106465714D01*
X124690000Y-106465714D01*
X124785238Y-106513333D01*
X124832857Y-106608571D01*
X124832857Y-107132380D01*
G04 #@! TO.C,C3*
X129373333Y-129897142D02*
X129325714Y-129944761D01*
X129182857Y-129992380D01*
X129087619Y-129992380D01*
X128944761Y-129944761D01*
X128849523Y-129849523D01*
X128801904Y-129754285D01*
X128754285Y-129563809D01*
X128754285Y-129420952D01*
X128801904Y-129230476D01*
X128849523Y-129135238D01*
X128944761Y-129040000D01*
X129087619Y-128992380D01*
X129182857Y-128992380D01*
X129325714Y-129040000D01*
X129373333Y-129087619D01*
X129706666Y-128992380D02*
X130325714Y-128992380D01*
X129992380Y-129373333D01*
X130135238Y-129373333D01*
X130230476Y-129420952D01*
X130278095Y-129468571D01*
X130325714Y-129563809D01*
X130325714Y-129801904D01*
X130278095Y-129897142D01*
X130230476Y-129944761D01*
X130135238Y-129992380D01*
X129849523Y-129992380D01*
X129754285Y-129944761D01*
X129706666Y-129897142D01*
X137310952Y-129992380D02*
X136739523Y-129992380D01*
X137025238Y-129992380D02*
X137025238Y-128992380D01*
X136930000Y-129135238D01*
X136834761Y-129230476D01*
X136739523Y-129278095D01*
X137930000Y-128992380D02*
X138025238Y-128992380D01*
X138120476Y-129040000D01*
X138168095Y-129087619D01*
X138215714Y-129182857D01*
X138263333Y-129373333D01*
X138263333Y-129611428D01*
X138215714Y-129801904D01*
X138168095Y-129897142D01*
X138120476Y-129944761D01*
X138025238Y-129992380D01*
X137930000Y-129992380D01*
X137834761Y-129944761D01*
X137787142Y-129897142D01*
X137739523Y-129801904D01*
X137691904Y-129611428D01*
X137691904Y-129373333D01*
X137739523Y-129182857D01*
X137787142Y-129087619D01*
X137834761Y-129040000D01*
X137930000Y-128992380D01*
X138882380Y-128992380D02*
X138977619Y-128992380D01*
X139072857Y-129040000D01*
X139120476Y-129087619D01*
X139168095Y-129182857D01*
X139215714Y-129373333D01*
X139215714Y-129611428D01*
X139168095Y-129801904D01*
X139120476Y-129897142D01*
X139072857Y-129944761D01*
X138977619Y-129992380D01*
X138882380Y-129992380D01*
X138787142Y-129944761D01*
X138739523Y-129897142D01*
X138691904Y-129801904D01*
X138644285Y-129611428D01*
X138644285Y-129373333D01*
X138691904Y-129182857D01*
X138739523Y-129087619D01*
X138787142Y-129040000D01*
X138882380Y-128992380D01*
X139644285Y-129325714D02*
X139644285Y-129992380D01*
X139644285Y-129420952D02*
X139691904Y-129373333D01*
X139787142Y-129325714D01*
X139930000Y-129325714D01*
X140025238Y-129373333D01*
X140072857Y-129468571D01*
X140072857Y-129992380D01*
G04 #@! TO.C,C4*
X101433333Y-100687142D02*
X101385714Y-100734761D01*
X101242857Y-100782380D01*
X101147619Y-100782380D01*
X101004761Y-100734761D01*
X100909523Y-100639523D01*
X100861904Y-100544285D01*
X100814285Y-100353809D01*
X100814285Y-100210952D01*
X100861904Y-100020476D01*
X100909523Y-99925238D01*
X101004761Y-99830000D01*
X101147619Y-99782380D01*
X101242857Y-99782380D01*
X101385714Y-99830000D01*
X101433333Y-99877619D01*
X102290476Y-100115714D02*
X102290476Y-100782380D01*
X102052380Y-99734761D02*
X101814285Y-100449047D01*
X102433333Y-100449047D01*
X108100952Y-100782380D02*
X107529523Y-100782380D01*
X107815238Y-100782380D02*
X107815238Y-99782380D01*
X107720000Y-99925238D01*
X107624761Y-100020476D01*
X107529523Y-100068095D01*
X108720000Y-99782380D02*
X108815238Y-99782380D01*
X108910476Y-99830000D01*
X108958095Y-99877619D01*
X109005714Y-99972857D01*
X109053333Y-100163333D01*
X109053333Y-100401428D01*
X109005714Y-100591904D01*
X108958095Y-100687142D01*
X108910476Y-100734761D01*
X108815238Y-100782380D01*
X108720000Y-100782380D01*
X108624761Y-100734761D01*
X108577142Y-100687142D01*
X108529523Y-100591904D01*
X108481904Y-100401428D01*
X108481904Y-100163333D01*
X108529523Y-99972857D01*
X108577142Y-99877619D01*
X108624761Y-99830000D01*
X108720000Y-99782380D01*
X109672380Y-99782380D02*
X109767619Y-99782380D01*
X109862857Y-99830000D01*
X109910476Y-99877619D01*
X109958095Y-99972857D01*
X110005714Y-100163333D01*
X110005714Y-100401428D01*
X109958095Y-100591904D01*
X109910476Y-100687142D01*
X109862857Y-100734761D01*
X109767619Y-100782380D01*
X109672380Y-100782380D01*
X109577142Y-100734761D01*
X109529523Y-100687142D01*
X109481904Y-100591904D01*
X109434285Y-100401428D01*
X109434285Y-100163333D01*
X109481904Y-99972857D01*
X109529523Y-99877619D01*
X109577142Y-99830000D01*
X109672380Y-99782380D01*
X110434285Y-100115714D02*
X110434285Y-100782380D01*
X110434285Y-100210952D02*
X110481904Y-100163333D01*
X110577142Y-100115714D01*
X110720000Y-100115714D01*
X110815238Y-100163333D01*
X110862857Y-100258571D01*
X110862857Y-100782380D01*
G04 #@! TO.C,C5*
X102703333Y-52427142D02*
X102655714Y-52474761D01*
X102512857Y-52522380D01*
X102417619Y-52522380D01*
X102274761Y-52474761D01*
X102179523Y-52379523D01*
X102131904Y-52284285D01*
X102084285Y-52093809D01*
X102084285Y-51950952D01*
X102131904Y-51760476D01*
X102179523Y-51665238D01*
X102274761Y-51570000D01*
X102417619Y-51522380D01*
X102512857Y-51522380D01*
X102655714Y-51570000D01*
X102703333Y-51617619D01*
X103608095Y-51522380D02*
X103131904Y-51522380D01*
X103084285Y-51998571D01*
X103131904Y-51950952D01*
X103227142Y-51903333D01*
X103465238Y-51903333D01*
X103560476Y-51950952D01*
X103608095Y-51998571D01*
X103655714Y-52093809D01*
X103655714Y-52331904D01*
X103608095Y-52427142D01*
X103560476Y-52474761D01*
X103465238Y-52522380D01*
X103227142Y-52522380D01*
X103131904Y-52474761D01*
X103084285Y-52427142D01*
X108100952Y-52522380D02*
X107529523Y-52522380D01*
X107815238Y-52522380D02*
X107815238Y-51522380D01*
X107720000Y-51665238D01*
X107624761Y-51760476D01*
X107529523Y-51808095D01*
X108720000Y-51522380D02*
X108815238Y-51522380D01*
X108910476Y-51570000D01*
X108958095Y-51617619D01*
X109005714Y-51712857D01*
X109053333Y-51903333D01*
X109053333Y-52141428D01*
X109005714Y-52331904D01*
X108958095Y-52427142D01*
X108910476Y-52474761D01*
X108815238Y-52522380D01*
X108720000Y-52522380D01*
X108624761Y-52474761D01*
X108577142Y-52427142D01*
X108529523Y-52331904D01*
X108481904Y-52141428D01*
X108481904Y-51903333D01*
X108529523Y-51712857D01*
X108577142Y-51617619D01*
X108624761Y-51570000D01*
X108720000Y-51522380D01*
X109672380Y-51522380D02*
X109767619Y-51522380D01*
X109862857Y-51570000D01*
X109910476Y-51617619D01*
X109958095Y-51712857D01*
X110005714Y-51903333D01*
X110005714Y-52141428D01*
X109958095Y-52331904D01*
X109910476Y-52427142D01*
X109862857Y-52474761D01*
X109767619Y-52522380D01*
X109672380Y-52522380D01*
X109577142Y-52474761D01*
X109529523Y-52427142D01*
X109481904Y-52331904D01*
X109434285Y-52141428D01*
X109434285Y-51903333D01*
X109481904Y-51712857D01*
X109529523Y-51617619D01*
X109577142Y-51570000D01*
X109672380Y-51522380D01*
X110434285Y-51855714D02*
X110434285Y-52522380D01*
X110434285Y-51950952D02*
X110481904Y-51903333D01*
X110577142Y-51855714D01*
X110720000Y-51855714D01*
X110815238Y-51903333D01*
X110862857Y-51998571D01*
X110862857Y-52522380D01*
G04 #@! TO.C,C6*
X88733333Y-75287142D02*
X88685714Y-75334761D01*
X88542857Y-75382380D01*
X88447619Y-75382380D01*
X88304761Y-75334761D01*
X88209523Y-75239523D01*
X88161904Y-75144285D01*
X88114285Y-74953809D01*
X88114285Y-74810952D01*
X88161904Y-74620476D01*
X88209523Y-74525238D01*
X88304761Y-74430000D01*
X88447619Y-74382380D01*
X88542857Y-74382380D01*
X88685714Y-74430000D01*
X88733333Y-74477619D01*
X89590476Y-74382380D02*
X89400000Y-74382380D01*
X89304761Y-74430000D01*
X89257142Y-74477619D01*
X89161904Y-74620476D01*
X89114285Y-74810952D01*
X89114285Y-75191904D01*
X89161904Y-75287142D01*
X89209523Y-75334761D01*
X89304761Y-75382380D01*
X89495238Y-75382380D01*
X89590476Y-75334761D01*
X89638095Y-75287142D01*
X89685714Y-75191904D01*
X89685714Y-74953809D01*
X89638095Y-74858571D01*
X89590476Y-74810952D01*
X89495238Y-74763333D01*
X89304761Y-74763333D01*
X89209523Y-74810952D01*
X89161904Y-74858571D01*
X89114285Y-74953809D01*
X95400952Y-75382380D02*
X94829523Y-75382380D01*
X95115238Y-75382380D02*
X95115238Y-74382380D01*
X95020000Y-74525238D01*
X94924761Y-74620476D01*
X94829523Y-74668095D01*
X96020000Y-74382380D02*
X96115238Y-74382380D01*
X96210476Y-74430000D01*
X96258095Y-74477619D01*
X96305714Y-74572857D01*
X96353333Y-74763333D01*
X96353333Y-75001428D01*
X96305714Y-75191904D01*
X96258095Y-75287142D01*
X96210476Y-75334761D01*
X96115238Y-75382380D01*
X96020000Y-75382380D01*
X95924761Y-75334761D01*
X95877142Y-75287142D01*
X95829523Y-75191904D01*
X95781904Y-75001428D01*
X95781904Y-74763333D01*
X95829523Y-74572857D01*
X95877142Y-74477619D01*
X95924761Y-74430000D01*
X96020000Y-74382380D01*
X96972380Y-74382380D02*
X97067619Y-74382380D01*
X97162857Y-74430000D01*
X97210476Y-74477619D01*
X97258095Y-74572857D01*
X97305714Y-74763333D01*
X97305714Y-75001428D01*
X97258095Y-75191904D01*
X97210476Y-75287142D01*
X97162857Y-75334761D01*
X97067619Y-75382380D01*
X96972380Y-75382380D01*
X96877142Y-75334761D01*
X96829523Y-75287142D01*
X96781904Y-75191904D01*
X96734285Y-75001428D01*
X96734285Y-74763333D01*
X96781904Y-74572857D01*
X96829523Y-74477619D01*
X96877142Y-74430000D01*
X96972380Y-74382380D01*
X97734285Y-74715714D02*
X97734285Y-75382380D01*
X97734285Y-74810952D02*
X97781904Y-74763333D01*
X97877142Y-74715714D01*
X98020000Y-74715714D01*
X98115238Y-74763333D01*
X98162857Y-74858571D01*
X98162857Y-75382380D01*
G04 #@! TO.C,C7*
X144613333Y-129897142D02*
X144565714Y-129944761D01*
X144422857Y-129992380D01*
X144327619Y-129992380D01*
X144184761Y-129944761D01*
X144089523Y-129849523D01*
X144041904Y-129754285D01*
X143994285Y-129563809D01*
X143994285Y-129420952D01*
X144041904Y-129230476D01*
X144089523Y-129135238D01*
X144184761Y-129040000D01*
X144327619Y-128992380D01*
X144422857Y-128992380D01*
X144565714Y-129040000D01*
X144613333Y-129087619D01*
X144946666Y-128992380D02*
X145613333Y-128992380D01*
X145184761Y-129992380D01*
X152550952Y-129992380D02*
X151979523Y-129992380D01*
X152265238Y-129992380D02*
X152265238Y-128992380D01*
X152170000Y-129135238D01*
X152074761Y-129230476D01*
X151979523Y-129278095D01*
X153170000Y-128992380D02*
X153265238Y-128992380D01*
X153360476Y-129040000D01*
X153408095Y-129087619D01*
X153455714Y-129182857D01*
X153503333Y-129373333D01*
X153503333Y-129611428D01*
X153455714Y-129801904D01*
X153408095Y-129897142D01*
X153360476Y-129944761D01*
X153265238Y-129992380D01*
X153170000Y-129992380D01*
X153074761Y-129944761D01*
X153027142Y-129897142D01*
X152979523Y-129801904D01*
X152931904Y-129611428D01*
X152931904Y-129373333D01*
X152979523Y-129182857D01*
X153027142Y-129087619D01*
X153074761Y-129040000D01*
X153170000Y-128992380D01*
X154122380Y-128992380D02*
X154217619Y-128992380D01*
X154312857Y-129040000D01*
X154360476Y-129087619D01*
X154408095Y-129182857D01*
X154455714Y-129373333D01*
X154455714Y-129611428D01*
X154408095Y-129801904D01*
X154360476Y-129897142D01*
X154312857Y-129944761D01*
X154217619Y-129992380D01*
X154122380Y-129992380D01*
X154027142Y-129944761D01*
X153979523Y-129897142D01*
X153931904Y-129801904D01*
X153884285Y-129611428D01*
X153884285Y-129373333D01*
X153931904Y-129182857D01*
X153979523Y-129087619D01*
X154027142Y-129040000D01*
X154122380Y-128992380D01*
X154884285Y-129325714D02*
X154884285Y-129992380D01*
X154884285Y-129420952D02*
X154931904Y-129373333D01*
X155027142Y-129325714D01*
X155170000Y-129325714D01*
X155265238Y-129373333D01*
X155312857Y-129468571D01*
X155312857Y-129992380D01*
G04 #@! TO.C,C8*
X99417142Y-124626666D02*
X99464761Y-124674285D01*
X99512380Y-124817142D01*
X99512380Y-124912380D01*
X99464761Y-125055238D01*
X99369523Y-125150476D01*
X99274285Y-125198095D01*
X99083809Y-125245714D01*
X98940952Y-125245714D01*
X98750476Y-125198095D01*
X98655238Y-125150476D01*
X98560000Y-125055238D01*
X98512380Y-124912380D01*
X98512380Y-124817142D01*
X98560000Y-124674285D01*
X98607619Y-124626666D01*
X98940952Y-124055238D02*
X98893333Y-124150476D01*
X98845714Y-124198095D01*
X98750476Y-124245714D01*
X98702857Y-124245714D01*
X98607619Y-124198095D01*
X98560000Y-124150476D01*
X98512380Y-124055238D01*
X98512380Y-123864761D01*
X98560000Y-123769523D01*
X98607619Y-123721904D01*
X98702857Y-123674285D01*
X98750476Y-123674285D01*
X98845714Y-123721904D01*
X98893333Y-123769523D01*
X98940952Y-123864761D01*
X98940952Y-124055238D01*
X98988571Y-124150476D01*
X99036190Y-124198095D01*
X99131428Y-124245714D01*
X99321904Y-124245714D01*
X99417142Y-124198095D01*
X99464761Y-124150476D01*
X99512380Y-124055238D01*
X99512380Y-123864761D01*
X99464761Y-123769523D01*
X99417142Y-123721904D01*
X99321904Y-123674285D01*
X99131428Y-123674285D01*
X99036190Y-123721904D01*
X98988571Y-123769523D01*
X98940952Y-123864761D01*
X99512380Y-116689047D02*
X99512380Y-117260476D01*
X99512380Y-116974761D02*
X98512380Y-116974761D01*
X98655238Y-117070000D01*
X98750476Y-117165238D01*
X98798095Y-117260476D01*
X98512380Y-116070000D02*
X98512380Y-115974761D01*
X98560000Y-115879523D01*
X98607619Y-115831904D01*
X98702857Y-115784285D01*
X98893333Y-115736666D01*
X99131428Y-115736666D01*
X99321904Y-115784285D01*
X99417142Y-115831904D01*
X99464761Y-115879523D01*
X99512380Y-115974761D01*
X99512380Y-116070000D01*
X99464761Y-116165238D01*
X99417142Y-116212857D01*
X99321904Y-116260476D01*
X99131428Y-116308095D01*
X98893333Y-116308095D01*
X98702857Y-116260476D01*
X98607619Y-116212857D01*
X98560000Y-116165238D01*
X98512380Y-116070000D01*
X98512380Y-115117619D02*
X98512380Y-115022380D01*
X98560000Y-114927142D01*
X98607619Y-114879523D01*
X98702857Y-114831904D01*
X98893333Y-114784285D01*
X99131428Y-114784285D01*
X99321904Y-114831904D01*
X99417142Y-114879523D01*
X99464761Y-114927142D01*
X99512380Y-115022380D01*
X99512380Y-115117619D01*
X99464761Y-115212857D01*
X99417142Y-115260476D01*
X99321904Y-115308095D01*
X99131428Y-115355714D01*
X98893333Y-115355714D01*
X98702857Y-115308095D01*
X98607619Y-115260476D01*
X98560000Y-115212857D01*
X98512380Y-115117619D01*
X98845714Y-114355714D02*
X99512380Y-114355714D01*
X98940952Y-114355714D02*
X98893333Y-114308095D01*
X98845714Y-114212857D01*
X98845714Y-114070000D01*
X98893333Y-113974761D01*
X98988571Y-113927142D01*
X99512380Y-113927142D01*
G04 #@! TO.C,C9*
X128103333Y-52427142D02*
X128055714Y-52474761D01*
X127912857Y-52522380D01*
X127817619Y-52522380D01*
X127674761Y-52474761D01*
X127579523Y-52379523D01*
X127531904Y-52284285D01*
X127484285Y-52093809D01*
X127484285Y-51950952D01*
X127531904Y-51760476D01*
X127579523Y-51665238D01*
X127674761Y-51570000D01*
X127817619Y-51522380D01*
X127912857Y-51522380D01*
X128055714Y-51570000D01*
X128103333Y-51617619D01*
X128579523Y-52522380D02*
X128770000Y-52522380D01*
X128865238Y-52474761D01*
X128912857Y-52427142D01*
X129008095Y-52284285D01*
X129055714Y-52093809D01*
X129055714Y-51712857D01*
X129008095Y-51617619D01*
X128960476Y-51570000D01*
X128865238Y-51522380D01*
X128674761Y-51522380D01*
X128579523Y-51570000D01*
X128531904Y-51617619D01*
X128484285Y-51712857D01*
X128484285Y-51950952D01*
X128531904Y-52046190D01*
X128579523Y-52093809D01*
X128674761Y-52141428D01*
X128865238Y-52141428D01*
X128960476Y-52093809D01*
X129008095Y-52046190D01*
X129055714Y-51950952D01*
X133500952Y-52522380D02*
X132929523Y-52522380D01*
X133215238Y-52522380D02*
X133215238Y-51522380D01*
X133120000Y-51665238D01*
X133024761Y-51760476D01*
X132929523Y-51808095D01*
X134120000Y-51522380D02*
X134215238Y-51522380D01*
X134310476Y-51570000D01*
X134358095Y-51617619D01*
X134405714Y-51712857D01*
X134453333Y-51903333D01*
X134453333Y-52141428D01*
X134405714Y-52331904D01*
X134358095Y-52427142D01*
X134310476Y-52474761D01*
X134215238Y-52522380D01*
X134120000Y-52522380D01*
X134024761Y-52474761D01*
X133977142Y-52427142D01*
X133929523Y-52331904D01*
X133881904Y-52141428D01*
X133881904Y-51903333D01*
X133929523Y-51712857D01*
X133977142Y-51617619D01*
X134024761Y-51570000D01*
X134120000Y-51522380D01*
X135072380Y-51522380D02*
X135167619Y-51522380D01*
X135262857Y-51570000D01*
X135310476Y-51617619D01*
X135358095Y-51712857D01*
X135405714Y-51903333D01*
X135405714Y-52141428D01*
X135358095Y-52331904D01*
X135310476Y-52427142D01*
X135262857Y-52474761D01*
X135167619Y-52522380D01*
X135072380Y-52522380D01*
X134977142Y-52474761D01*
X134929523Y-52427142D01*
X134881904Y-52331904D01*
X134834285Y-52141428D01*
X134834285Y-51903333D01*
X134881904Y-51712857D01*
X134929523Y-51617619D01*
X134977142Y-51570000D01*
X135072380Y-51522380D01*
X135834285Y-51855714D02*
X135834285Y-52522380D01*
X135834285Y-51950952D02*
X135881904Y-51903333D01*
X135977142Y-51855714D01*
X136120000Y-51855714D01*
X136215238Y-51903333D01*
X136262857Y-51998571D01*
X136262857Y-52522380D01*
G04 #@! TO.C,C10*
X156837142Y-75287142D02*
X156789523Y-75334761D01*
X156646666Y-75382380D01*
X156551428Y-75382380D01*
X156408571Y-75334761D01*
X156313333Y-75239523D01*
X156265714Y-75144285D01*
X156218095Y-74953809D01*
X156218095Y-74810952D01*
X156265714Y-74620476D01*
X156313333Y-74525238D01*
X156408571Y-74430000D01*
X156551428Y-74382380D01*
X156646666Y-74382380D01*
X156789523Y-74430000D01*
X156837142Y-74477619D01*
X157789523Y-75382380D02*
X157218095Y-75382380D01*
X157503809Y-75382380D02*
X157503809Y-74382380D01*
X157408571Y-74525238D01*
X157313333Y-74620476D01*
X157218095Y-74668095D01*
X158408571Y-74382380D02*
X158503809Y-74382380D01*
X158599047Y-74430000D01*
X158646666Y-74477619D01*
X158694285Y-74572857D01*
X158741904Y-74763333D01*
X158741904Y-75001428D01*
X158694285Y-75191904D01*
X158646666Y-75287142D01*
X158599047Y-75334761D01*
X158503809Y-75382380D01*
X158408571Y-75382380D01*
X158313333Y-75334761D01*
X158265714Y-75287142D01*
X158218095Y-75191904D01*
X158170476Y-75001428D01*
X158170476Y-74763333D01*
X158218095Y-74572857D01*
X158265714Y-74477619D01*
X158313333Y-74430000D01*
X158408571Y-74382380D01*
X163980952Y-75382380D02*
X163409523Y-75382380D01*
X163695238Y-75382380D02*
X163695238Y-74382380D01*
X163600000Y-74525238D01*
X163504761Y-74620476D01*
X163409523Y-74668095D01*
X164600000Y-74382380D02*
X164695238Y-74382380D01*
X164790476Y-74430000D01*
X164838095Y-74477619D01*
X164885714Y-74572857D01*
X164933333Y-74763333D01*
X164933333Y-75001428D01*
X164885714Y-75191904D01*
X164838095Y-75287142D01*
X164790476Y-75334761D01*
X164695238Y-75382380D01*
X164600000Y-75382380D01*
X164504761Y-75334761D01*
X164457142Y-75287142D01*
X164409523Y-75191904D01*
X164361904Y-75001428D01*
X164361904Y-74763333D01*
X164409523Y-74572857D01*
X164457142Y-74477619D01*
X164504761Y-74430000D01*
X164600000Y-74382380D01*
X165552380Y-74382380D02*
X165647619Y-74382380D01*
X165742857Y-74430000D01*
X165790476Y-74477619D01*
X165838095Y-74572857D01*
X165885714Y-74763333D01*
X165885714Y-75001428D01*
X165838095Y-75191904D01*
X165790476Y-75287142D01*
X165742857Y-75334761D01*
X165647619Y-75382380D01*
X165552380Y-75382380D01*
X165457142Y-75334761D01*
X165409523Y-75287142D01*
X165361904Y-75191904D01*
X165314285Y-75001428D01*
X165314285Y-74763333D01*
X165361904Y-74572857D01*
X165409523Y-74477619D01*
X165457142Y-74430000D01*
X165552380Y-74382380D01*
X166314285Y-74715714D02*
X166314285Y-75382380D01*
X166314285Y-74810952D02*
X166361904Y-74763333D01*
X166457142Y-74715714D01*
X166600000Y-74715714D01*
X166695238Y-74763333D01*
X166742857Y-74858571D01*
X166742857Y-75382380D01*
G04 #@! TO.C,C11*
X113657142Y-82907142D02*
X113609523Y-82954761D01*
X113466666Y-83002380D01*
X113371428Y-83002380D01*
X113228571Y-82954761D01*
X113133333Y-82859523D01*
X113085714Y-82764285D01*
X113038095Y-82573809D01*
X113038095Y-82430952D01*
X113085714Y-82240476D01*
X113133333Y-82145238D01*
X113228571Y-82050000D01*
X113371428Y-82002380D01*
X113466666Y-82002380D01*
X113609523Y-82050000D01*
X113657142Y-82097619D01*
X114609523Y-83002380D02*
X114038095Y-83002380D01*
X114323809Y-83002380D02*
X114323809Y-82002380D01*
X114228571Y-82145238D01*
X114133333Y-82240476D01*
X114038095Y-82288095D01*
X115561904Y-83002380D02*
X114990476Y-83002380D01*
X115276190Y-83002380D02*
X115276190Y-82002380D01*
X115180952Y-82145238D01*
X115085714Y-82240476D01*
X114990476Y-82288095D01*
X120800952Y-83002380D02*
X120229523Y-83002380D01*
X120515238Y-83002380D02*
X120515238Y-82002380D01*
X120420000Y-82145238D01*
X120324761Y-82240476D01*
X120229523Y-82288095D01*
X121420000Y-82002380D02*
X121515238Y-82002380D01*
X121610476Y-82050000D01*
X121658095Y-82097619D01*
X121705714Y-82192857D01*
X121753333Y-82383333D01*
X121753333Y-82621428D01*
X121705714Y-82811904D01*
X121658095Y-82907142D01*
X121610476Y-82954761D01*
X121515238Y-83002380D01*
X121420000Y-83002380D01*
X121324761Y-82954761D01*
X121277142Y-82907142D01*
X121229523Y-82811904D01*
X121181904Y-82621428D01*
X121181904Y-82383333D01*
X121229523Y-82192857D01*
X121277142Y-82097619D01*
X121324761Y-82050000D01*
X121420000Y-82002380D01*
X122372380Y-82002380D02*
X122467619Y-82002380D01*
X122562857Y-82050000D01*
X122610476Y-82097619D01*
X122658095Y-82192857D01*
X122705714Y-82383333D01*
X122705714Y-82621428D01*
X122658095Y-82811904D01*
X122610476Y-82907142D01*
X122562857Y-82954761D01*
X122467619Y-83002380D01*
X122372380Y-83002380D01*
X122277142Y-82954761D01*
X122229523Y-82907142D01*
X122181904Y-82811904D01*
X122134285Y-82621428D01*
X122134285Y-82383333D01*
X122181904Y-82192857D01*
X122229523Y-82097619D01*
X122277142Y-82050000D01*
X122372380Y-82002380D01*
X123134285Y-82335714D02*
X123134285Y-83002380D01*
X123134285Y-82430952D02*
X123181904Y-82383333D01*
X123277142Y-82335714D01*
X123420000Y-82335714D01*
X123515238Y-82383333D01*
X123562857Y-82478571D01*
X123562857Y-83002380D01*
G04 #@! TO.C,C12*
X85447142Y-125102857D02*
X85494761Y-125150476D01*
X85542380Y-125293333D01*
X85542380Y-125388571D01*
X85494761Y-125531428D01*
X85399523Y-125626666D01*
X85304285Y-125674285D01*
X85113809Y-125721904D01*
X84970952Y-125721904D01*
X84780476Y-125674285D01*
X84685238Y-125626666D01*
X84590000Y-125531428D01*
X84542380Y-125388571D01*
X84542380Y-125293333D01*
X84590000Y-125150476D01*
X84637619Y-125102857D01*
X85542380Y-124150476D02*
X85542380Y-124721904D01*
X85542380Y-124436190D02*
X84542380Y-124436190D01*
X84685238Y-124531428D01*
X84780476Y-124626666D01*
X84828095Y-124721904D01*
X84637619Y-123769523D02*
X84590000Y-123721904D01*
X84542380Y-123626666D01*
X84542380Y-123388571D01*
X84590000Y-123293333D01*
X84637619Y-123245714D01*
X84732857Y-123198095D01*
X84828095Y-123198095D01*
X84970952Y-123245714D01*
X85542380Y-123817142D01*
X85542380Y-123198095D01*
X85542380Y-117959047D02*
X85542380Y-118530476D01*
X85542380Y-118244761D02*
X84542380Y-118244761D01*
X84685238Y-118340000D01*
X84780476Y-118435238D01*
X84828095Y-118530476D01*
X84542380Y-117340000D02*
X84542380Y-117244761D01*
X84590000Y-117149523D01*
X84637619Y-117101904D01*
X84732857Y-117054285D01*
X84923333Y-117006666D01*
X85161428Y-117006666D01*
X85351904Y-117054285D01*
X85447142Y-117101904D01*
X85494761Y-117149523D01*
X85542380Y-117244761D01*
X85542380Y-117340000D01*
X85494761Y-117435238D01*
X85447142Y-117482857D01*
X85351904Y-117530476D01*
X85161428Y-117578095D01*
X84923333Y-117578095D01*
X84732857Y-117530476D01*
X84637619Y-117482857D01*
X84590000Y-117435238D01*
X84542380Y-117340000D01*
X84542380Y-116387619D02*
X84542380Y-116292380D01*
X84590000Y-116197142D01*
X84637619Y-116149523D01*
X84732857Y-116101904D01*
X84923333Y-116054285D01*
X85161428Y-116054285D01*
X85351904Y-116101904D01*
X85447142Y-116149523D01*
X85494761Y-116197142D01*
X85542380Y-116292380D01*
X85542380Y-116387619D01*
X85494761Y-116482857D01*
X85447142Y-116530476D01*
X85351904Y-116578095D01*
X85161428Y-116625714D01*
X84923333Y-116625714D01*
X84732857Y-116578095D01*
X84637619Y-116530476D01*
X84590000Y-116482857D01*
X84542380Y-116387619D01*
X84875714Y-115625714D02*
X85542380Y-115625714D01*
X84970952Y-115625714D02*
X84923333Y-115578095D01*
X84875714Y-115482857D01*
X84875714Y-115340000D01*
X84923333Y-115244761D01*
X85018571Y-115197142D01*
X85542380Y-115197142D01*
G04 #@! TO.C,D1*
X98321904Y-94432380D02*
X98321904Y-93432380D01*
X98560000Y-93432380D01*
X98702857Y-93480000D01*
X98798095Y-93575238D01*
X98845714Y-93670476D01*
X98893333Y-93860952D01*
X98893333Y-94003809D01*
X98845714Y-94194285D01*
X98798095Y-94289523D01*
X98702857Y-94384761D01*
X98560000Y-94432380D01*
X98321904Y-94432380D01*
X99845714Y-94432380D02*
X99274285Y-94432380D01*
X99560000Y-94432380D02*
X99560000Y-93432380D01*
X99464761Y-93575238D01*
X99369523Y-93670476D01*
X99274285Y-93718095D01*
X101338095Y-92632380D02*
X101338095Y-91632380D01*
X101909523Y-92632380D02*
X101480952Y-92060952D01*
X101909523Y-91632380D02*
X101338095Y-92203809D01*
G04 #@! TO.C,D2*
X84272380Y-131548095D02*
X83272380Y-131548095D01*
X83272380Y-131310000D01*
X83320000Y-131167142D01*
X83415238Y-131071904D01*
X83510476Y-131024285D01*
X83700952Y-130976666D01*
X83843809Y-130976666D01*
X84034285Y-131024285D01*
X84129523Y-131071904D01*
X84224761Y-131167142D01*
X84272380Y-131310000D01*
X84272380Y-131548095D01*
X83367619Y-130595714D02*
X83320000Y-130548095D01*
X83272380Y-130452857D01*
X83272380Y-130214761D01*
X83320000Y-130119523D01*
X83367619Y-130071904D01*
X83462857Y-130024285D01*
X83558095Y-130024285D01*
X83700952Y-130071904D01*
X84272380Y-130643333D01*
X84272380Y-130024285D01*
X88612380Y-127261904D02*
X87612380Y-127261904D01*
X88612380Y-126690476D02*
X88040952Y-127119047D01*
X87612380Y-126690476D02*
X88183809Y-127261904D01*
G04 #@! TO.C,J2*
X169846666Y-128782380D02*
X169846666Y-129496666D01*
X169799047Y-129639523D01*
X169703809Y-129734761D01*
X169560952Y-129782380D01*
X169465714Y-129782380D01*
X170275238Y-128877619D02*
X170322857Y-128830000D01*
X170418095Y-128782380D01*
X170656190Y-128782380D01*
X170751428Y-128830000D01*
X170799047Y-128877619D01*
X170846666Y-128972857D01*
X170846666Y-129068095D01*
X170799047Y-129210952D01*
X170227619Y-129782380D01*
X170846666Y-129782380D01*
G04 #@! TO.C,J3*
X102536666Y-129202380D02*
X102536666Y-129916666D01*
X102489047Y-130059523D01*
X102393809Y-130154761D01*
X102250952Y-130202380D01*
X102155714Y-130202380D01*
X102917619Y-129202380D02*
X103536666Y-129202380D01*
X103203333Y-129583333D01*
X103346190Y-129583333D01*
X103441428Y-129630952D01*
X103489047Y-129678571D01*
X103536666Y-129773809D01*
X103536666Y-130011904D01*
X103489047Y-130107142D01*
X103441428Y-130154761D01*
X103346190Y-130202380D01*
X103060476Y-130202380D01*
X102965238Y-130154761D01*
X102917619Y-130107142D01*
X101893809Y-139942380D02*
X101893809Y-138942380D01*
X102322380Y-139894761D02*
X102465238Y-139942380D01*
X102703333Y-139942380D01*
X102798571Y-139894761D01*
X102846190Y-139847142D01*
X102893809Y-139751904D01*
X102893809Y-139656666D01*
X102846190Y-139561428D01*
X102798571Y-139513809D01*
X102703333Y-139466190D01*
X102512857Y-139418571D01*
X102417619Y-139370952D01*
X102370000Y-139323333D01*
X102322380Y-139228095D01*
X102322380Y-139132857D01*
X102370000Y-139037619D01*
X102417619Y-138990000D01*
X102512857Y-138942380D01*
X102750952Y-138942380D01*
X102893809Y-138990000D01*
X103322380Y-139942380D02*
X103322380Y-138942380D01*
X103703333Y-138942380D01*
X103798571Y-138990000D01*
X103846190Y-139037619D01*
X103893809Y-139132857D01*
X103893809Y-139275714D01*
X103846190Y-139370952D01*
X103798571Y-139418571D01*
X103703333Y-139466190D01*
X103322380Y-139466190D01*
G04 #@! TO.C,J4*
X80946666Y-111212380D02*
X80946666Y-111926666D01*
X80899047Y-112069523D01*
X80803809Y-112164761D01*
X80660952Y-112212380D01*
X80565714Y-112212380D01*
X81851428Y-111545714D02*
X81851428Y-112212380D01*
X81613333Y-111164761D02*
X81375238Y-111879047D01*
X81994285Y-111879047D01*
X79684761Y-101262380D02*
X79684761Y-102071904D01*
X79732380Y-102167142D01*
X79780000Y-102214761D01*
X79875238Y-102262380D01*
X80065714Y-102262380D01*
X80160952Y-102214761D01*
X80208571Y-102167142D01*
X80256190Y-102071904D01*
X80256190Y-101262380D01*
X80684761Y-101976666D02*
X81160952Y-101976666D01*
X80589523Y-102262380D02*
X80922857Y-101262380D01*
X81256190Y-102262380D01*
X82160952Y-102262380D02*
X81827619Y-101786190D01*
X81589523Y-102262380D02*
X81589523Y-101262380D01*
X81970476Y-101262380D01*
X82065714Y-101310000D01*
X82113333Y-101357619D01*
X82160952Y-101452857D01*
X82160952Y-101595714D01*
X82113333Y-101690952D01*
X82065714Y-101738571D01*
X81970476Y-101786190D01*
X81589523Y-101786190D01*
X82446666Y-101262380D02*
X83018095Y-101262380D01*
X82732380Y-102262380D02*
X82732380Y-101262380D01*
G04 #@! TO.C,J7*
X126666666Y-128782380D02*
X126666666Y-129496666D01*
X126619047Y-129639523D01*
X126523809Y-129734761D01*
X126380952Y-129782380D01*
X126285714Y-129782380D01*
X127047619Y-128782380D02*
X127714285Y-128782380D01*
X127285714Y-129782380D01*
G04 #@! TO.C,RN1*
X134932380Y-118800476D02*
X134456190Y-119133809D01*
X134932380Y-119371904D02*
X133932380Y-119371904D01*
X133932380Y-118990952D01*
X133980000Y-118895714D01*
X134027619Y-118848095D01*
X134122857Y-118800476D01*
X134265714Y-118800476D01*
X134360952Y-118848095D01*
X134408571Y-118895714D01*
X134456190Y-118990952D01*
X134456190Y-119371904D01*
X134932380Y-118371904D02*
X133932380Y-118371904D01*
X134932380Y-117800476D01*
X133932380Y-117800476D01*
X134932380Y-116800476D02*
X134932380Y-117371904D01*
X134932380Y-117086190D02*
X133932380Y-117086190D01*
X134075238Y-117181428D01*
X134170476Y-117276666D01*
X134218095Y-117371904D01*
G04 #@! TO.C,U3*
X126238095Y-131532380D02*
X126238095Y-132341904D01*
X126285714Y-132437142D01*
X126333333Y-132484761D01*
X126428571Y-132532380D01*
X126619047Y-132532380D01*
X126714285Y-132484761D01*
X126761904Y-132437142D01*
X126809523Y-132341904D01*
X126809523Y-131532380D01*
X127190476Y-131532380D02*
X127809523Y-131532380D01*
X127476190Y-131913333D01*
X127619047Y-131913333D01*
X127714285Y-131960952D01*
X127761904Y-132008571D01*
X127809523Y-132103809D01*
X127809523Y-132341904D01*
X127761904Y-132437142D01*
X127714285Y-132484761D01*
X127619047Y-132532380D01*
X127333333Y-132532380D01*
X127238095Y-132484761D01*
X127190476Y-132437142D01*
X132802380Y-142485714D02*
X132802380Y-141819047D01*
X133802380Y-142247619D01*
X133135714Y-141009523D02*
X133802380Y-141009523D01*
X132754761Y-141247619D02*
X133469047Y-141485714D01*
X133469047Y-140866666D01*
X133802380Y-140485714D02*
X132802380Y-140485714D01*
X133278571Y-140485714D02*
X133278571Y-139914285D01*
X133802380Y-139914285D02*
X132802380Y-139914285D01*
X133707142Y-138866666D02*
X133754761Y-138914285D01*
X133802380Y-139057142D01*
X133802380Y-139152380D01*
X133754761Y-139295238D01*
X133659523Y-139390476D01*
X133564285Y-139438095D01*
X133373809Y-139485714D01*
X133230952Y-139485714D01*
X133040476Y-139438095D01*
X132945238Y-139390476D01*
X132850000Y-139295238D01*
X132802380Y-139152380D01*
X132802380Y-139057142D01*
X132850000Y-138914285D01*
X132897619Y-138866666D01*
X132802380Y-138533333D02*
X132802380Y-137866666D01*
X133802380Y-138295238D01*
X133135714Y-137057142D02*
X133802380Y-137057142D01*
X132754761Y-137295238D02*
X133469047Y-137533333D01*
X133469047Y-136914285D01*
G04 #@! TO.C,U5*
X98298095Y-55332380D02*
X98298095Y-56141904D01*
X98345714Y-56237142D01*
X98393333Y-56284761D01*
X98488571Y-56332380D01*
X98679047Y-56332380D01*
X98774285Y-56284761D01*
X98821904Y-56237142D01*
X98869523Y-56141904D01*
X98869523Y-55332380D01*
X99821904Y-55332380D02*
X99345714Y-55332380D01*
X99298095Y-55808571D01*
X99345714Y-55760952D01*
X99440952Y-55713333D01*
X99679047Y-55713333D01*
X99774285Y-55760952D01*
X99821904Y-55808571D01*
X99869523Y-55903809D01*
X99869523Y-56141904D01*
X99821904Y-56237142D01*
X99774285Y-56284761D01*
X99679047Y-56332380D01*
X99440952Y-56332380D01*
X99345714Y-56284761D01*
X99298095Y-56237142D01*
X104862380Y-68031904D02*
X104862380Y-67365238D01*
X105862380Y-67793809D01*
X105195714Y-66555714D02*
X105862380Y-66555714D01*
X104814761Y-66793809D02*
X105529047Y-67031904D01*
X105529047Y-66412857D01*
X105862380Y-66031904D02*
X104862380Y-66031904D01*
X105338571Y-66031904D02*
X105338571Y-65460476D01*
X105862380Y-65460476D02*
X104862380Y-65460476D01*
X105767142Y-64412857D02*
X105814761Y-64460476D01*
X105862380Y-64603333D01*
X105862380Y-64698571D01*
X105814761Y-64841428D01*
X105719523Y-64936666D01*
X105624285Y-64984285D01*
X105433809Y-65031904D01*
X105290952Y-65031904D01*
X105100476Y-64984285D01*
X105005238Y-64936666D01*
X104910000Y-64841428D01*
X104862380Y-64698571D01*
X104862380Y-64603333D01*
X104910000Y-64460476D01*
X104957619Y-64412857D01*
X105862380Y-63460476D02*
X105862380Y-64031904D01*
X105862380Y-63746190D02*
X104862380Y-63746190D01*
X105005238Y-63841428D01*
X105100476Y-63936666D01*
X105148095Y-64031904D01*
X104862380Y-63127142D02*
X104862380Y-62508095D01*
X105243333Y-62841428D01*
X105243333Y-62698571D01*
X105290952Y-62603333D01*
X105338571Y-62555714D01*
X105433809Y-62508095D01*
X105671904Y-62508095D01*
X105767142Y-62555714D01*
X105814761Y-62603333D01*
X105862380Y-62698571D01*
X105862380Y-62984285D01*
X105814761Y-63079523D01*
X105767142Y-63127142D01*
X105290952Y-61936666D02*
X105243333Y-62031904D01*
X105195714Y-62079523D01*
X105100476Y-62127142D01*
X105052857Y-62127142D01*
X104957619Y-62079523D01*
X104910000Y-62031904D01*
X104862380Y-61936666D01*
X104862380Y-61746190D01*
X104910000Y-61650952D01*
X104957619Y-61603333D01*
X105052857Y-61555714D01*
X105100476Y-61555714D01*
X105195714Y-61603333D01*
X105243333Y-61650952D01*
X105290952Y-61746190D01*
X105290952Y-61936666D01*
X105338571Y-62031904D01*
X105386190Y-62079523D01*
X105481428Y-62127142D01*
X105671904Y-62127142D01*
X105767142Y-62079523D01*
X105814761Y-62031904D01*
X105862380Y-61936666D01*
X105862380Y-61746190D01*
X105814761Y-61650952D01*
X105767142Y-61603333D01*
X105671904Y-61555714D01*
X105481428Y-61555714D01*
X105386190Y-61603333D01*
X105338571Y-61650952D01*
X105290952Y-61746190D01*
G04 #@! TO.C,U8*
X151638095Y-55332380D02*
X151638095Y-56141904D01*
X151685714Y-56237142D01*
X151733333Y-56284761D01*
X151828571Y-56332380D01*
X152019047Y-56332380D01*
X152114285Y-56284761D01*
X152161904Y-56237142D01*
X152209523Y-56141904D01*
X152209523Y-55332380D01*
X152828571Y-55760952D02*
X152733333Y-55713333D01*
X152685714Y-55665714D01*
X152638095Y-55570476D01*
X152638095Y-55522857D01*
X152685714Y-55427619D01*
X152733333Y-55380000D01*
X152828571Y-55332380D01*
X153019047Y-55332380D01*
X153114285Y-55380000D01*
X153161904Y-55427619D01*
X153209523Y-55522857D01*
X153209523Y-55570476D01*
X153161904Y-55665714D01*
X153114285Y-55713333D01*
X153019047Y-55760952D01*
X152828571Y-55760952D01*
X152733333Y-55808571D01*
X152685714Y-55856190D01*
X152638095Y-55951428D01*
X152638095Y-56141904D01*
X152685714Y-56237142D01*
X152733333Y-56284761D01*
X152828571Y-56332380D01*
X153019047Y-56332380D01*
X153114285Y-56284761D01*
X153161904Y-56237142D01*
X153209523Y-56141904D01*
X153209523Y-55951428D01*
X153161904Y-55856190D01*
X153114285Y-55808571D01*
X153019047Y-55760952D01*
X158202380Y-66285714D02*
X158202380Y-65619047D01*
X159202380Y-66047619D01*
X158535714Y-64809523D02*
X159202380Y-64809523D01*
X158154761Y-65047619D02*
X158869047Y-65285714D01*
X158869047Y-64666666D01*
X159202380Y-64285714D02*
X158202380Y-64285714D01*
X158678571Y-64285714D02*
X158678571Y-63714285D01*
X159202380Y-63714285D02*
X158202380Y-63714285D01*
X159107142Y-62666666D02*
X159154761Y-62714285D01*
X159202380Y-62857142D01*
X159202380Y-62952380D01*
X159154761Y-63095238D01*
X159059523Y-63190476D01*
X158964285Y-63238095D01*
X158773809Y-63285714D01*
X158630952Y-63285714D01*
X158440476Y-63238095D01*
X158345238Y-63190476D01*
X158250000Y-63095238D01*
X158202380Y-62952380D01*
X158202380Y-62857142D01*
X158250000Y-62714285D01*
X158297619Y-62666666D01*
X158202380Y-62333333D02*
X158202380Y-61714285D01*
X158583333Y-62047619D01*
X158583333Y-61904761D01*
X158630952Y-61809523D01*
X158678571Y-61761904D01*
X158773809Y-61714285D01*
X159011904Y-61714285D01*
X159107142Y-61761904D01*
X159154761Y-61809523D01*
X159202380Y-61904761D01*
X159202380Y-62190476D01*
X159154761Y-62285714D01*
X159107142Y-62333333D01*
X158297619Y-61333333D02*
X158250000Y-61285714D01*
X158202380Y-61190476D01*
X158202380Y-60952380D01*
X158250000Y-60857142D01*
X158297619Y-60809523D01*
X158392857Y-60761904D01*
X158488095Y-60761904D01*
X158630952Y-60809523D01*
X159202380Y-61380952D01*
X159202380Y-60761904D01*
G04 #@! TO.C,U9*
X141478095Y-131532380D02*
X141478095Y-132341904D01*
X141525714Y-132437142D01*
X141573333Y-132484761D01*
X141668571Y-132532380D01*
X141859047Y-132532380D01*
X141954285Y-132484761D01*
X142001904Y-132437142D01*
X142049523Y-132341904D01*
X142049523Y-131532380D01*
X142573333Y-132532380D02*
X142763809Y-132532380D01*
X142859047Y-132484761D01*
X142906666Y-132437142D01*
X143001904Y-132294285D01*
X143049523Y-132103809D01*
X143049523Y-131722857D01*
X143001904Y-131627619D01*
X142954285Y-131580000D01*
X142859047Y-131532380D01*
X142668571Y-131532380D01*
X142573333Y-131580000D01*
X142525714Y-131627619D01*
X142478095Y-131722857D01*
X142478095Y-131960952D01*
X142525714Y-132056190D01*
X142573333Y-132103809D01*
X142668571Y-132151428D01*
X142859047Y-132151428D01*
X142954285Y-132103809D01*
X143001904Y-132056190D01*
X143049523Y-131960952D01*
X148042380Y-142485714D02*
X148042380Y-141819047D01*
X149042380Y-142247619D01*
X148375714Y-141009523D02*
X149042380Y-141009523D01*
X147994761Y-141247619D02*
X148709047Y-141485714D01*
X148709047Y-140866666D01*
X149042380Y-140485714D02*
X148042380Y-140485714D01*
X148518571Y-140485714D02*
X148518571Y-139914285D01*
X149042380Y-139914285D02*
X148042380Y-139914285D01*
X148947142Y-138866666D02*
X148994761Y-138914285D01*
X149042380Y-139057142D01*
X149042380Y-139152380D01*
X148994761Y-139295238D01*
X148899523Y-139390476D01*
X148804285Y-139438095D01*
X148613809Y-139485714D01*
X148470952Y-139485714D01*
X148280476Y-139438095D01*
X148185238Y-139390476D01*
X148090000Y-139295238D01*
X148042380Y-139152380D01*
X148042380Y-139057142D01*
X148090000Y-138914285D01*
X148137619Y-138866666D01*
X148042380Y-138533333D02*
X148042380Y-137866666D01*
X149042380Y-138295238D01*
X148375714Y-137057142D02*
X149042380Y-137057142D01*
X147994761Y-137295238D02*
X148709047Y-137533333D01*
X148709047Y-136914285D01*
G04 #@! TO.C,U11*
X111791904Y-83482380D02*
X111791904Y-84291904D01*
X111839523Y-84387142D01*
X111887142Y-84434761D01*
X111982380Y-84482380D01*
X112172857Y-84482380D01*
X112268095Y-84434761D01*
X112315714Y-84387142D01*
X112363333Y-84291904D01*
X112363333Y-83482380D01*
X113363333Y-84482380D02*
X112791904Y-84482380D01*
X113077619Y-84482380D02*
X113077619Y-83482380D01*
X112982380Y-83625238D01*
X112887142Y-83720476D01*
X112791904Y-83768095D01*
X114315714Y-84482380D02*
X113744285Y-84482380D01*
X114030000Y-84482380D02*
X114030000Y-83482380D01*
X113934761Y-83625238D01*
X113839523Y-83720476D01*
X113744285Y-83768095D01*
X117562380Y-101845714D02*
X117562380Y-101179047D01*
X118562380Y-101607619D01*
X117895714Y-100369523D02*
X118562380Y-100369523D01*
X117514761Y-100607619D02*
X118229047Y-100845714D01*
X118229047Y-100226666D01*
X118562380Y-99845714D02*
X117562380Y-99845714D01*
X118038571Y-99845714D02*
X118038571Y-99274285D01*
X118562380Y-99274285D02*
X117562380Y-99274285D01*
X118467142Y-98226666D02*
X118514761Y-98274285D01*
X118562380Y-98417142D01*
X118562380Y-98512380D01*
X118514761Y-98655238D01*
X118419523Y-98750476D01*
X118324285Y-98798095D01*
X118133809Y-98845714D01*
X117990952Y-98845714D01*
X117800476Y-98798095D01*
X117705238Y-98750476D01*
X117610000Y-98655238D01*
X117562380Y-98512380D01*
X117562380Y-98417142D01*
X117610000Y-98274285D01*
X117657619Y-98226666D01*
X117562380Y-97607619D02*
X117562380Y-97512380D01*
X117610000Y-97417142D01*
X117657619Y-97369523D01*
X117752857Y-97321904D01*
X117943333Y-97274285D01*
X118181428Y-97274285D01*
X118371904Y-97321904D01*
X118467142Y-97369523D01*
X118514761Y-97417142D01*
X118562380Y-97512380D01*
X118562380Y-97607619D01*
X118514761Y-97702857D01*
X118467142Y-97750476D01*
X118371904Y-97798095D01*
X118181428Y-97845714D01*
X117943333Y-97845714D01*
X117752857Y-97798095D01*
X117657619Y-97750476D01*
X117610000Y-97702857D01*
X117562380Y-97607619D01*
X117895714Y-96417142D02*
X118562380Y-96417142D01*
X117514761Y-96655238D02*
X118229047Y-96893333D01*
X118229047Y-96274285D01*
G04 #@! TO.C,X1*
X98250476Y-74382380D02*
X98917142Y-75382380D01*
X98917142Y-74382380D02*
X98250476Y-75382380D01*
X99821904Y-75382380D02*
X99250476Y-75382380D01*
X99536190Y-75382380D02*
X99536190Y-74382380D01*
X99440952Y-74525238D01*
X99345714Y-74620476D01*
X99250476Y-74668095D01*
X102648095Y-84637619D02*
X102695714Y-84590000D01*
X102790952Y-84542380D01*
X103029047Y-84542380D01*
X103124285Y-84590000D01*
X103171904Y-84637619D01*
X103219523Y-84732857D01*
X103219523Y-84828095D01*
X103171904Y-84970952D01*
X102600476Y-85542380D01*
X103219523Y-85542380D01*
X104124285Y-84542380D02*
X103648095Y-84542380D01*
X103600476Y-85018571D01*
X103648095Y-84970952D01*
X103743333Y-84923333D01*
X103981428Y-84923333D01*
X104076666Y-84970952D01*
X104124285Y-85018571D01*
X104171904Y-85113809D01*
X104171904Y-85351904D01*
X104124285Y-85447142D01*
X104076666Y-85494761D01*
X103981428Y-85542380D01*
X103743333Y-85542380D01*
X103648095Y-85494761D01*
X103600476Y-85447142D01*
X104600476Y-85542380D02*
X104600476Y-84542380D01*
X104933809Y-85256666D01*
X105267142Y-84542380D01*
X105267142Y-85542380D01*
X106267142Y-85542380D02*
X105695714Y-85542380D01*
X105981428Y-85542380D02*
X105981428Y-84542380D01*
X105886190Y-84685238D01*
X105790952Y-84780476D01*
X105695714Y-84828095D01*
X106600476Y-84542380D02*
X107267142Y-84542380D01*
X106838571Y-85542380D01*
X108124285Y-84542380D02*
X107648095Y-84542380D01*
X107600476Y-85018571D01*
X107648095Y-84970952D01*
X107743333Y-84923333D01*
X107981428Y-84923333D01*
X108076666Y-84970952D01*
X108124285Y-85018571D01*
X108171904Y-85113809D01*
X108171904Y-85351904D01*
X108124285Y-85447142D01*
X108076666Y-85494761D01*
X107981428Y-85542380D01*
X107743333Y-85542380D01*
X107648095Y-85494761D01*
X107600476Y-85447142D01*
G04 #@! TO.C,J1*
X86022380Y-143843333D02*
X86736666Y-143843333D01*
X86879523Y-143890952D01*
X86974761Y-143986190D01*
X87022380Y-144129047D01*
X87022380Y-144224285D01*
X87022380Y-142843333D02*
X87022380Y-143414761D01*
X87022380Y-143129047D02*
X86022380Y-143129047D01*
X86165238Y-143224285D01*
X86260476Y-143319523D01*
X86308095Y-143414761D01*
X99302380Y-146700476D02*
X98302380Y-146700476D01*
X99302380Y-146129047D02*
X98730952Y-146557619D01*
X98302380Y-146129047D02*
X98873809Y-146700476D01*
X99254761Y-145319523D02*
X99302380Y-145414761D01*
X99302380Y-145605238D01*
X99254761Y-145700476D01*
X99159523Y-145748095D01*
X98778571Y-145748095D01*
X98683333Y-145700476D01*
X98635714Y-145605238D01*
X98635714Y-145414761D01*
X98683333Y-145319523D01*
X98778571Y-145271904D01*
X98873809Y-145271904D01*
X98969047Y-145748095D01*
X98635714Y-144938571D02*
X99302380Y-144700476D01*
X98635714Y-144462380D02*
X99302380Y-144700476D01*
X99540476Y-144795714D01*
X99588095Y-144843333D01*
X99635714Y-144938571D01*
X99302380Y-144081428D02*
X98302380Y-144081428D01*
X98683333Y-144081428D02*
X98635714Y-143986190D01*
X98635714Y-143795714D01*
X98683333Y-143700476D01*
X98730952Y-143652857D01*
X98826190Y-143605238D01*
X99111904Y-143605238D01*
X99207142Y-143652857D01*
X99254761Y-143700476D01*
X99302380Y-143795714D01*
X99302380Y-143986190D01*
X99254761Y-144081428D01*
X99302380Y-143033809D02*
X99254761Y-143129047D01*
X99207142Y-143176666D01*
X99111904Y-143224285D01*
X98826190Y-143224285D01*
X98730952Y-143176666D01*
X98683333Y-143129047D01*
X98635714Y-143033809D01*
X98635714Y-142890952D01*
X98683333Y-142795714D01*
X98730952Y-142748095D01*
X98826190Y-142700476D01*
X99111904Y-142700476D01*
X99207142Y-142748095D01*
X99254761Y-142795714D01*
X99302380Y-142890952D01*
X99302380Y-143033809D01*
X99302380Y-141843333D02*
X98778571Y-141843333D01*
X98683333Y-141890952D01*
X98635714Y-141986190D01*
X98635714Y-142176666D01*
X98683333Y-142271904D01*
X99254761Y-141843333D02*
X99302380Y-141938571D01*
X99302380Y-142176666D01*
X99254761Y-142271904D01*
X99159523Y-142319523D01*
X99064285Y-142319523D01*
X98969047Y-142271904D01*
X98921428Y-142176666D01*
X98921428Y-141938571D01*
X98873809Y-141843333D01*
X99302380Y-141367142D02*
X98635714Y-141367142D01*
X98826190Y-141367142D02*
X98730952Y-141319523D01*
X98683333Y-141271904D01*
X98635714Y-141176666D01*
X98635714Y-141081428D01*
X99302380Y-140319523D02*
X98302380Y-140319523D01*
X99254761Y-140319523D02*
X99302380Y-140414761D01*
X99302380Y-140605238D01*
X99254761Y-140700476D01*
X99207142Y-140748095D01*
X99111904Y-140795714D01*
X98826190Y-140795714D01*
X98730952Y-140748095D01*
X98683333Y-140700476D01*
X98635714Y-140605238D01*
X98635714Y-140414761D01*
X98683333Y-140319523D01*
G04 #@! TO.C,R1*
X98893333Y-91892380D02*
X98560000Y-91416190D01*
X98321904Y-91892380D02*
X98321904Y-90892380D01*
X98702857Y-90892380D01*
X98798095Y-90940000D01*
X98845714Y-90987619D01*
X98893333Y-91082857D01*
X98893333Y-91225714D01*
X98845714Y-91320952D01*
X98798095Y-91368571D01*
X98702857Y-91416190D01*
X98321904Y-91416190D01*
X99845714Y-91892380D02*
X99274285Y-91892380D01*
X99560000Y-91892380D02*
X99560000Y-90892380D01*
X99464761Y-91035238D01*
X99369523Y-91130476D01*
X99274285Y-91178095D01*
G04 #@! TO.C,R2*
X84272380Y-100496666D02*
X83796190Y-100830000D01*
X84272380Y-101068095D02*
X83272380Y-101068095D01*
X83272380Y-100687142D01*
X83320000Y-100591904D01*
X83367619Y-100544285D01*
X83462857Y-100496666D01*
X83605714Y-100496666D01*
X83700952Y-100544285D01*
X83748571Y-100591904D01*
X83796190Y-100687142D01*
X83796190Y-101068095D01*
X83367619Y-100115714D02*
X83320000Y-100068095D01*
X83272380Y-99972857D01*
X83272380Y-99734761D01*
X83320000Y-99639523D01*
X83367619Y-99591904D01*
X83462857Y-99544285D01*
X83558095Y-99544285D01*
X83700952Y-99591904D01*
X84272380Y-100163333D01*
X84272380Y-99544285D01*
G04 #@! TO.C,R3*
X98893333Y-96972380D02*
X98560000Y-96496190D01*
X98321904Y-96972380D02*
X98321904Y-95972380D01*
X98702857Y-95972380D01*
X98798095Y-96020000D01*
X98845714Y-96067619D01*
X98893333Y-96162857D01*
X98893333Y-96305714D01*
X98845714Y-96400952D01*
X98798095Y-96448571D01*
X98702857Y-96496190D01*
X98321904Y-96496190D01*
X99226666Y-95972380D02*
X99845714Y-95972380D01*
X99512380Y-96353333D01*
X99655238Y-96353333D01*
X99750476Y-96400952D01*
X99798095Y-96448571D01*
X99845714Y-96543809D01*
X99845714Y-96781904D01*
X99798095Y-96877142D01*
X99750476Y-96924761D01*
X99655238Y-96972380D01*
X99369523Y-96972380D01*
X99274285Y-96924761D01*
X99226666Y-96877142D01*
G04 #@! TO.C,R4*
X119832380Y-139866666D02*
X119356190Y-140200000D01*
X119832380Y-140438095D02*
X118832380Y-140438095D01*
X118832380Y-140057142D01*
X118880000Y-139961904D01*
X118927619Y-139914285D01*
X119022857Y-139866666D01*
X119165714Y-139866666D01*
X119260952Y-139914285D01*
X119308571Y-139961904D01*
X119356190Y-140057142D01*
X119356190Y-140438095D01*
X119165714Y-139009523D02*
X119832380Y-139009523D01*
X118784761Y-139247619D02*
X119499047Y-139485714D01*
X119499047Y-138866666D01*
X119165714Y-134111904D02*
X119832380Y-134111904D01*
X118784761Y-134350000D02*
X119499047Y-134588095D01*
X119499047Y-133969047D01*
X118832380Y-133683333D02*
X118832380Y-133016666D01*
X119832380Y-133445238D01*
X118832380Y-132445238D02*
X118832380Y-132350000D01*
X118880000Y-132254761D01*
X118927619Y-132207142D01*
X119022857Y-132159523D01*
X119213333Y-132111904D01*
X119451428Y-132111904D01*
X119641904Y-132159523D01*
X119737142Y-132207142D01*
X119784761Y-132254761D01*
X119832380Y-132350000D01*
X119832380Y-132445238D01*
X119784761Y-132540476D01*
X119737142Y-132588095D01*
X119641904Y-132635714D01*
X119451428Y-132683333D01*
X119213333Y-132683333D01*
X119022857Y-132635714D01*
X118927619Y-132588095D01*
X118880000Y-132540476D01*
X118832380Y-132445238D01*
G04 #@! TO.C,R5*
X114752380Y-139866666D02*
X114276190Y-140200000D01*
X114752380Y-140438095D02*
X113752380Y-140438095D01*
X113752380Y-140057142D01*
X113800000Y-139961904D01*
X113847619Y-139914285D01*
X113942857Y-139866666D01*
X114085714Y-139866666D01*
X114180952Y-139914285D01*
X114228571Y-139961904D01*
X114276190Y-140057142D01*
X114276190Y-140438095D01*
X113752380Y-138961904D02*
X113752380Y-139438095D01*
X114228571Y-139485714D01*
X114180952Y-139438095D01*
X114133333Y-139342857D01*
X114133333Y-139104761D01*
X114180952Y-139009523D01*
X114228571Y-138961904D01*
X114323809Y-138914285D01*
X114561904Y-138914285D01*
X114657142Y-138961904D01*
X114704761Y-139009523D01*
X114752380Y-139104761D01*
X114752380Y-139342857D01*
X114704761Y-139438095D01*
X114657142Y-139485714D01*
X114085714Y-134111904D02*
X114752380Y-134111904D01*
X113704761Y-134350000D02*
X114419047Y-134588095D01*
X114419047Y-133969047D01*
X113752380Y-133683333D02*
X113752380Y-133016666D01*
X114752380Y-133445238D01*
X113752380Y-132445238D02*
X113752380Y-132350000D01*
X113800000Y-132254761D01*
X113847619Y-132207142D01*
X113942857Y-132159523D01*
X114133333Y-132111904D01*
X114371428Y-132111904D01*
X114561904Y-132159523D01*
X114657142Y-132207142D01*
X114704761Y-132254761D01*
X114752380Y-132350000D01*
X114752380Y-132445238D01*
X114704761Y-132540476D01*
X114657142Y-132588095D01*
X114561904Y-132635714D01*
X114371428Y-132683333D01*
X114133333Y-132683333D01*
X113942857Y-132635714D01*
X113847619Y-132588095D01*
X113800000Y-132540476D01*
X113752380Y-132445238D01*
G04 #@! TO.C,R6*
X109672380Y-139866666D02*
X109196190Y-140200000D01*
X109672380Y-140438095D02*
X108672380Y-140438095D01*
X108672380Y-140057142D01*
X108720000Y-139961904D01*
X108767619Y-139914285D01*
X108862857Y-139866666D01*
X109005714Y-139866666D01*
X109100952Y-139914285D01*
X109148571Y-139961904D01*
X109196190Y-140057142D01*
X109196190Y-140438095D01*
X108672380Y-139009523D02*
X108672380Y-139200000D01*
X108720000Y-139295238D01*
X108767619Y-139342857D01*
X108910476Y-139438095D01*
X109100952Y-139485714D01*
X109481904Y-139485714D01*
X109577142Y-139438095D01*
X109624761Y-139390476D01*
X109672380Y-139295238D01*
X109672380Y-139104761D01*
X109624761Y-139009523D01*
X109577142Y-138961904D01*
X109481904Y-138914285D01*
X109243809Y-138914285D01*
X109148571Y-138961904D01*
X109100952Y-139009523D01*
X109053333Y-139104761D01*
X109053333Y-139295238D01*
X109100952Y-139390476D01*
X109148571Y-139438095D01*
X109243809Y-139485714D01*
X109005714Y-134111904D02*
X109672380Y-134111904D01*
X108624761Y-134350000D02*
X109339047Y-134588095D01*
X109339047Y-133969047D01*
X108672380Y-133683333D02*
X108672380Y-133016666D01*
X109672380Y-133445238D01*
X108672380Y-132445238D02*
X108672380Y-132350000D01*
X108720000Y-132254761D01*
X108767619Y-132207142D01*
X108862857Y-132159523D01*
X109053333Y-132111904D01*
X109291428Y-132111904D01*
X109481904Y-132159523D01*
X109577142Y-132207142D01*
X109624761Y-132254761D01*
X109672380Y-132350000D01*
X109672380Y-132445238D01*
X109624761Y-132540476D01*
X109577142Y-132588095D01*
X109481904Y-132635714D01*
X109291428Y-132683333D01*
X109053333Y-132683333D01*
X108862857Y-132635714D01*
X108767619Y-132588095D01*
X108720000Y-132540476D01*
X108672380Y-132445238D01*
G04 #@! TO.C,J5*
X169846666Y-98302380D02*
X169846666Y-99016666D01*
X169799047Y-99159523D01*
X169703809Y-99254761D01*
X169560952Y-99302380D01*
X169465714Y-99302380D01*
X170799047Y-98302380D02*
X170322857Y-98302380D01*
X170275238Y-98778571D01*
X170322857Y-98730952D01*
X170418095Y-98683333D01*
X170656190Y-98683333D01*
X170751428Y-98730952D01*
X170799047Y-98778571D01*
X170846666Y-98873809D01*
X170846666Y-99111904D01*
X170799047Y-99207142D01*
X170751428Y-99254761D01*
X170656190Y-99302380D01*
X170418095Y-99302380D01*
X170322857Y-99254761D01*
X170275238Y-99207142D01*
G04 #@! TO.C,J6*
X126666666Y-98302380D02*
X126666666Y-99016666D01*
X126619047Y-99159523D01*
X126523809Y-99254761D01*
X126380952Y-99302380D01*
X126285714Y-99302380D01*
X127571428Y-98302380D02*
X127380952Y-98302380D01*
X127285714Y-98350000D01*
X127238095Y-98397619D01*
X127142857Y-98540476D01*
X127095238Y-98730952D01*
X127095238Y-99111904D01*
X127142857Y-99207142D01*
X127190476Y-99254761D01*
X127285714Y-99302380D01*
X127476190Y-99302380D01*
X127571428Y-99254761D01*
X127619047Y-99207142D01*
X127666666Y-99111904D01*
X127666666Y-98873809D01*
X127619047Y-98778571D01*
X127571428Y-98730952D01*
X127476190Y-98683333D01*
X127285714Y-98683333D01*
X127190476Y-98730952D01*
X127142857Y-98778571D01*
X127095238Y-98873809D01*
G04 #@! TO.C,J8*
X124142380Y-145113333D02*
X124856666Y-145113333D01*
X124999523Y-145160952D01*
X125094761Y-145256190D01*
X125142380Y-145399047D01*
X125142380Y-145494285D01*
X124570952Y-144494285D02*
X124523333Y-144589523D01*
X124475714Y-144637142D01*
X124380476Y-144684761D01*
X124332857Y-144684761D01*
X124237619Y-144637142D01*
X124190000Y-144589523D01*
X124142380Y-144494285D01*
X124142380Y-144303809D01*
X124190000Y-144208571D01*
X124237619Y-144160952D01*
X124332857Y-144113333D01*
X124380476Y-144113333D01*
X124475714Y-144160952D01*
X124523333Y-144208571D01*
X124570952Y-144303809D01*
X124570952Y-144494285D01*
X124618571Y-144589523D01*
X124666190Y-144637142D01*
X124761428Y-144684761D01*
X124951904Y-144684761D01*
X125047142Y-144637142D01*
X125094761Y-144589523D01*
X125142380Y-144494285D01*
X125142380Y-144303809D01*
X125094761Y-144208571D01*
X125047142Y-144160952D01*
X124951904Y-144113333D01*
X124761428Y-144113333D01*
X124666190Y-144160952D01*
X124618571Y-144208571D01*
X124570952Y-144303809D01*
X100822380Y-146041904D02*
X101822380Y-145708571D01*
X100822380Y-145375238D01*
X100870000Y-144518095D02*
X100822380Y-144613333D01*
X100822380Y-144756190D01*
X100870000Y-144899047D01*
X100965238Y-144994285D01*
X101060476Y-145041904D01*
X101250952Y-145089523D01*
X101393809Y-145089523D01*
X101584285Y-145041904D01*
X101679523Y-144994285D01*
X101774761Y-144899047D01*
X101822380Y-144756190D01*
X101822380Y-144660952D01*
X101774761Y-144518095D01*
X101727142Y-144470476D01*
X101393809Y-144470476D01*
X101393809Y-144660952D01*
X101536666Y-144089523D02*
X101536666Y-143613333D01*
X101822380Y-144184761D02*
X100822380Y-143851428D01*
X101822380Y-143518095D01*
G04 #@! TO.C,D3*
X80541904Y-124912380D02*
X80541904Y-123912380D01*
X80780000Y-123912380D01*
X80922857Y-123960000D01*
X81018095Y-124055238D01*
X81065714Y-124150476D01*
X81113333Y-124340952D01*
X81113333Y-124483809D01*
X81065714Y-124674285D01*
X81018095Y-124769523D01*
X80922857Y-124864761D01*
X80780000Y-124912380D01*
X80541904Y-124912380D01*
X81446666Y-123912380D02*
X82065714Y-123912380D01*
X81732380Y-124293333D01*
X81875238Y-124293333D01*
X81970476Y-124340952D01*
X82018095Y-124388571D01*
X82065714Y-124483809D01*
X82065714Y-124721904D01*
X82018095Y-124817142D01*
X81970476Y-124864761D01*
X81875238Y-124912380D01*
X81589523Y-124912380D01*
X81494285Y-124864761D01*
X81446666Y-124817142D01*
X79946666Y-117292380D02*
X79946666Y-116292380D01*
X80327619Y-116292380D01*
X80422857Y-116340000D01*
X80470476Y-116387619D01*
X80518095Y-116482857D01*
X80518095Y-116625714D01*
X80470476Y-116720952D01*
X80422857Y-116768571D01*
X80327619Y-116816190D01*
X79946666Y-116816190D01*
X80851428Y-116292380D02*
X81089523Y-117292380D01*
X81280000Y-116578095D01*
X81470476Y-117292380D01*
X81708571Y-116292380D01*
X82660952Y-117292380D02*
X82327619Y-116816190D01*
X82089523Y-117292380D02*
X82089523Y-116292380D01*
X82470476Y-116292380D01*
X82565714Y-116340000D01*
X82613333Y-116387619D01*
X82660952Y-116482857D01*
X82660952Y-116625714D01*
X82613333Y-116720952D01*
X82565714Y-116768571D01*
X82470476Y-116816190D01*
X82089523Y-116816190D01*
G04 #@! TO.C,R7*
X79362380Y-130976666D02*
X78886190Y-131310000D01*
X79362380Y-131548095D02*
X78362380Y-131548095D01*
X78362380Y-131167142D01*
X78410000Y-131071904D01*
X78457619Y-131024285D01*
X78552857Y-130976666D01*
X78695714Y-130976666D01*
X78790952Y-131024285D01*
X78838571Y-131071904D01*
X78886190Y-131167142D01*
X78886190Y-131548095D01*
X78362380Y-130643333D02*
X78362380Y-129976666D01*
X79362380Y-130405238D01*
G04 #@! TO.C,J9*
X80946666Y-98302380D02*
X80946666Y-99016666D01*
X80899047Y-99159523D01*
X80803809Y-99254761D01*
X80660952Y-99302380D01*
X80565714Y-99302380D01*
X81470476Y-99302380D02*
X81660952Y-99302380D01*
X81756190Y-99254761D01*
X81803809Y-99207142D01*
X81899047Y-99064285D01*
X81946666Y-98873809D01*
X81946666Y-98492857D01*
X81899047Y-98397619D01*
X81851428Y-98350000D01*
X81756190Y-98302380D01*
X81565714Y-98302380D01*
X81470476Y-98350000D01*
X81422857Y-98397619D01*
X81375238Y-98492857D01*
X81375238Y-98730952D01*
X81422857Y-98826190D01*
X81470476Y-98873809D01*
X81565714Y-98921428D01*
X81756190Y-98921428D01*
X81851428Y-98873809D01*
X81899047Y-98826190D01*
X81946666Y-98730952D01*
X79946666Y-87022380D02*
X79946666Y-86022380D01*
X80327619Y-86022380D01*
X80422857Y-86070000D01*
X80470476Y-86117619D01*
X80518095Y-86212857D01*
X80518095Y-86355714D01*
X80470476Y-86450952D01*
X80422857Y-86498571D01*
X80327619Y-86546190D01*
X79946666Y-86546190D01*
X80851428Y-86022380D02*
X81089523Y-87022380D01*
X81280000Y-86308095D01*
X81470476Y-87022380D01*
X81708571Y-86022380D01*
X82660952Y-87022380D02*
X82327619Y-86546190D01*
X82089523Y-87022380D02*
X82089523Y-86022380D01*
X82470476Y-86022380D01*
X82565714Y-86070000D01*
X82613333Y-86117619D01*
X82660952Y-86212857D01*
X82660952Y-86355714D01*
X82613333Y-86450952D01*
X82565714Y-86498571D01*
X82470476Y-86546190D01*
X82089523Y-86546190D01*
G04 #@! TO.C,U1*
X88138095Y-101052380D02*
X88138095Y-101861904D01*
X88185714Y-101957142D01*
X88233333Y-102004761D01*
X88328571Y-102052380D01*
X88519047Y-102052380D01*
X88614285Y-102004761D01*
X88661904Y-101957142D01*
X88709523Y-101861904D01*
X88709523Y-101052380D01*
X89709523Y-102052380D02*
X89138095Y-102052380D01*
X89423809Y-102052380D02*
X89423809Y-101052380D01*
X89328571Y-101195238D01*
X89233333Y-101290476D01*
X89138095Y-101338095D01*
X92876666Y-126840476D02*
X92876666Y-126364285D01*
X93162380Y-126935714D02*
X92162380Y-126602380D01*
X93162380Y-126269047D01*
X92162380Y-126078571D02*
X92162380Y-125507142D01*
X93162380Y-125792857D02*
X92162380Y-125792857D01*
X93162380Y-125173809D02*
X92495714Y-125173809D01*
X92590952Y-125173809D02*
X92543333Y-125126190D01*
X92495714Y-125030952D01*
X92495714Y-124888095D01*
X92543333Y-124792857D01*
X92638571Y-124745238D01*
X93162380Y-124745238D01*
X92638571Y-124745238D02*
X92543333Y-124697619D01*
X92495714Y-124602380D01*
X92495714Y-124459523D01*
X92543333Y-124364285D01*
X92638571Y-124316666D01*
X93162380Y-124316666D01*
X93114761Y-123459523D02*
X93162380Y-123554761D01*
X93162380Y-123745238D01*
X93114761Y-123840476D01*
X93019523Y-123888095D01*
X92638571Y-123888095D01*
X92543333Y-123840476D01*
X92495714Y-123745238D01*
X92495714Y-123554761D01*
X92543333Y-123459523D01*
X92638571Y-123411904D01*
X92733809Y-123411904D01*
X92829047Y-123888095D01*
X92495714Y-122554761D02*
X93305238Y-122554761D01*
X93400476Y-122602380D01*
X93448095Y-122650000D01*
X93495714Y-122745238D01*
X93495714Y-122888095D01*
X93448095Y-122983333D01*
X93114761Y-122554761D02*
X93162380Y-122650000D01*
X93162380Y-122840476D01*
X93114761Y-122935714D01*
X93067142Y-122983333D01*
X92971904Y-123030952D01*
X92686190Y-123030952D01*
X92590952Y-122983333D01*
X92543333Y-122935714D01*
X92495714Y-122840476D01*
X92495714Y-122650000D01*
X92543333Y-122554761D01*
X93162380Y-121650000D02*
X92638571Y-121650000D01*
X92543333Y-121697619D01*
X92495714Y-121792857D01*
X92495714Y-121983333D01*
X92543333Y-122078571D01*
X93114761Y-121650000D02*
X93162380Y-121745238D01*
X93162380Y-121983333D01*
X93114761Y-122078571D01*
X93019523Y-122126190D01*
X92924285Y-122126190D01*
X92829047Y-122078571D01*
X92781428Y-121983333D01*
X92781428Y-121745238D01*
X92733809Y-121650000D01*
X92162380Y-121269047D02*
X92162380Y-120650000D01*
X92543333Y-120983333D01*
X92543333Y-120840476D01*
X92590952Y-120745238D01*
X92638571Y-120697619D01*
X92733809Y-120650000D01*
X92971904Y-120650000D01*
X93067142Y-120697619D01*
X93114761Y-120745238D01*
X93162380Y-120840476D01*
X93162380Y-121126190D01*
X93114761Y-121221428D01*
X93067142Y-121269047D01*
X92257619Y-120269047D02*
X92210000Y-120221428D01*
X92162380Y-120126190D01*
X92162380Y-119888095D01*
X92210000Y-119792857D01*
X92257619Y-119745238D01*
X92352857Y-119697619D01*
X92448095Y-119697619D01*
X92590952Y-119745238D01*
X93162380Y-120316666D01*
X93162380Y-119697619D01*
X92590952Y-119126190D02*
X92543333Y-119221428D01*
X92495714Y-119269047D01*
X92400476Y-119316666D01*
X92352857Y-119316666D01*
X92257619Y-119269047D01*
X92210000Y-119221428D01*
X92162380Y-119126190D01*
X92162380Y-118935714D01*
X92210000Y-118840476D01*
X92257619Y-118792857D01*
X92352857Y-118745238D01*
X92400476Y-118745238D01*
X92495714Y-118792857D01*
X92543333Y-118840476D01*
X92590952Y-118935714D01*
X92590952Y-119126190D01*
X92638571Y-119221428D01*
X92686190Y-119269047D01*
X92781428Y-119316666D01*
X92971904Y-119316666D01*
X93067142Y-119269047D01*
X93114761Y-119221428D01*
X93162380Y-119126190D01*
X93162380Y-118935714D01*
X93114761Y-118840476D01*
X93067142Y-118792857D01*
X92971904Y-118745238D01*
X92781428Y-118745238D01*
X92686190Y-118792857D01*
X92638571Y-118840476D01*
X92590952Y-118935714D01*
X93162380Y-118316666D02*
X92162380Y-118316666D01*
X92162380Y-117935714D01*
X92210000Y-117840476D01*
X92257619Y-117792857D01*
X92352857Y-117745238D01*
X92495714Y-117745238D01*
X92590952Y-117792857D01*
X92638571Y-117840476D01*
X92686190Y-117935714D01*
X92686190Y-118316666D01*
X92781428Y-117316666D02*
X92781428Y-116554761D01*
X93162380Y-116078571D02*
X92162380Y-116078571D01*
X92162380Y-115697619D01*
X92210000Y-115602380D01*
X92257619Y-115554761D01*
X92352857Y-115507142D01*
X92495714Y-115507142D01*
X92590952Y-115554761D01*
X92638571Y-115602380D01*
X92686190Y-115697619D01*
X92686190Y-116078571D01*
X92162380Y-115078571D02*
X92971904Y-115078571D01*
X93067142Y-115030952D01*
X93114761Y-114983333D01*
X93162380Y-114888095D01*
X93162380Y-114697619D01*
X93114761Y-114602380D01*
X93067142Y-114554761D01*
X92971904Y-114507142D01*
X92162380Y-114507142D01*
G04 #@! TD*
%LPC*%
D14*
G04 #@! TO.C,U7*
X101600000Y-104140000D03*
D15*
X109220000Y-127000000D03*
X101600000Y-106680000D03*
X109220000Y-124460000D03*
X101600000Y-109220000D03*
X109220000Y-121920000D03*
X101600000Y-111760000D03*
X109220000Y-119380000D03*
X101600000Y-114300000D03*
X109220000Y-116840000D03*
X101600000Y-116840000D03*
X109220000Y-114300000D03*
X101600000Y-119380000D03*
X109220000Y-111760000D03*
X101600000Y-121920000D03*
X109220000Y-109220000D03*
X101600000Y-124460000D03*
X109220000Y-106680000D03*
X101600000Y-127000000D03*
X109220000Y-104140000D03*
G04 #@! TD*
D14*
G04 #@! TO.C,U6*
X137160000Y-78740000D03*
D15*
X152400000Y-127000000D03*
X137160000Y-81280000D03*
X152400000Y-124460000D03*
X137160000Y-83820000D03*
X152400000Y-121920000D03*
X137160000Y-86360000D03*
X152400000Y-119380000D03*
X137160000Y-88900000D03*
X152400000Y-116840000D03*
X137160000Y-91440000D03*
X152400000Y-114300000D03*
X137160000Y-93980000D03*
X152400000Y-111760000D03*
X137160000Y-96520000D03*
X152400000Y-109220000D03*
X137160000Y-99060000D03*
X152400000Y-106680000D03*
X137160000Y-101600000D03*
X152400000Y-104140000D03*
X137160000Y-104140000D03*
X152400000Y-101600000D03*
X137160000Y-106680000D03*
X152400000Y-99060000D03*
X137160000Y-109220000D03*
X152400000Y-96520000D03*
X137160000Y-111760000D03*
X152400000Y-93980000D03*
X137160000Y-114300000D03*
X152400000Y-91440000D03*
X137160000Y-116840000D03*
X152400000Y-88900000D03*
X137160000Y-119380000D03*
X152400000Y-86360000D03*
X137160000Y-121920000D03*
X152400000Y-83820000D03*
X137160000Y-124460000D03*
X152400000Y-81280000D03*
X137160000Y-127000000D03*
X152400000Y-78740000D03*
G04 #@! TD*
G04 #@! TO.C,U12*
X121920000Y-109220000D03*
X114300000Y-127000000D03*
X121920000Y-111760000D03*
X114300000Y-124460000D03*
X121920000Y-114300000D03*
X114300000Y-121920000D03*
X121920000Y-116840000D03*
X114300000Y-119380000D03*
X121920000Y-119380000D03*
X114300000Y-116840000D03*
X121920000Y-121920000D03*
X114300000Y-114300000D03*
X121920000Y-124460000D03*
X114300000Y-111760000D03*
X121920000Y-127000000D03*
D14*
X114300000Y-109220000D03*
G04 #@! TD*
G04 #@! TO.C,U4*
X127000000Y-55880000D03*
D15*
X134620000Y-71120000D03*
X127000000Y-58420000D03*
X134620000Y-68580000D03*
X127000000Y-60960000D03*
X134620000Y-66040000D03*
X127000000Y-63500000D03*
X134620000Y-63500000D03*
X127000000Y-66040000D03*
X134620000Y-60960000D03*
X127000000Y-68580000D03*
X134620000Y-58420000D03*
X127000000Y-71120000D03*
X134620000Y-55880000D03*
G04 #@! TD*
D14*
G04 #@! TO.C,U10*
X157480000Y-78740000D03*
D15*
X165100000Y-111760000D03*
X157480000Y-81280000D03*
X165100000Y-109220000D03*
X157480000Y-83820000D03*
X165100000Y-106680000D03*
X157480000Y-86360000D03*
X165100000Y-104140000D03*
X157480000Y-88900000D03*
X165100000Y-101600000D03*
X157480000Y-91440000D03*
X165100000Y-99060000D03*
X157480000Y-93980000D03*
X165100000Y-96520000D03*
X157480000Y-96520000D03*
X165100000Y-93980000D03*
X157480000Y-99060000D03*
X165100000Y-91440000D03*
X157480000Y-101600000D03*
X165100000Y-88900000D03*
X157480000Y-104140000D03*
X165100000Y-86360000D03*
X157480000Y-106680000D03*
X165100000Y-83820000D03*
X157480000Y-109220000D03*
X165100000Y-81280000D03*
X157480000Y-111760000D03*
X165100000Y-78740000D03*
G04 #@! TD*
D14*
G04 #@! TO.C,U2*
X88900000Y-78740000D03*
D15*
X96520000Y-96520000D03*
X88900000Y-81280000D03*
X96520000Y-93980000D03*
X88900000Y-83820000D03*
X96520000Y-91440000D03*
X88900000Y-86360000D03*
X96520000Y-88900000D03*
X88900000Y-88900000D03*
X96520000Y-86360000D03*
X88900000Y-91440000D03*
X96520000Y-83820000D03*
X88900000Y-93980000D03*
X96520000Y-81280000D03*
X88900000Y-96520000D03*
X96520000Y-78740000D03*
G04 #@! TD*
D16*
G04 #@! TO.C,C1*
X159980000Y-53340000D03*
X157480000Y-53340000D03*
G04 #@! TD*
G04 #@! TO.C,C2*
X116880000Y-106680000D03*
X119380000Y-106680000D03*
G04 #@! TD*
G04 #@! TO.C,C3*
X132080000Y-129540000D03*
X134580000Y-129540000D03*
G04 #@! TD*
G04 #@! TO.C,C4*
X104180000Y-101600000D03*
X106680000Y-101600000D03*
G04 #@! TD*
G04 #@! TO.C,C5*
X104180000Y-53340000D03*
X106680000Y-53340000D03*
G04 #@! TD*
G04 #@! TO.C,C6*
X91440000Y-76200000D03*
X93940000Y-76200000D03*
G04 #@! TD*
G04 #@! TO.C,C7*
X147320000Y-129540000D03*
X149820000Y-129540000D03*
G04 #@! TD*
G04 #@! TO.C,C8*
X99060000Y-121920000D03*
X99060000Y-119420000D03*
G04 #@! TD*
G04 #@! TO.C,C9*
X132080000Y-53340000D03*
X129580000Y-53340000D03*
G04 #@! TD*
G04 #@! TO.C,C10*
X162560000Y-76200000D03*
X160060000Y-76200000D03*
G04 #@! TD*
G04 #@! TO.C,C11*
X119380000Y-83820000D03*
X116880000Y-83820000D03*
G04 #@! TD*
G04 #@! TO.C,C12*
X86360000Y-119380000D03*
X86360000Y-121880000D03*
G04 #@! TD*
D14*
G04 #@! TO.C,D1*
X101600000Y-93980000D03*
D15*
X109220000Y-93980000D03*
G04 #@! TD*
G04 #@! TO.C,D2*
X86360000Y-134620000D03*
D14*
X86360000Y-127000000D03*
G04 #@! TD*
D17*
G04 #@! TO.C,J2*
X170180000Y-109220000D03*
X170180000Y-111760000D03*
X170180000Y-114300000D03*
X170180000Y-116840000D03*
X170180000Y-119380000D03*
X170180000Y-121920000D03*
X170180000Y-124460000D03*
D18*
X170180000Y-127000000D03*
G04 #@! TD*
G04 #@! TO.C,J3*
X101600000Y-132080000D03*
D17*
X104140000Y-132080000D03*
X101600000Y-134620000D03*
X104140000Y-134620000D03*
X101600000Y-137160000D03*
X104140000Y-137160000D03*
G04 #@! TD*
D18*
G04 #@! TO.C,J4*
X81280000Y-111760000D03*
D17*
X81280000Y-109220000D03*
X81280000Y-106680000D03*
X81280000Y-104140000D03*
G04 #@! TD*
D18*
G04 #@! TO.C,J7*
X127000000Y-127000000D03*
D17*
X127000000Y-124460000D03*
X127000000Y-121920000D03*
X127000000Y-119380000D03*
X127000000Y-116840000D03*
X127000000Y-114300000D03*
X127000000Y-111760000D03*
X127000000Y-109220000D03*
G04 #@! TD*
D14*
G04 #@! TO.C,RN1*
X132080000Y-106680000D03*
D15*
X132080000Y-109220000D03*
X132080000Y-111760000D03*
X132080000Y-114300000D03*
X132080000Y-116840000D03*
X132080000Y-119380000D03*
X132080000Y-121920000D03*
X132080000Y-124460000D03*
X132080000Y-127000000D03*
G04 #@! TD*
G04 #@! TO.C,U3*
X137160000Y-132080000D03*
X129540000Y-147320000D03*
X137160000Y-134620000D03*
X129540000Y-144780000D03*
X137160000Y-137160000D03*
X129540000Y-142240000D03*
X137160000Y-139700000D03*
X129540000Y-139700000D03*
X137160000Y-142240000D03*
X129540000Y-137160000D03*
X137160000Y-144780000D03*
X129540000Y-134620000D03*
X137160000Y-147320000D03*
D14*
X129540000Y-132080000D03*
G04 #@! TD*
G04 #@! TO.C,U5*
X101600000Y-55880000D03*
D15*
X109220000Y-73660000D03*
X101600000Y-58420000D03*
X109220000Y-71120000D03*
X101600000Y-60960000D03*
X109220000Y-68580000D03*
X101600000Y-63500000D03*
X109220000Y-66040000D03*
X101600000Y-66040000D03*
X109220000Y-63500000D03*
X101600000Y-68580000D03*
X109220000Y-60960000D03*
X101600000Y-71120000D03*
X109220000Y-58420000D03*
X101600000Y-73660000D03*
X109220000Y-55880000D03*
G04 #@! TD*
G04 #@! TO.C,U8*
X162560000Y-55880000D03*
X154940000Y-71120000D03*
X162560000Y-58420000D03*
X154940000Y-68580000D03*
X162560000Y-60960000D03*
X154940000Y-66040000D03*
X162560000Y-63500000D03*
X154940000Y-63500000D03*
X162560000Y-66040000D03*
X154940000Y-60960000D03*
X162560000Y-68580000D03*
X154940000Y-58420000D03*
X162560000Y-71120000D03*
D14*
X154940000Y-55880000D03*
G04 #@! TD*
G04 #@! TO.C,U9*
X144780000Y-132080000D03*
D15*
X152400000Y-147320000D03*
X144780000Y-134620000D03*
X152400000Y-144780000D03*
X144780000Y-137160000D03*
X152400000Y-142240000D03*
X144780000Y-139700000D03*
X152400000Y-139700000D03*
X144780000Y-142240000D03*
X152400000Y-137160000D03*
X144780000Y-144780000D03*
X152400000Y-134620000D03*
X144780000Y-147320000D03*
X152400000Y-132080000D03*
G04 #@! TD*
D14*
G04 #@! TO.C,U11*
X114300000Y-86360000D03*
D15*
X121920000Y-101600000D03*
X114300000Y-88900000D03*
X121920000Y-99060000D03*
X114300000Y-91440000D03*
X121920000Y-96520000D03*
X114300000Y-93980000D03*
X121920000Y-93980000D03*
X114300000Y-96520000D03*
X121920000Y-91440000D03*
X114300000Y-99060000D03*
X121920000Y-88900000D03*
X114300000Y-101600000D03*
X121920000Y-86360000D03*
G04 #@! TD*
D14*
G04 #@! TO.C,X1*
X101600000Y-78740000D03*
D16*
X109220000Y-78740000D03*
X109220000Y-86360000D03*
X101600000Y-86360000D03*
G04 #@! TD*
D18*
G04 #@! TO.C,J1*
X88900000Y-144780000D03*
D17*
X88900000Y-142240000D03*
X91440000Y-144780000D03*
X91440000Y-142240000D03*
X93980000Y-144780000D03*
X93980000Y-142240000D03*
X96520000Y-144780000D03*
X96520000Y-142240000D03*
G04 #@! TD*
D16*
G04 #@! TO.C,R1*
X109220000Y-91440000D03*
D15*
X101600000Y-91440000D03*
G04 #@! TD*
D16*
G04 #@! TO.C,R2*
X86360000Y-96520000D03*
D15*
X86360000Y-104140000D03*
G04 #@! TD*
D16*
G04 #@! TO.C,R3*
X101600000Y-96520000D03*
D15*
X109220000Y-96520000D03*
G04 #@! TD*
G04 #@! TO.C,R4*
X121920000Y-132080000D03*
D16*
X121920000Y-139700000D03*
G04 #@! TD*
D15*
G04 #@! TO.C,R5*
X116840000Y-132080000D03*
D16*
X116840000Y-139700000D03*
G04 #@! TD*
D15*
G04 #@! TO.C,R6*
X111760000Y-132080000D03*
D16*
X111760000Y-139700000D03*
G04 #@! TD*
D19*
G04 #@! TO.C,M1*
X81280000Y-144780000D03*
D20*
X83905000Y-144780000D03*
X83136155Y-146636155D03*
X81280000Y-147405000D03*
X79423845Y-146636155D03*
X78655000Y-144780000D03*
X79423845Y-142923845D03*
X81280000Y-142155000D03*
X83136155Y-142923845D03*
G04 #@! TD*
G04 #@! TO.C,M2*
X83136155Y-54023845D03*
X81280000Y-53255000D03*
X79423845Y-54023845D03*
X78655000Y-55880000D03*
X79423845Y-57736155D03*
X81280000Y-58505000D03*
X83136155Y-57736155D03*
X83905000Y-55880000D03*
D19*
X81280000Y-55880000D03*
G04 #@! TD*
G04 #@! TO.C,M3*
X170180000Y-144780000D03*
D20*
X172805000Y-144780000D03*
X172036155Y-146636155D03*
X170180000Y-147405000D03*
X168323845Y-146636155D03*
X167555000Y-144780000D03*
X168323845Y-142923845D03*
X170180000Y-142155000D03*
X172036155Y-142923845D03*
G04 #@! TD*
G04 #@! TO.C,M4*
X172036155Y-54023845D03*
X170180000Y-53255000D03*
X168323845Y-54023845D03*
X167555000Y-55880000D03*
X168323845Y-57736155D03*
X170180000Y-58505000D03*
X172036155Y-57736155D03*
X172805000Y-55880000D03*
D19*
X170180000Y-55880000D03*
G04 #@! TD*
D17*
G04 #@! TO.C,J5*
X170180000Y-78740000D03*
X170180000Y-81280000D03*
X170180000Y-83820000D03*
X170180000Y-86360000D03*
X170180000Y-88900000D03*
X170180000Y-91440000D03*
X170180000Y-93980000D03*
D18*
X170180000Y-96520000D03*
G04 #@! TD*
G04 #@! TO.C,J6*
X127000000Y-96520000D03*
D17*
X127000000Y-93980000D03*
X127000000Y-91440000D03*
X127000000Y-88900000D03*
X127000000Y-86360000D03*
X127000000Y-83820000D03*
X127000000Y-81280000D03*
X127000000Y-78740000D03*
G04 #@! TD*
D18*
G04 #@! TO.C,J8*
X121920000Y-144780000D03*
D17*
X119380000Y-144780000D03*
X116840000Y-144780000D03*
X114300000Y-144780000D03*
X111760000Y-144780000D03*
X109220000Y-144780000D03*
X106680000Y-144780000D03*
X104140000Y-144780000D03*
G04 #@! TD*
D21*
G04 #@! TO.C,D3*
X81280000Y-121920000D03*
D22*
X81280000Y-119380000D03*
G04 #@! TD*
D16*
G04 #@! TO.C,R7*
X81280000Y-134620000D03*
D15*
X81280000Y-127000000D03*
G04 #@! TD*
D18*
G04 #@! TO.C,J9*
X81280000Y-96520000D03*
D17*
X81280000Y-93980000D03*
X81280000Y-91440000D03*
X81280000Y-88900000D03*
G04 #@! TD*
D14*
G04 #@! TO.C,U1*
X88900000Y-104140000D03*
D15*
X96520000Y-137160000D03*
X88900000Y-106680000D03*
X96520000Y-134620000D03*
X88900000Y-109220000D03*
X96520000Y-132080000D03*
X88900000Y-111760000D03*
X96520000Y-129540000D03*
X88900000Y-114300000D03*
X96520000Y-127000000D03*
X88900000Y-116840000D03*
X96520000Y-124460000D03*
X88900000Y-119380000D03*
X96520000Y-121920000D03*
X88900000Y-121920000D03*
X96520000Y-119380000D03*
X88900000Y-124460000D03*
X96520000Y-116840000D03*
X88900000Y-127000000D03*
X96520000Y-114300000D03*
X88900000Y-129540000D03*
X96520000Y-111760000D03*
X88900000Y-132080000D03*
X96520000Y-109220000D03*
X88900000Y-134620000D03*
X96520000Y-106680000D03*
X88900000Y-137160000D03*
X96520000Y-104140000D03*
G04 #@! TD*
M02*
