M48
;DRILL file {KiCad 5.0.2+dfsg1-1} date Sun 15 Sep 2019 21:20:53 BST
;FORMAT={-:-/ absolute / inch / decimal}
FMAT,2
INCH,TZ
T1C0.0157
T2C0.0197
T3C0.0315
T4C0.0354
T5C0.0394
T6C0.1378
%
G90
G05
T1
X3.3Y-2.45
X3.3Y-5.
X3.35Y-2.55
X3.35Y-4.25
X3.4Y-4.4
X3.45Y-2.95
X3.6Y-4.1
X3.6Y-5.35
X3.65Y-2.4
X3.65Y-3.55
X3.65Y-3.95
X3.65Y-4.6
X3.65Y-4.9
X3.65Y-5.05
X3.7Y-3.3
X3.7Y-4.1
X3.7Y-4.95
X3.7Y-5.1
X3.75Y-3.85
X3.75Y-4.05
X3.75Y-5.15
X3.85Y-3.
X3.9Y-3.05
X3.9Y-3.2
X3.9Y-4.2
X3.9Y-5.
X3.9Y-5.3
X3.95Y-3.45
X4.Y-2.05
X4.1Y-2.3
X4.1Y-2.65
X4.15Y-2.25
X4.15Y-2.6
X4.15Y-4.35
X4.15Y-5.
X4.2Y-3.9
X4.2Y-4.2
X4.2Y-4.4
X4.2Y-4.7
X4.2Y-4.85
X4.2Y-5.1
X4.2Y-5.55
X4.25Y-4.25
X4.25Y-4.95
X4.25Y-5.25
X4.3Y-2.1
X4.35Y-2.55
X4.4Y-2.15
X4.4Y-2.35
X4.4Y-3.4
X4.4Y-4.5
X4.4Y-4.8
X4.45Y-2.35
X4.45Y-3.
X4.5Y-3.
X4.55Y-2.85
X4.55Y-5.45
X4.6Y-2.8
X4.6Y-3.5
X4.6Y-3.85
X4.6Y-4.35
X4.6Y-4.7
X4.65Y-3.5
X4.65Y-3.95
X4.65Y-4.25
X4.65Y-4.8
X4.7Y-3.8
X4.7Y-4.5
X4.7Y-4.6
X4.75Y-2.7
X4.8Y-2.75
X4.8Y-3.3
X4.85Y-2.9
X4.9Y-2.75
X4.9Y-3.5
X4.9Y-4.55
X4.95Y-2.95
X5.Y-2.1
X5.05Y-3.05
X5.05Y-5.65
X5.1Y-2.4
X5.1Y-3.25
X5.1Y-3.4
X5.1Y-3.6
X5.1Y-3.95
X5.15Y-3.2
X5.15Y-3.4
X5.15Y-3.85
X5.2Y-3.15
X5.2Y-3.5
X5.25Y-2.95
X5.25Y-3.1
X5.25Y-3.5
X5.25Y-4.
X5.25Y-5.55
X5.25Y-5.7
X5.3Y-2.1
X5.3Y-3.9
X5.3Y-4.6
X5.35Y-4.95
X5.35Y-5.35
X5.45Y-4.65
X5.45Y-5.1
X5.5Y-3.1
X5.5Y-3.55
X5.5Y-3.7
X5.5Y-4.55
X5.55Y-3.2
X5.55Y-3.65
X5.55Y-4.2
X5.55Y-4.35
X5.55Y-4.75
X5.55Y-5.15
X5.55Y-5.6
X5.6Y-3.3
X5.6Y-3.75
X5.6Y-3.95
X5.6Y-4.3
X5.6Y-4.7
X5.6Y-5.65
X5.65Y-3.35
X5.65Y-3.65
X5.65Y-4.15
X5.65Y-4.4
X5.7Y-2.05
X5.7Y-3.35
X5.7Y-3.45
X5.7Y-3.75
X5.7Y-4.25
X5.7Y-4.5
X5.7Y-4.85
X5.75Y-2.7
X5.75Y-4.85
X5.8Y-3.6
X5.8Y-4.95
X5.85Y-2.6
X5.85Y-3.05
X5.9Y-2.5
X5.9Y-2.8
X5.9Y-4.05
X5.9Y-4.5
X5.9Y-4.75
X5.9Y-5.
X5.95Y-2.6
X5.95Y-2.95
X6.Y-2.4
X6.Y-3.
X6.1Y-4.75
X6.15Y-3.35
X6.2Y-2.8
X6.2Y-3.
X6.25Y-2.45
X6.25Y-2.8
X6.25Y-3.05
X6.25Y-3.45
X6.25Y-4.15
X6.3Y-2.85
X6.3Y-3.55
X6.3Y-3.8
X6.3Y-3.85
X6.3Y-4.1
X6.3Y-4.45
X6.35Y-2.9
X6.35Y-3.25
X6.35Y-3.4
X6.35Y-3.65
X6.35Y-3.9
X6.35Y-4.2
X6.35Y-4.3
X6.35Y-4.55
X6.4Y-3.25
X6.4Y-3.5
X6.4Y-3.6
X6.4Y-3.7
X6.4Y-3.75
X6.4Y-4.
X6.4Y-4.4
X6.4Y-4.65
X6.45Y-3.15
X6.45Y-4.05
X6.5Y-2.15
X6.5Y-3.
X6.5Y-4.6
X6.5Y-4.95
X6.55Y-4.85
X6.6Y-2.5
X6.6Y-3.7
X6.75Y-2.65
X6.75Y-3.9
X6.8Y-2.6
T2
X3.0967Y-2.2
X3.1269Y-2.1269
X3.1269Y-2.2731
X3.2Y-2.0967
X3.2Y-2.3033
X3.2731Y-2.1269
X3.2731Y-2.2731
X3.3033Y-2.2
X6.5967Y-2.2
X6.6269Y-2.1269
X6.6269Y-2.2731
X6.7Y-2.0967
X6.7Y-2.3033
X6.7731Y-2.1269
X6.7731Y-2.2731
X6.8033Y-2.2
X6.5967Y-5.7
X6.6269Y-5.6269
X6.6269Y-5.7731
X6.7Y-5.5967
X6.7Y-5.8033
X6.7731Y-5.6269
X6.7731Y-5.7731
X6.8033Y-5.7
X3.0967Y-5.7
X3.1269Y-5.6269
X3.1269Y-5.7731
X3.2Y-5.5967
X3.2Y-5.8033
X3.2731Y-5.6269
X3.2731Y-5.7731
X3.3033Y-5.7
T3
X3.4Y-4.7
X3.4Y-4.7984
X5.Y-2.2
X5.Y-2.3
X5.Y-2.4
X5.Y-2.5
X5.Y-2.6
X5.Y-2.7
X5.Y-2.8
X5.3Y-2.2
X5.3Y-2.3
X5.3Y-2.4
X5.3Y-2.5
X5.3Y-2.6
X5.3Y-2.7
X5.3Y-2.8
X5.4Y-3.1
X5.4Y-3.2
X5.4Y-3.3
X5.4Y-3.4
X5.4Y-3.5
X5.4Y-3.6
X5.4Y-3.7
X5.4Y-3.8
X5.4Y-3.9
X5.4Y-4.
X5.4Y-4.1
X5.4Y-4.2
X5.4Y-4.3
X5.4Y-4.4
X5.4Y-4.5
X5.4Y-4.6
X5.4Y-4.7
X5.4Y-4.8
X5.4Y-4.9
X5.4Y-5.
X6.Y-3.1
X6.Y-3.2
X6.Y-3.3
X6.Y-3.4
X6.Y-3.5
X6.Y-3.6
X6.Y-3.7
X6.Y-3.8
X6.Y-3.9
X6.Y-4.
X6.Y-4.1
X6.Y-4.2
X6.Y-4.3
X6.Y-4.4
X6.Y-4.5
X6.Y-4.6
X6.Y-4.7
X6.Y-4.8
X6.Y-4.9
X6.Y-5.
X4.6016Y-4.2
X4.7Y-4.2
X6.1Y-2.2
X6.1Y-2.3
X6.1Y-2.4
X6.1Y-2.5
X6.1Y-2.6
X6.1Y-2.7
X6.1Y-2.8
X6.4Y-2.2
X6.4Y-2.3
X6.4Y-2.4
X6.4Y-2.5
X6.4Y-2.6
X6.4Y-2.7
X6.4Y-2.8
X5.2Y-4.2
X5.2Y-4.3
X5.2Y-4.4
X5.2Y-4.5
X5.2Y-4.6
X5.2Y-4.7
X5.2Y-4.8
X5.2Y-4.9
X5.2Y-5.
X4.6Y-5.2
X4.6Y-5.5
X4.Y-3.8
X4.3Y-3.8
X3.6Y-3.
X3.6984Y-3.
X4.Y-3.6
X4.3Y-3.6
X4.1016Y-2.1
X4.2Y-2.1
X5.1016Y-2.1
X5.2Y-2.1
X5.7Y-5.2
X5.7Y-5.3
X5.7Y-5.4
X5.7Y-5.5
X5.7Y-5.6
X5.7Y-5.7
X5.7Y-5.8
X6.Y-5.2
X6.Y-5.3
X6.Y-5.4
X6.Y-5.5
X6.Y-5.6
X6.Y-5.7
X6.Y-5.8
X4.Y-2.2
X4.Y-2.3
X4.Y-2.4
X4.Y-2.5
X4.Y-2.6
X4.Y-2.7
X4.Y-2.8
X4.Y-2.9
X4.3Y-2.2
X4.3Y-2.3
X4.3Y-2.4
X4.3Y-2.5
X4.3Y-2.6
X4.3Y-2.7
X4.3Y-2.8
X4.3Y-2.9
X3.4Y-5.
X3.4Y-5.3
X4.5Y-3.4
X4.5Y-3.5
X4.5Y-3.6
X4.5Y-3.7
X4.5Y-3.8
X4.5Y-3.9
X4.5Y-4.
X4.8Y-3.4
X4.8Y-3.5
X4.8Y-3.6
X4.8Y-3.7
X4.8Y-3.8
X4.8Y-3.9
X4.8Y-4.
X4.1016Y-4.
X4.2Y-4.
X3.5Y-4.1
X3.5Y-4.2
X3.5Y-4.3
X3.5Y-4.4
X3.5Y-4.5
X3.5Y-4.6
X3.5Y-4.7
X3.5Y-4.8
X3.5Y-4.9
X3.5Y-5.
X3.5Y-5.1
X3.5Y-5.2
X3.5Y-5.3
X3.5Y-5.4
X3.8Y-4.1
X3.8Y-4.2
X3.8Y-4.3
X3.8Y-4.4
X3.8Y-4.5
X3.8Y-4.6
X3.8Y-4.7
X3.8Y-4.8
X3.8Y-4.9
X3.8Y-5.
X3.8Y-5.1
X3.8Y-5.2
X3.8Y-5.3
X3.8Y-5.4
X3.4Y-3.8
X3.4Y-4.1
X6.3016Y-3.
X6.4Y-3.
X4.4Y-5.2
X4.4Y-5.5
X4.5Y-4.3
X4.5Y-4.4
X4.5Y-4.5
X4.5Y-4.6
X4.5Y-4.7
X4.5Y-4.8
X4.5Y-4.9
X4.5Y-5.
X4.8Y-4.3
X4.8Y-4.4
X4.8Y-4.5
X4.8Y-4.6
X4.8Y-4.7
X4.8Y-4.8
X4.8Y-4.9
X4.8Y-5.
X3.5Y-3.1
X3.5Y-3.2
X3.5Y-3.3
X3.5Y-3.4
X3.5Y-3.5
X3.5Y-3.6
X3.5Y-3.7
X3.5Y-3.8
X3.8Y-3.1
X3.8Y-3.2
X3.8Y-3.3
X3.8Y-3.4
X3.8Y-3.5
X3.8Y-3.6
X3.8Y-3.7
X3.8Y-3.8
X3.9Y-4.7016
X3.9Y-4.8
X4.6016Y-3.3
X4.7Y-3.3
X5.1Y-5.2
X5.1Y-5.3
X5.1Y-5.4
X5.1Y-5.5
X5.1Y-5.6
X5.1Y-5.7
X5.1Y-5.8
X5.4Y-5.2
X5.4Y-5.3
X5.4Y-5.4
X5.4Y-5.5
X5.4Y-5.6
X5.4Y-5.7
X5.4Y-5.8
X5.2Y-5.1
X5.2984Y-5.1
X4.8Y-5.2
X4.8Y-5.5
X5.8Y-5.1
X5.8984Y-5.1
X6.2Y-2.1
X6.2984Y-2.1
X4.Y-4.1
X4.Y-4.2
X4.Y-4.3
X4.Y-4.4
X4.Y-4.5
X4.Y-4.6
X4.Y-4.7
X4.Y-4.8
X4.Y-4.9
X4.Y-5.
X4.3Y-4.1
X4.3Y-4.2
X4.3Y-4.3
X4.3Y-4.4
X4.3Y-4.5
X4.3Y-4.6
X4.3Y-4.7
X4.3Y-4.8
X4.3Y-4.9
X4.3Y-5.
X3.2Y-5.
X3.2Y-5.3
X4.Y-3.7
X4.3Y-3.7
X6.2Y-3.1
X6.2Y-3.2
X6.2Y-3.3
X6.2Y-3.4
X6.2Y-3.5
X6.2Y-3.6
X6.2Y-3.7
X6.2Y-3.8
X6.2Y-3.9
X6.2Y-4.
X6.2Y-4.1
X6.2Y-4.2
X6.2Y-4.3
X6.2Y-4.4
X6.5Y-3.1
X6.5Y-3.2
X6.5Y-3.3
X6.5Y-3.4
X6.5Y-3.5
X6.5Y-3.6
X6.5Y-3.7
X6.5Y-3.8
X6.5Y-3.9
X6.5Y-4.
X6.5Y-4.1
X6.5Y-4.2
X6.5Y-4.3
X6.5Y-4.4
X4.Y-3.1
X4.Y-3.4
X4.3Y-3.1
X4.3Y-3.4
T4
X3.2Y-4.7
X3.2Y-4.8
T5
X6.7Y-3.1
X6.7Y-3.2
X6.7Y-3.3
X6.7Y-3.4
X6.7Y-3.5
X6.7Y-3.6
X6.7Y-3.7
X6.7Y-3.8
X4.Y-5.2
X4.Y-5.3
X4.Y-5.4
X4.1Y-5.2
X4.1Y-5.3
X4.1Y-5.4
X5.Y-3.1
X5.Y-3.2
X5.Y-3.3
X5.Y-3.4
X5.Y-3.5
X5.Y-3.6
X5.Y-3.7
X5.Y-3.8
X4.1Y-5.7
X4.2Y-5.7
X4.3Y-5.7
X4.4Y-5.7
X4.5Y-5.7
X4.6Y-5.7
X4.7Y-5.7
X4.8Y-5.7
X3.2Y-4.1
X3.2Y-4.2
X3.2Y-4.3
X3.2Y-4.4
X6.7Y-4.3
X6.7Y-4.4
X6.7Y-4.5
X6.7Y-4.6
X6.7Y-4.7
X6.7Y-4.8
X6.7Y-4.9
X6.7Y-5.
X3.5Y-5.6
X3.5Y-5.7
X3.6Y-5.6
X3.6Y-5.7
X3.7Y-5.6
X3.7Y-5.7
X3.8Y-5.6
X3.8Y-5.7
X5.Y-4.3
X5.Y-4.4
X5.Y-4.5
X5.Y-4.6
X5.Y-4.7
X5.Y-4.8
X5.Y-4.9
X5.Y-5.
X3.2Y-3.5
X3.2Y-3.6
X3.2Y-3.7
X3.2Y-3.8
T6
X3.2Y-2.2
X6.7Y-2.2
X6.7Y-5.7
X3.2Y-5.7
T0
M30
